SplineFontDB: 3.2
FontName: Besley-Fatface
FullName: Besley* Fatface
FamilyName: Besley*
Weight: Book
Version: 002.100
ItalicAngle: 0
UnderlinePosition: -200
UnderlineWidth: 100
Ascent: 1600
Descent: 400
InvalidEm: 0
LayerCount: 2
Layer: 0 0 "Back" 1
Layer: 1 0 "Fore" 0
XUID: [1021 31 -699969567 16487490]
FSType: 0
OS2Version: 0
OS2_WeightWidthSlopeOnly: 0
OS2_UseTypoMetrics: 1
CreationTime: 1460762150
ModificationTime: 1668345925
PfmFamily: 17
TTFWeight: 900
TTFWidth: 5
LineGap: 0
VLineGap: 0
OS2TypoAscent: 2500
OS2TypoAOffset: 0
OS2TypoDescent: -850
OS2TypoDOffset: 0
OS2TypoLinegap: 0
OS2WinAscent: 2500
OS2WinAOffset: 0
OS2WinDescent: 850
OS2WinDOffset: 0
HheadAscent: 2500
HheadAOffset: 0
HheadDescent: -850
HheadDOffset: 0
OS2CapHeight: 1500
OS2XHeight: 1040
OS2FamilyClass: 1024
OS2Vendor: 'it* '
OS2UnicodeRanges: 00000001.00000000.00000000.00000000
Lookup: 1 0 0 "'smcp' Lowercase to Small Capitals in Latin lookup 0" { "'smcp' Lowercase to Small Capitals in Latin lookup 0 subtable"  } ['smcp' ('latn' <'dflt' > ) ]
Lookup: 1 0 0 "'c2sc' Capitals to Small Capitals in Latin lookup 1" { "'c2sc' Capitals to Small Capitals in Latin lookup 1 subtable"  } ['c2sc' ('latn' <'dflt' > ) ]
Lookup: 1 0 0 "'ss01' Style Set 1 lookup 2" { "'ss01' Style Set 1 lookup 2 subtable"  } ['ss01' ('DFLT' <'dflt' > 'grek' <'dflt' > 'latn' <'dflt' > ) ]
Lookup: 6 0 0 "'calt' Contextual Alternates lookup 3" { "'calt' Contextual Alternates lookup 3 subtable"  } ['calt' ('DFLT' <'dflt' > 'grek' <'dflt' > 'latn' <'dflt' > ) ]
Lookup: 4 0 1 "'liga' Standard Ligatures lookup 4" { "'liga' Standard Ligatures lookup 4 subtable"  } ['liga' ('DFLT' <'dflt' > 'grek' <'dflt' > 'latn' <'dflt' > ) ]
Lookup: 1 0 0 "'onum' Oldstyle Figures lookup 5" { "'onum' Oldstyle Figures lookup 5 subtable" ("oldstyle") } ['onum' ('DFLT' <'dflt' > 'grek' <'dflt' > 'latn' <'dflt' > ) ]

StartChar: ampersand
Encoding: 38 38 0
Width: 1840
Flags: MW
LayerCount: 2
Fore
SplineSet
1219 920 m 2
 1676 920 l 2
 1704 920 1710 915 1710 885 c 2
 1710 722 l 2
 1710 694 1703 690 1674 690 c 2
 1576 690 l 2
 1542 690 1535 682 1526 658 c 0
 1490 562 1439 468 1373 381 c 0
 1346 345 1339 344 1367 306 c 2
 1402 259 l 2
 1422 232 1431 230 1480 230 c 2
 1681 230 l 2
 1717 230 1720 222 1720 185 c 2
 1720 50 l 2
 1720 6 1715 0 1672 0 c 2
 1150 0 l 2
 1095 0 1086 12 1062 42 c 2
 1054 52 l 2
 1038 72 1028 79 994 62 c 0
 866 -2 720 -40 560 -40 c 0
 214 -40 2 114 2 400 c 0
 2 674 207 781 424 861 c 0
 475 880 457 887 430 924 c 2
 390 980 l 1
 340 1058 298 1136 298 1206 c 0
 298 1426 528 1540 840 1540 c 0
 1134 1540 1332 1430 1332 1250 c 0
 1332 1048 1178 947 999 866 c 0
 962 849 968 849 990 819 c 2
 1180 560 l 2
 1211 517 1213 520 1241 566 c 0
 1260 596 1276 627 1290 659 c 0
 1302 686 1289 690 1269 690 c 2
 1212 690 l 2
 1178 690 1170 695 1170 732 c 2
 1170 862 l 2
 1170 905 1177 920 1219 920 c 2
544 631 m 0
 493 581 462 519 462 440 c 0
 462 296 542 216 670 216 c 0
 739 216 805 228 867 250 c 0
 913 266 894 275 871 308 c 2
 634 640 l 2
 598 690 585 672 544 631 c 0
924 1230 m 0
 924 1284 908 1360 828 1360 c 0
 774 1360 734 1316 734 1250 c 0
 734 1170 781 1103 820 1050 c 0
 831 1036 833 1042 845 1053 c 0
 894 1098 924 1155 924 1230 c 0
EndSplineSet
EndChar

StartChar: period
Encoding: 46 46 1
Width: 640
Flags: MW
LayerCount: 2
Fore
SplineSet
80 200 m 0
 80 332 188 440 320 440 c 0
 452 440 560 332 560 200 c 0
 560 68 452 -40 320 -40 c 0
 188 -40 80 68 80 200 c 0
EndSplineSet
EndChar

StartChar: zero
Encoding: 48 48 2
Width: 1364
Flags: MW
LayerCount: 2
Fore
SplineSet
72 750 m 0
 72 1316 336 1520 682 1520 c 0
 1048 1520 1292 1316 1292 750 c 0
 1292 184 1008 -20 682 -20 c 0
 336 -20 72 184 72 750 c 0
492 750 m 0
 492 306 554 190 682 190 c 0
 820 190 872 306 872 750 c 0
 872 1194 820 1310 682 1310 c 0
 554 1310 492 1194 492 750 c 0
EndSplineSet
Substitution2: "'onum' Oldstyle Figures lookup 5 subtable" zero.oldstyle
Substitution2: "'tnum' Tabular Numbers lookup 6 subtable" uniFF10
EndChar

StartChar: one
Encoding: 49 49 3
Width: 1200
Flags: MW
LayerCount: 2
Fore
SplineSet
70 65 m 2
 70 166 l 2
 70 208 80 210 123 210 c 2
 385 210 l 2
 434 210 440 217 440 264 c 2
 440 1073 l 2
 440 1113 431 1120 393 1120 c 2
 149 1120 l 2
 116 1120 104 1123 104 1159 c 2
 104 1279 l 2
 104 1333 136 1330 183 1331 c 0
 367 1335 526 1360 619 1535 c 0
 636 1567 641 1580 693 1580 c 2
 779 1580 l 2
 822 1580 830 1575 830 1534 c 2
 830 266 l 2
 830 212 840 210 895 210 c 2
 1117 210 l 2
 1150 210 1170 206 1170 170 c 2
 1170 59 l 2
 1170 10 1168 0 1119 0 c 2
 135 0 l 2
 77 0 70 5 70 65 c 2
EndSplineSet
Substitution2: "'onum' Oldstyle Figures lookup 5 subtable" one.oldstyle
Substitution2: "'tnum' Tabular Numbers lookup 6 subtable" uniFF11
EndChar

StartChar: two
Encoding: 50 50 4
Width: 1425
Flags: MW
LayerCount: 2
Fore
SplineSet
1354 510 m 0
 1343 141 1193 -20 925 -20 c 0
 691 -20 561 100 415 100 c 0
 358 100 321 74 298 34 c 0
 282 7 288 0 243 0 c 2
 101 0 l 2
 62 0 56 4 56 42 c 0
 57 320 194 576 469 768 c 0
 617 871 869 972 869 1150 c 0
 869 1288 817 1346 609 1346 c 0
 481 1346 377 1298 377 1254 c 0
 377 1218 539 1228 539 1056 c 0
 539 922 434 850 320 850 c 0
 202 850 87 926 87 1082 c 0
 87 1356 345 1520 699 1520 c 0
 1061 1520 1291 1400 1291 1140 c 0
 1291 860 1010 792 709 660 c 0
 541 586 443 516 380 441 c 0
 334 386 290 301 312 301 c 0
 335 301 334 356 396 414 c 0
 443 458 519 469 585 469 c 0
 755 469 835 381 987 381 c 0
 1094 381 1145 431 1158 510 c 0
 1164 552 1159 554 1207 554 c 2
 1313 554 l 2
 1357 554 1354 552 1354 510 c 0
EndSplineSet
Substitution2: "'onum' Oldstyle Figures lookup 5 subtable" two.oldstyle
Substitution2: "'tnum' Tabular Numbers lookup 6 subtable" uniFF12
EndChar

StartChar: three
Encoding: 51 51 5
Width: 1235
Flags: MW
LayerCount: 2
Fore
SplineSet
30 348 m 0
 30 484 120 590 268 590 c 0
 402 590 472 518 472 424 c 0
 472 292 347 292 347 246 c 0
 347 192 444 164 522 164 c 0
 670 164 788 212 788 420 c 0
 788 556 699 655 516 670 c 0
 478 673 464 663 464 707 c 2
 464 838 l 2
 464 877 473 869 507 872 c 0
 691 886 748 995 748 1142 c 0
 748 1290 650 1346 522 1346 c 0
 464 1346 398 1330 398 1296 c 0
 398 1250 532 1260 532 1118 c 0
 532 1034 452 952 328 952 c 0
 210 952 90 1028 90 1174 c 0
 90 1368 288 1520 602 1520 c 0
 934 1520 1150 1372 1150 1142 c 0
 1150 998 1065 868 844 798 c 0
 800 784 770 789 770 775 c 0
 770 758 789 766 844 752 c 0
 1082 689 1190 561 1190 400 c 0
 1190 100 884 -20 582 -20 c 0
 228 -20 30 154 30 348 c 0
EndSplineSet
Substitution2: "'onum' Oldstyle Figures lookup 5 subtable" three.oldstyle
Substitution2: "'tnum' Tabular Numbers lookup 6 subtable" uniFF13
EndChar

StartChar: four
Encoding: 52 52 6
Width: 1310
Flags: MW
LayerCount: 2
Fore
SplineSet
1260 164 m 2
 1260 36 l 2
 1260 3 1252 0 1218 0 c 2
 486 0 l 2
 439 0 430 1 430 48 c 2
 430 165 l 2
 430 201 437 210 474 210 c 2
 623 210 l 2
 667 210 670 217 670 262 c 2
 670 356 l 2
 670 410 670 410 616 410 c 2
 118 410 l 2
 75 410 75 418 61 444 c 2
 30 502 l 2
 18 523 25 532 36 554 c 0
 193 868 605 1048 708 1444 c 0
 719 1486 720 1500 776 1500 c 2
 1046 1500 l 2
 1099 1500 1108 1495 1100 1448 c 0
 1036 1062 557 911 361 692 c 0
 334 662 309 620 387 620 c 2
 632 620 l 2
 667 620 670 628 670 664 c 2
 670 710 l 2
 670 757 681 754 712 771 c 0
 778 806 867 854 908 940 c 0
 917 960 923 970 954 970 c 2
 1020 970 l 2
 1051 970 1060 969 1060 938 c 2
 1060 678 l 2
 1060 645 1069 620 1106 620 c 2
 1254 620 l 2
 1286 620 1290 612 1290 582 c 2
 1290 466 l 2
 1290 420 1290 410 1244 410 c 2
 1114 410 l 2
 1073 410 1060 406 1060 362 c 2
 1060 262 l 2
 1060 217 1065 210 1112 210 c 2
 1216 210 l 2
 1255 210 1260 204 1260 164 c 2
EndSplineSet
Substitution2: "'onum' Oldstyle Figures lookup 5 subtable" four.oldstyle
Substitution2: "'tnum' Tabular Numbers lookup 6 subtable" uniFF14
EndChar

StartChar: five
Encoding: 53 53 7
Width: 1300
Flags: MW
LayerCount: 2
Fore
SplineSet
65 318 m 0
 65 464 165 550 293 550 c 0
 417 550 497 468 497 384 c 0
 497 292 423 252 423 206 c 0
 423 162 479 144 557 144 c 0
 715 144 843 302 843 510 c 0
 843 728 725 812 607 812 c 0
 528 812 426 763 340 655 c 0
 324 634 313 624 274 624 c 2
 210 624 l 2
 156 624 161 642 166 686 c 2
 258 1460 l 2
 262 1498 272 1500 314 1500 c 2
 679 1500 l 2
 880 1500 942 1468 1008 1543 c 0
 1021 1558 1031 1564 1062 1564 c 2
 1167 1564 l 2
 1193 1564 1204 1557 1199 1534 c 2
 1191 1500 l 2
 1155 1336 1119 1120 645 1120 c 2
 420 1120 l 2
 382 1120 378 1111 373 1078 c 2
 353 930 l 2
 347 892 331 850 339 846 c 0
 354 837 362 872 394 896 c 0
 470 952 580 1000 721 1000 c 0
 1063 1000 1245 780 1245 500 c 0
 1245 160 979 -20 597 -20 c 0
 293 -20 65 114 65 318 c 0
EndSplineSet
Substitution2: "'onum' Oldstyle Figures lookup 5 subtable" five.oldstyle
Substitution2: "'tnum' Tabular Numbers lookup 6 subtable" uniFF15
EndChar

StartChar: six
Encoding: 54 54 8
Width: 1330
Flags: MW
LayerCount: 2
Fore
SplineSet
826 1312 m 0
 826 1338 806 1366 738 1366 c 0
 620 1366 504 1197 484 864 c 0
 482 829 477 815 484 811 c 0
 493 806 497 822 517 842 c 0
 588 914 702 960 832 960 c 0
 1054 960 1270 810 1270 500 c 0
 1270 130 980 -20 678 -20 c 0
 356 -20 80 170 80 740 c 0
 80 1220 356 1520 728 1520 c 0
 1032 1520 1220 1386 1220 1222 c 0
 1220 1086 1141 990 1002 990 c 0
 868 990 778 1062 778 1176 c 0
 778 1248 826 1286 826 1312 c 0
870 470 m 0
 870 658 786 722 678 722 c 0
 572 722 480 620 480 460 c 0
 480 302 550 210 678 210 c 0
 796 210 870 292 870 470 c 0
EndSplineSet
Substitution2: "'tnum' Tabular Numbers lookup 6 subtable" uniFF16
EndChar

StartChar: seven
Encoding: 55 55 9
Width: 1303
Flags: MW
LayerCount: 2
Fore
SplineSet
65 982 m 0
 75 1347 284 1520 485 1520 c 0
 679 1520 799 1400 965 1400 c 0
 1033 1400 1066 1427 1086 1471 c 0
 1094 1489 1097 1500 1125 1500 c 2
 1254 1500 l 2
 1289 1500 1295 1493 1290 1460 c 0
 1267 1305 1076 993 891 756 c 0
 769 599 713 532 713 464 c 0
 713 368 889 368 889 216 c 0
 889 102 819 -20 661 -20 c 0
 513 -20 399 74 399 252 c 0
 399 430 501 564 663 762 c 0
 763 884 833 965 929 1100 c 0
 958 1141 983 1176 973 1186 c 0
 958 1201 934 1159 905 1136 c 0
 858 1098 779 1066 725 1066 c 0
 605 1066 545 1134 443 1134 c 0
 356 1134 251 1082 241 980 c 0
 239 957 246 946 218 946 c 2
 102 946 l 2
 72 946 64 954 65 982 c 0
EndSplineSet
Substitution2: "'onum' Oldstyle Figures lookup 5 subtable" seven.oldstyle
Substitution2: "'tnum' Tabular Numbers lookup 6 subtable" uniFF17
EndChar

StartChar: eight
Encoding: 56 56 10
Width: 1290
Flags: MW
LayerCount: 2
Fore
SplineSet
450 444 m 0
 450 236 542 170 640 170 c 0
 728 170 820 236 820 444 c 0
 820 612 728 720 640 720 c 0
 542 720 450 612 450 444 c 0
100 1140 m 0
 100 1360 318 1520 640 1520 c 0
 972 1520 1190 1360 1190 1140 c 0
 1190 994 1108 897 985 842 c 0
 954 828 929 824 929 810 c 0
 929 798 955 792 984 780 c 0
 1138 716 1240 591 1240 420 c 0
 1240 160 1002 -20 640 -20 c 0
 278 -20 50 160 50 420 c 0
 50 600 154 731 322 790 c 0
 343 797 356 797 356 812 c 0
 356 826 333 827 319 832 c 0
 184 884 100 984 100 1140 c 0
500 1105 m 0
 500 957 582 900 640 900 c 0
 718 900 780 957 780 1105 c 0
 780 1253 718 1330 650 1330 c 0
 582 1330 500 1253 500 1105 c 0
EndSplineSet
Substitution2: "'tnum' Tabular Numbers lookup 6 subtable" uniFF18
EndChar

StartChar: nine
Encoding: 57 57 11
Width: 1330
Flags: MW
LayerCount: 2
Fore
SplineSet
504 188 m 0
 504 162 524 134 592 134 c 0
 710 134 826 303 846 636 c 0
 848 671 853 685 846 689 c 0
 837 694 833 678 813 658 c 0
 742 586 628 540 498 540 c 0
 276 540 60 690 60 1000 c 0
 60 1370 350 1520 652 1520 c 0
 974 1520 1250 1330 1250 760 c 0
 1250 280 974 -20 602 -20 c 0
 298 -20 110 114 110 278 c 0
 110 414 189 510 328 510 c 0
 462 510 552 438 552 324 c 0
 552 252 504 214 504 188 c 0
460 1030 m 0
 460 842 544 778 652 778 c 0
 758 778 850 880 850 1040 c 0
 850 1198 780 1290 652 1290 c 0
 534 1290 460 1208 460 1030 c 0
EndSplineSet
Substitution2: "'onum' Oldstyle Figures lookup 5 subtable" nine.oldstyle
Substitution2: "'tnum' Tabular Numbers lookup 6 subtable" uniFF19
EndChar

StartChar: A
Encoding: 65 65 12
Width: 1900
Flags: MW
AnchorPoint: "Anchor-0" 964 1500 basechar 0
AnchorPoint: "Anchor-1" 796 0 basechar 0
AnchorPoint: "Anchor-2" 796 0 basechar 0
AnchorPoint: "Anchor-3" 1486 0 basechar 0
LayerCount: 2
Fore
SplineSet
829 1019 m 2
 712 735 l 2
 699 705 685 670 739 670 c 2
 950 670 l 2
 996 670 988 703 978 731 c 2
 874 1023 l 2
 858 1069 842 1050 829 1019 c 2
0 57 m 2
 0 221 l 2
 0 255 8 270 46 270 c 2
 211 270 l 2
 244 270 242 285 251 307 c 2
 758 1477 l 2
 771 1509 775 1510 821 1510 c 2
 1121 1510 l 2
 1168 1510 1174 1499 1187 1467 c 2
 1648 331 l 2
 1663 293 1658 270 1715 270 c 2
 1847 270 l 2
 1882 270 1900 270 1900 231 c 2
 1900 45 l 2
 1900 5 1894 0 1855 0 c 2
 961 0 l 2
 921 0 920 9 920 49 c 2
 920 227 l 2
 920 265 926 270 963 270 c 2
 1077 270 l 2
 1135 270 1140 280 1126 319 c 2
 1102 387 l 2
 1092 414 1094 420 1055 420 c 2
 633 420 l 2
 594 420 583 424 571 395 c 2
 538 313 l 2
 525 281 527 270 563 270 c 2
 667 270 l 2
 699 270 700 261 700 229 c 2
 700 37 l 2
 700 4 690 0 659 0 c 2
 66 0 l 2
 10 0 0 1 0 57 c 2
EndSplineSet
Substitution2: "'c2sc' Capitals to Small Capitals in Latin lookup 1 subtable" a.sc
EndChar

StartChar: B
Encoding: 66 66 13
Width: 1700
Flags: MW
AnchorPoint: "Anchor-0" 794 1500 basechar 0
AnchorPoint: "Anchor-1" 826 0 basechar 0
AnchorPoint: "Anchor-2" 826 0 basechar 0
LayerCount: 2
Fore
SplineSet
930 270 m 2
 1102 270 1150 352 1150 470 c 0
 1150 588 1062 640 930 640 c 2
 781 640 l 2
 755 640 740 624 740 596 c 2
 740 326 l 2
 740 285 746 270 785 270 c 2
 930 270 l 2
797 910 m 2
 890 910 l 2
 1012 910 1090 962 1090 1080 c 0
 1090 1198 1032 1230 890 1230 c 2
 791 1230 l 2
 760 1230 740 1229 740 1198 c 2
 740 969 l 2
 740 919 748 910 797 910 c 2
970 0 m 2
 97 0 l 2
 51 0 50 19 50 66 c 2
 50 240 l 2
 50 266 61 270 85 270 c 2
 223 270 l 2
 267 270 270 287 270 332 c 2
 270 1178 l 2
 270 1214 264 1230 229 1230 c 2
 93 1230 l 2
 56 1230 50 1236 50 1272 c 2
 50 1448 l 2
 50 1488 59 1500 97 1500 c 2
 910 1500 l 2
 1372 1500 1570 1410 1570 1130 c 0
 1570 965 1474 859 1295 805 c 0
 1257 794 1255 769 1301 760 c 0
 1523 714 1650 603 1650 420 c 0
 1650 100 1452 0 970 0 c 2
EndSplineSet
Substitution2: "'c2sc' Capitals to Small Capitals in Latin lookup 1 subtable" b.sc
EndChar

StartChar: C
Encoding: 67 67 14
Width: 1702
Flags: MW
AnchorPoint: "Anchor-0" 916 1500 basechar 0
AnchorPoint: "Anchor-1" 917 0 basechar 0
AnchorPoint: "Anchor-2" 917 0 basechar 0
LayerCount: 2
Fore
SplineSet
70 750 m 0
 70 1196 424 1540 910 1540 c 0
 1050 1540 1161 1497 1246 1431 c 0
 1287 1400 1295 1401 1329 1444 c 2
 1362 1488 l 2
 1377 1507 1383 1510 1420 1510 c 2
 1560 1510 l 2
 1609 1510 1610 1501 1610 1452 c 2
 1610 974 l 2
 1610 936 1605 930 1565 930 c 2
 1352 930 l 2
 1304 930 1298 941 1289 977 c 0
 1244 1157 1150 1284 940 1284 c 0
 732 1284 590 1094 590 750 c 0
 590 406 732 228 960 228 c 0
 1146 228 1290 338 1330 522 c 0
 1342 577 1349 590 1398 590 c 2
 1594 590 l 2
 1647 590 1651 579 1646 542 c 0
 1604 202 1365 -40 920 -40 c 0
 414 -40 70 264 70 750 c 0
EndSplineSet
Substitution2: "'c2sc' Capitals to Small Capitals in Latin lookup 1 subtable" c.sc
EndChar

StartChar: D
Encoding: 68 68 15
Width: 1840
Flags: MW
AnchorPoint: "Anchor-0" 934 1500 basechar 0
AnchorPoint: "Anchor-1" 933 0 basechar 0
AnchorPoint: "Anchor-2" 933 0 basechar 0
LayerCount: 2
Fore
SplineSet
50 34 m 2
 50 230 l 2
 50 263 58 270 89 270 c 2
 233 270 l 2
 269 270 270 279 270 316 c 2
 270 1179 l 2
 270 1222 264 1230 223 1230 c 2
 99 1230 l 2
 55 1230 50 1236 50 1278 c 2
 50 1447 l 2
 50 1492 60 1500 103 1500 c 2
 910 1500 l 2
 1576 1500 1770 1176 1770 750 c 0
 1770 324 1556 0 910 0 c 2
 98 0 l 2
 65 0 50 1 50 34 c 2
798 270 m 2
 890 270 l 2
 1118 270 1250 426 1250 750 c 0
 1250 1074 1098 1230 890 1230 c 2
 799 1230 l 2
 752 1230 740 1222 740 1174 c 2
 740 316 l 2
 740 272 753 270 798 270 c 2
EndSplineSet
Substitution2: "'c2sc' Capitals to Small Capitals in Latin lookup 1 subtable" d.sc
EndChar

StartChar: E
Encoding: 69 69 16
Width: 1679
Flags: MW
AnchorPoint: "Anchor-0" 844 1500 basechar 0
AnchorPoint: "Anchor-1" 816 0 basechar 0
AnchorPoint: "Anchor-2" 816 0 basechar 0
AnchorPoint: "Anchor-3" 1426 50 basechar 0
LayerCount: 2
Fore
SplineSet
226 1230 m 2
 96 1230 l 2
 54 1230 50 1238 50 1278 c 2
 50 1454 l 2
 50 1499 64 1500 106 1500 c 2
 1538 1500 l 2
 1577 1500 1580 1489 1580 1452 c 2
 1580 948 l 2
 1580 910 1580 910 1542 910 c 2
 1352 910 l 2
 1322 910 1320 924 1319 950 c 0
 1313 1154 1260 1230 1040 1230 c 2
 798 1230 l 2
 759 1230 740 1226 740 1183 c 2
 740 918 l 2
 740 870 746 860 778 860 c 2
 783 860 l 2
 886 860 950 945 966 1038 c 0
 971 1069 973 1086 1001 1086 c 2
 1112 1086 l 2
 1155 1086 1160 1080 1160 1038 c 2
 1160 458 l 2
 1160 423 1155 416 1118 416 c 2
 1010 416 l 2
 969 416 971 435 965 468 c 0
 949 559 869 650 792 650 c 2
 786 650 l 2
 759 650 740 633 740 592 c 2
 740 310 l 2
 740 263 749 270 794 270 c 2
 1020 270 l 2
 1274 270 1332 361 1339 592 c 0
 1341 643 1335 650 1390 650 c 2
 1560 650 l 2
 1605 650 1600 644 1600 600 c 2
 1600 40 l 2
 1600 -2 1598 0 1556 0 c 2
 100 0 l 2
 60 0 50 -7 50 36 c 2
 50 238 l 2
 50 272 53 270 86 270 c 2
 226 270 l 2
 269 270 270 269 270 312 c 2
 270 1192 l 2
 270 1227 262 1230 226 1230 c 2
EndSplineSet
Substitution2: "'c2sc' Capitals to Small Capitals in Latin lookup 1 subtable" e.sc
EndChar

StartChar: F
Encoding: 70 70 17
Width: 1625
Flags: MW
AnchorPoint: "Anchor-0" 824 1500 basechar 0
AnchorPoint: "Anchor-1" 516 0 basechar 0
AnchorPoint: "Anchor-2" 516 0 basechar 0
LayerCount: 2
Fore
SplineSet
234 1230 m 2
 75 1230 l 2
 52 1230 50 1238 50 1262 c 2
 50 1474 l 2
 50 1499 59 1500 84 1500 c 2
 1524 1500 l 2
 1556 1500 1560 1493 1560 1460 c 2
 1560 921 l 2
 1560 893 1553 890 1524 890 c 2
 1346 890 l 2
 1310 890 1301 890 1300 925 c 0
 1295 1135 1242 1230 1020 1230 c 2
 782 1230 l 2
 750 1230 740 1229 740 1197 c 2
 740 851 l 2
 740 841 743 837 749 837 c 2
 751 837 l 2
 854 837 941 929 949 1049 c 0
 950 1064 948 1066 964 1066 c 2
 1117 1066 l 2
 1138 1066 1140 1058 1140 1036 c 2
 1140 406 l 2
 1140 382 1134 376 1108 376 c 2
 988 376 l 2
 959 376 952 377 949 403 c 0
 937 521 846 615 754 615 c 2
 753 615 l 2
 741 615 740 607 740 603 c 2
 740 317 l 2
 740 277 745 270 787 270 c 2
 963 270 l 2
 1000 270 1000 270 1000 233 c 2
 1000 47 l 2
 1000 5 994 0 953 0 c 2
 91 0 l 2
 58 0 50 3 50 35 c 2
 50 241 l 2
 50 269 59 270 88 270 c 2
 227 270 l 2
 267 270 270 277 270 318 c 2
 270 1195 l 2
 270 1225 262 1230 234 1230 c 2
EndSplineSet
Substitution2: "'c2sc' Capitals to Small Capitals in Latin lookup 1 subtable" f.sc
EndChar

StartChar: G
Encoding: 71 71 18
Width: 1890
Flags: MW
AnchorPoint: "Anchor-0" 916 1500 basechar 0
AnchorPoint: "Anchor-1" 887 0 basechar 0
AnchorPoint: "Anchor-2" 887 0 basechar 0
LayerCount: 2
Fore
SplineSet
967 860 m 2
 1819 860 l 2
 1864 860 1870 855 1870 808 c 2
 1870 626 l 2
 1870 592 1862 590 1827 590 c 2
 1707 590 l 2
 1676 590 1670 586 1670 556 c 2
 1670 334 l 2
 1670 288 1664 283 1641 261 c 0
 1516 142 1257 -40 920 -40 c 0
 424 -40 70 264 70 750 c 0
 70 1196 404 1540 890 1540 c 0
 1056 1540 1183 1494 1277 1425 c 0
 1308 1403 1318 1402 1343 1434 c 2
 1386 1492 l 2
 1396 1505 1408 1510 1433 1510 c 2
 1583 1510 l 2
 1617 1510 1630 1507 1630 1474 c 2
 1630 1029 l 2
 1630 985 1629 970 1585 970 c 2
 1389 970 l 2
 1332 970 1336 983 1319 1020 c 0
 1240 1192 1130 1284 940 1284 c 0
 732 1284 590 1094 590 750 c 0
 590 406 712 210 910 210 c 0
 1088 210 1144 295 1182 384 c 0
 1194 412 1200 431 1200 474 c 2
 1200 544 l 2
 1200 583 1197 590 1159 590 c 2
 955 590 l 2
 909 590 910 610 910 652 c 2
 910 810 l 2
 910 858 922 860 967 860 c 2
EndSplineSet
Substitution2: "'c2sc' Capitals to Small Capitals in Latin lookup 1 subtable" g.sc
EndChar

StartChar: H
Encoding: 72 72 19
Width: 2020
Flags: MW
AnchorPoint: "Anchor-0" 1011 1500 basechar 0
AnchorPoint: "Anchor-1" 1006 0 basechar 0
AnchorPoint: "Anchor-2" 1006 0 basechar 0
LayerCount: 2
Fore
SplineSet
740 1188 m 2
 740 950 l 2
 740 901 752 900 802 900 c 2
 1227 900 l 2
 1277 900 1280 911 1280 962 c 2
 1280 1196 l 2
 1280 1228 1268 1230 1235 1230 c 2
 1137 1230 l 2
 1087 1230 1080 1233 1080 1282 c 2
 1080 1439 l 2
 1080 1493 1088 1500 1140 1500 c 2
 1910 1500 l 2
 1948 1500 1970 1493 1970 1451 c 2
 1970 1278 l 2
 1970 1239 1962 1230 1920 1230 c 2
 1791 1230 l 2
 1753 1230 1750 1218 1750 1179 c 2
 1750 320 l 2
 1750 282 1751 270 1789 270 c 2
 1919 270 l 2
 1964 270 1970 260 1970 213 c 2
 1970 81 l 2
 1970 8 1961 0 1890 0 c 2
 1160 0 l 2
 1101 0 1080 7 1080 70 c 2
 1080 225 l 2
 1080 263 1093 270 1129 270 c 2
 1218 270 l 2
 1265 270 1280 271 1280 318 c 2
 1280 599 l 2
 1280 642 1271 650 1231 650 c 2
 787 650 l 2
 746 650 740 640 740 597 c 2
 740 329 l 2
 740 285 741 270 785 270 c 2
 887 270 l 2
 927 270 940 267 940 228 c 2
 940 65 l 2
 940 6 914 0 860 0 c 2
 120 0 l 2
 62 0 50 6 50 67 c 2
 50 206 l 2
 50 251 52 270 97 270 c 2
 205 270 l 2
 254 270 270 271 270 320 c 2
 270 1184 l 2
 270 1225 259 1230 216 1230 c 2
 115 1230 l 2
 63 1230 50 1235 50 1290 c 2
 50 1444 l 2
 50 1493 75 1500 120 1500 c 2
 860 1500 l 2
 917 1500 940 1494 940 1432 c 2
 940 1278 l 2
 940 1235 934 1230 893 1230 c 2
 783 1230 l 2
 747 1230 740 1225 740 1188 c 2
EndSplineSet
Substitution2: "'c2sc' Capitals to Small Capitals in Latin lookup 1 subtable" h.sc
EndChar

StartChar: I
Encoding: 73 73 20
Width: 1120
Flags: MW
AnchorPoint: "Anchor-0" 547 1500 basechar 0
AnchorPoint: "Anchor-1" 543 0 basechar 0
AnchorPoint: "Anchor-2" 543 0 basechar 0
AnchorPoint: "Anchor-3" 543 0 basechar 0
LayerCount: 2
Fore
SplineSet
785 1178 m 2
 785 314 l 2
 785 271 795 270 839 270 c 2
 997 270 l 2
 1030 270 1045 269 1045 236 c 2
 1045 50 l 2
 1045 5 1039 0 995 0 c 2
 125 0 l 2
 79 0 75 9 75 56 c 2
 75 221 l 2
 75 266 88 270 130 270 c 2
 268 270 l 2
 306 270 315 276 315 317 c 2
 315 1176 l 2
 315 1219 313 1230 270 1230 c 2
 128 1230 l 2
 87 1230 75 1234 75 1278 c 2
 75 1443 l 2
 75 1491 77 1500 125 1500 c 2
 991 1500 l 2
 1039 1500 1045 1489 1045 1444 c 2
 1045 1284 l 2
 1045 1236 1038 1230 992 1230 c 2
 835 1230 l 2
 791 1230 785 1220 785 1178 c 2
EndSplineSet
Substitution2: "'c2sc' Capitals to Small Capitals in Latin lookup 1 subtable" i.sc
EndChar

StartChar: J
Encoding: 74 74 21
Width: 1432
Flags: MW
AnchorPoint: "Anchor-0" 836 1500 basechar 0
AnchorPoint: "Anchor-1" 548 0 basechar 0
AnchorPoint: "Anchor-2" 548 0 basechar 0
LayerCount: 2
Fore
SplineSet
0 390 m 0
 0 594 118 740 298 740 c 0
 452 740 546 648 546 522 c 0
 546 342 400 344 400 288 c 0
 400 254 428 190 532 190 c 0
 634 190 722 260 722 480 c 2
 722 1172 l 2
 722 1228 709 1230 653 1230 c 2
 460 1230 l 2
 416 1230 402 1231 402 1278 c 2
 402 1442 l 2
 402 1491 403 1500 452 1500 c 2
 1362 1500 l 2
 1404 1500 1412 1493 1412 1449 c 2
 1412 1272 l 2
 1412 1231 1400 1230 1359 1230 c 2
 1210 1230 l 2
 1175 1230 1172 1217 1172 1181 c 2
 1172 540 l 2
 1172 160 894 -40 532 -40 c 0
 218 -40 0 170 0 390 c 0
EndSplineSet
Substitution2: "'c2sc' Capitals to Small Capitals in Latin lookup 1 subtable" j.sc
EndChar

StartChar: K
Encoding: 75 75 22
Width: 1940
Flags: MW
AnchorPoint: "Anchor-0" 996 1500 basechar 0
AnchorPoint: "Anchor-1" 1000 0 basechar 0
AnchorPoint: "Anchor-2" 1000 0 basechar 0
LayerCount: 2
Fore
SplineSet
50 54 m 2
 50 224 l 2
 50 262 55 270 92 270 c 2
 218 270 l 2
 266 270 270 278 270 324 c 2
 270 1194 l 2
 270 1229 258 1230 223 1230 c 2
 90 1230 l 2
 51 1230 50 1242 50 1281 c 2
 50 1454 l 2
 50 1495 64 1500 102 1500 c 2
 930 1500 l 2
 966 1500 980 1495 980 1456 c 2
 980 1290 l 2
 980 1241 976 1230 928 1230 c 2
 788 1230 l 2
 748 1230 740 1222 740 1180 c 2
 740 892 l 2
 740 820 762 822 792 846 c 2
 1226 1198 l 2
 1253 1220 1262 1230 1210 1230 c 2
 1133 1230 l 2
 1081 1230 1070 1232 1070 1284 c 2
 1070 1458 l 2
 1070 1490 1075 1500 1106 1500 c 2
 1838 1500 l 2
 1869 1500 1870 1481 1870 1450 c 2
 1870 1287 l 2
 1870 1242 1869 1230 1824 1230 c 2
 1684 1230 l 2
 1627 1230 1618 1214 1588 1190 c 2
 1332 979 l 2
 1292 946 1275 945 1307 900 c 2
 1726 314 l 2
 1753 276 1759 270 1826 270 c 2
 1940 270 l 2
 1970 270 1980 263 1980 231 c 2
 1980 40 l 2
 1980 5 1964 0 1928 0 c 2
 1082 0 l 2
 1045 0 1040 8 1040 46 c 2
 1040 223 l 2
 1040 266 1059 270 1098 270 c 2
 1192 270 l 2
 1246 270 1228 294 1210 321 c 2
 994 650 l 2
 969 688 967 679 934 652 c 2
 776 522 l 2
 750 500 740 497 740 446 c 2
 740 310 l 2
 740 273 748 270 786 270 c 2
 920 270 l 2
 955 270 960 262 960 226 c 2
 960 56 l 2
 960 5 948 0 900 0 c 2
 96 0 l 2
 52 0 50 10 50 54 c 2
EndSplineSet
Substitution2: "'c2sc' Capitals to Small Capitals in Latin lookup 1 subtable" k.sc
EndChar

StartChar: L
Encoding: 76 76 23
Width: 1560
Flags: MW
AnchorPoint: "Anchor-0" 444 1500 basechar 0
AnchorPoint: "Anchor-1" 1019 943 basechar 0
AnchorPoint: "Anchor-2" 786 0 basechar 0
AnchorPoint: "Anchor-3" 1019 943 basechar 0
LayerCount: 2
Fore
SplineSet
227 1230 m 2
 85 1230 l 2
 55 1230 50 1236 50 1268 c 2
 50 1446 l 2
 50 1491 52 1500 97 1500 c 2
 951 1500 l 2
 991 1500 1000 1495 1000 1452 c 2
 1000 1278 l 2
 1000 1234 988 1230 947 1230 c 2
 789 1230 l 2
 750 1230 740 1229 740 1190 c 2
 740 326 l 2
 740 279 742 270 789 270 c 2
 910 270 l 2
 1133 270 1258 348 1269 646 c 0
 1271 687 1268 690 1311 690 c 2
 1469 690 l 2
 1502 690 1510 686 1510 654 c 2
 1510 52 l 2
 1510 9 1507 0 1465 0 c 2
 95 0 l 2
 55 0 50 6 50 48 c 2
 50 234 l 2
 50 261 53 270 79 270 c 2
 217 270 l 2
 261 270 270 277 270 323 c 2
 270 1180 l 2
 270 1221 267 1230 227 1230 c 2
EndSplineSet
Substitution2: "'c2sc' Capitals to Small Capitals in Latin lookup 1 subtable" l.sc
EndChar

StartChar: M
Encoding: 77 77 24
Width: 2410
Flags: MW
AnchorPoint: "Anchor-0" 1236 1500 basechar 0
AnchorPoint: "Anchor-1" 1135 0 basechar 0
AnchorPoint: "Anchor-2" 1135 0 basechar 0
LayerCount: 2
Fore
SplineSet
282 1230 m 2
 168 1230 l 2
 121 1230 120 1229 120 1277 c 2
 120 1469 l 2
 120 1510 138 1500 176 1500 c 2
 906 1500 l 2
 985 1500 976 1473 995 1417 c 2
 1186 819 l 2
 1207 755 1218 683 1238 683 c 0
 1260 683 1270 719 1296 787 c 2
 1547 1459 l 2
 1561 1496 1562 1500 1614 1500 c 2
 2240 1500 l 2
 2291 1500 2310 1512 2310 1457 c 2
 2310 1281 l 2
 2310 1232 2312 1230 2262 1230 c 2
 2140 1230 l 2
 2097 1230 2099 1228 2100 1187 c 2
 2130 311 l 2
 2131 276 2126 270 2164 270 c 2
 2324 270 l 2
 2357 270 2360 263 2360 229 c 2
 2360 55 l 2
 2360 12 2358 0 2312 0 c 2
 1536 0 l 2
 1492 0 1490 8 1490 53 c 2
 1490 223 l 2
 1490 268 1502 270 1544 270 c 2
 1650 270 l 2
 1692 270 1703 280 1702 322 c 2
 1690 773 l 2
 1686 912 1717 1047 1680 1047 c 0
 1655 1047 1655 1013 1624 923 c 2
 1317 21 l 2
 1302 -22 1295 -30 1236 -30 c 2
 1056 -30 l 2
 997 -30 989 -22 974 21 c 2
 677 887 l 2
 651 962 632 1097 606 1097 c 0
 589 1097 590 1063 586 973 c 2
 556 341 l 2
 554 293 549 270 604 270 c 2
 736 270 l 2
 773 270 780 263 780 225 c 2
 780 51 l 2
 780 2 768 0 722 0 c 2
 102 0 l 2
 55 0 50 6 50 55 c 2
 50 235 l 2
 50 263 53 270 80 270 c 2
 238 270 l 2
 298 270 285 294 288 347 c 2
 334 1195 l 2
 336 1238 324 1230 282 1230 c 2
EndSplineSet
Substitution2: "'c2sc' Capitals to Small Capitals in Latin lookup 1 subtable" m.sc
EndChar

StartChar: N
Encoding: 78 78 25
Width: 1910
Flags: MW
AnchorPoint: "Anchor-0" 946 1500 basechar 0
AnchorPoint: "Anchor-1" 906 0 basechar 0
AnchorPoint: "Anchor-2" 906 0 basechar 0
LayerCount: 2
Fore
SplineSet
209 1230 m 2
 95 1230 l 2
 60 1230 50 1233 50 1267 c 2
 50 1436 l 2
 50 1494 59 1500 115 1500 c 2
 587 1500 l 2
 660 1500 685 1495 718 1459 c 2
 1350 779 l 2
 1382 745 1400 738 1400 827 c 2
 1400 1191 l 2
 1400 1220 1397 1230 1369 1230 c 2
 1225 1230 l 2
 1181 1230 1180 1241 1180 1285 c 2
 1180 1449 l 2
 1180 1497 1194 1500 1239 1500 c 2
 1843 1500 l 2
 1870 1500 1880 1494 1880 1465 c 2
 1880 1293 l 2
 1880 1234 1871 1230 1811 1230 c 2
 1715 1230 l 2
 1678 1230 1670 1217 1670 1181 c 2
 1670 10 l 2
 1670 -27 1661 -30 1623 -30 c 2
 1480 -30 l 2
 1420 -30 1406 -13 1379 17 c 2
 579 923 l 2
 545 962 530 954 530 861 c 2
 530 325 l 2
 530 278 535 270 581 270 c 2
 725 270 l 2
 753 270 760 262 760 232 c 2
 760 50 l 2
 760 1 733 0 689 0 c 2
 117 0 l 2
 59 0 50 5 50 65 c 2
 50 219 l 2
 50 269 61 270 111 270 c 2
 209 270 l 2
 255 270 260 279 260 326 c 2
 260 1179 l 2
 260 1230 260 1230 209 1230 c 2
EndSplineSet
Substitution2: "'c2sc' Capitals to Small Capitals in Latin lookup 1 subtable" n.sc
EndChar

StartChar: O
Encoding: 79 79 26
Width: 1820
Flags: MW
AnchorPoint: "Anchor-0" 906 1500 basechar 0
AnchorPoint: "Anchor-1" 906 0 basechar 0
AnchorPoint: "Anchor-2" 906 0 basechar 0
LayerCount: 2
Fore
SplineSet
70 750 m 0
 70 1216 384 1540 910 1540 c 0
 1436 1540 1750 1216 1750 750 c 0
 1750 284 1416 -40 910 -40 c 0
 384 -40 70 284 70 750 c 0
590 750 m 0
 590 426 682 220 910 220 c 0
 1158 220 1230 426 1230 750 c 0
 1230 1074 1138 1280 910 1280 c 0
 682 1280 590 1074 590 750 c 0
EndSplineSet
Substitution2: "'c2sc' Capitals to Small Capitals in Latin lookup 1 subtable" o.sc
EndChar

StartChar: P
Encoding: 80 80 27
Width: 1600
Flags: MW
AnchorPoint: "Anchor-0" 746 1500 basechar 0
AnchorPoint: "Anchor-1" 462 0 basechar 0
AnchorPoint: "Anchor-2" 462 0 basechar 0
LayerCount: 2
Fore
SplineSet
214 1230 m 2
 104 1230 l 2
 58 1230 50 1232 50 1278 c 2
 50 1448 l 2
 50 1496 61 1500 106 1500 c 2
 880 1500 l 2
 1242 1500 1560 1380 1560 1040 c 0
 1560 700 1242 560 880 560 c 2
 784 560 l 2
 741 560 740 551 740 508 c 2
 740 318 l 2
 740 274 747 270 792 270 c 2
 956 270 l 2
 998 270 1000 262 1000 220 c 2
 1000 56 l 2
 1000 10 1000 0 954 0 c 2
 98 0 l 2
 58 0 50 4 50 46 c 2
 50 220 l 2
 50 263 54 270 96 270 c 2
 212 270 l 2
 268 270 270 280 270 334 c 2
 270 1182 l 2
 270 1229 261 1230 214 1230 c 2
782 830 m 2
 840 830 l 2
 972 830 1060 902 1060 1040 c 0
 1060 1178 972 1230 840 1230 c 2
 776 1230 l 2
 741 1230 740 1221 740 1186 c 2
 740 874 l 2
 740 836 745 830 782 830 c 2
EndSplineSet
Substitution2: "'c2sc' Capitals to Small Capitals in Latin lookup 1 subtable" p.sc
EndChar

StartChar: Q
Encoding: 81 81 28
Width: 1820
Flags: MW
AnchorPoint: "Anchor-0" 906 1500 basechar 0
LayerCount: 2
Fore
SplineSet
70 750 m 0
 70 1216 384 1540 910 1540 c 0
 1436 1540 1750 1216 1750 750 c 0
 1750 465 1625 233 1413 96 c 0
 1367 66 1362 57 1412 25 c 0
 1431 13 1453 6 1476 6 c 0
 1550 6 1598 42 1622 128 c 0
 1628 151 1622 164 1654 164 c 2
 1784 164 l 2
 1837 164 1850 156 1844 110 c 0
 1817 -107 1704 -350 1480 -350 c 0
 1278 -350 1203 -209 1138 -60 c 0
 1125 -30 1114 -21 1078 -27 c 0
 1025 -36 968 -40 910 -40 c 0
 384 -40 70 284 70 750 c 0
726 285 m 0
 775 244 834 220 910 220 c 0
 934 220 957 221 978 226 c 0
 1016 236 1021 250 998 278 c 0
 958 328 905 360 828 360 c 0
 795 360 765 357 740 345 c 0
 705 329 696 311 726 285 c 0
1206 484 m 0
 1221 560 1230 649 1230 750 c 0
 1230 1074 1138 1280 910 1280 c 0
 682 1280 590 1074 590 750 c 0
 590 692 591 638 599 588 c 0
 606 547 612 540 644 582 c 0
 698 654 777 706 884 706 c 0
 1006 706 1087 620 1150 509 c 0
 1176 464 1196 437 1206 484 c 0
EndSplineSet
Substitution2: "'c2sc' Capitals to Small Capitals in Latin lookup 1 subtable" q.sc
EndChar

StartChar: R
Encoding: 82 82 29
Width: 1901
Flags: MW
AnchorPoint: "Anchor-0" 826 1500 basechar 0
AnchorPoint: "Anchor-1" 916 0 basechar 0
AnchorPoint: "Anchor-2" 916 0 basechar 0
LayerCount: 2
Fore
SplineSet
1886 213 m 0
 1787 65 1660 -40 1450 -40 c 0
 924 -40 1213 620 860 620 c 2
 778 620 l 2
 740 620 740 610 740 572 c 2
 740 310 l 2
 740 279 741 270 772 270 c 2
 914 270 l 2
 950 270 960 263 960 224 c 2
 960 72 l 2
 960 13 959 0 900 0 c 2
 93 0 l 2
 59 0 50 5 50 38 c 2
 50 226 l 2
 50 263 56 270 92 270 c 2
 213 270 l 2
 260 270 270 276 270 322 c 2
 270 1179 l 2
 270 1225 259 1230 216 1230 c 2
 96 1230 l 2
 54 1230 50 1242 50 1282 c 2
 50 1462 l 2
 50 1496 60 1500 95 1500 c 2
 960 1500 l 2
 1422 1500 1620 1350 1620 1110 c 0
 1620 949 1558 845 1393 782 c 0
 1343 763 1324 747 1376 718 c 0
 1618 585 1503 308 1618 308 c 0
 1649 308 1682 334 1706 368 c 0
 1729 401 1737 401 1771 374 c 2
 1874 294 l 2
 1910 266 1910 249 1886 213 c 0
792 880 m 2
 960 880 l 2
 1072 880 1140 952 1140 1050 c 0
 1140 1148 1072 1230 960 1230 c 2
 782 1230 l 2
 744 1230 740 1221 740 1182 c 2
 740 926 l 2
 740 877 744 880 792 880 c 2
EndSplineSet
Substitution2: "'c2sc' Capitals to Small Capitals in Latin lookup 1 subtable" r.sc
Substitution2: "'ss01' Style Set 1 lookup 2 subtable" R.alt
EndChar

StartChar: S
Encoding: 83 83 30
Width: 1480
Flags: MW
AnchorPoint: "Anchor-0" 796 1500 basechar 0
AnchorPoint: "Anchor-1" 785 0 basechar 0
AnchorPoint: "Anchor-2" 785 0 basechar 0
LayerCount: 2
Fore
SplineSet
1144 1017 m 0
 1106 1203 911 1268 760 1268 c 0
 628 1268 552 1224 552 1156 c 0
 552 916 1430 1040 1430 460 c 0
 1430 80 1162 -40 800 -40 c 0
 620 -40 500 14 422 87 c 0
 379 127 374 103 344 51 c 2
 326 17 l 2
 313 -6 296 -10 259 -10 c 2
 134 -10 l 2
 95 -10 80 -3 80 35 c 2
 80 537 l 2
 80 579 83 590 124 590 c 2
 270 590 l 2
 317 590 307 582 313 541 c 0
 337 365 493 222 720 222 c 0
 892 222 980 272 980 370 c 0
 980 650 110 478 110 1058 c 0
 110 1398 398 1530 660 1530 c 0
 812 1530 936 1483 1026 1415 c 0
 1065 1386 1079 1383 1108 1430 c 2
 1133 1473 l 2
 1145 1492 1145 1500 1178 1500 c 2
 1332 1500 l 2
 1367 1500 1380 1491 1380 1454 c 2
 1380 1005 l 2
 1380 957 1373 950 1323 950 c 2
 1214 950 l 2
 1148 950 1155 965 1144 1017 c 0
EndSplineSet
Substitution2: "'c2sc' Capitals to Small Capitals in Latin lookup 1 subtable" s.sc
EndChar

StartChar: T
Encoding: 84 84 31
Width: 1620
Flags: MW
AnchorPoint: "Anchor-0" 805 1500 basechar 0
AnchorPoint: "Anchor-1" 806 0 basechar 0
AnchorPoint: "Anchor-2" 806 0 basechar 0
LayerCount: 2
Fore
SplineSet
355 51 m 2
 355 220 l 2
 355 260 362 270 401 270 c 2
 533 270 l 2
 586 270 595 282 595 335 c 2
 595 1202 l 2
 595 1226 586 1240 561 1240 c 2
 545 1240 l 2
 346 1240 292 1174 286 927 c 0
 285 879 271 870 219 870 c 2
 98 870 l 2
 59 870 45 872 45 911 c 2
 45 1442 l 2
 45 1485 46 1500 89 1500 c 2
 1535 1500 l 2
 1567 1500 1575 1487 1575 1452 c 2
 1575 927 l 2
 1575 876 1566 870 1513 870 c 2
 1395 870 l 2
 1343 870 1335 876 1334 925 c 0
 1328 1174 1275 1240 1075 1240 c 2
 1063 1240 l 2
 1033 1240 1025 1226 1025 1197 c 2
 1025 350 l 2
 1025 287 1028 270 1091 270 c 2
 1208 270 l 2
 1254 270 1265 258 1265 215 c 2
 1265 55 l 2
 1265 7 1255 0 1209 0 c 2
 409 0 l 2
 367 0 355 6 355 51 c 2
EndSplineSet
Substitution2: "'c2sc' Capitals to Small Capitals in Latin lookup 1 subtable" t.sc
EndChar

StartChar: U
Encoding: 85 85 32
Width: 1870
Flags: MW
AnchorPoint: "Anchor-0" 996 1500 basechar 0
AnchorPoint: "Anchor-1" 1006 0 basechar 0
AnchorPoint: "Anchor-2" 1006 0 basechar 0
AnchorPoint: "Anchor-3" 1371 190 basechar 0
LayerCount: 2
Fore
SplineSet
1291 1230 m 2
 1155 1230 l 2
 1107 1230 1095 1242 1095 1287 c 2
 1095 1427 l 2
 1095 1481 1097 1500 1151 1500 c 2
 1797 1500 l 2
 1840 1500 1845 1491 1845 1446 c 2
 1845 1285 l 2
 1845 1237 1838 1230 1788 1230 c 2
 1687 1230 l 2
 1635 1230 1625 1223 1625 1169 c 2
 1625 600 l 2
 1625 170 1361 -40 925 -40 c 0
 339 -40 245 254 245 620 c 2
 245 1179 l 2
 245 1225 235 1230 191 1230 c 2
 85 1230 l 2
 36 1230 25 1232 25 1281 c 2
 25 1437 l 2
 25 1486 32 1500 79 1500 c 2
 913 1500 l 2
 950 1500 955 1491 955 1452 c 2
 955 1279 l 2
 955 1239 949 1230 906 1230 c 2
 771 1230 l 2
 717 1230 715 1219 715 1164 c 2
 715 660 l 2
 715 376 787 254 1015 254 c 0
 1183 254 1345 336 1345 600 c 2
 1345 1179 l 2
 1345 1224 1333 1230 1291 1230 c 2
EndSplineSet
Substitution2: "'c2sc' Capitals to Small Capitals in Latin lookup 1 subtable" u.sc
EndChar

StartChar: V
Encoding: 86 86 33
Width: 1900
Flags: MW
AnchorPoint: "Anchor-0" 1096 1500 basechar 0
AnchorPoint: "Anchor-1" 972 0 basechar 0
AnchorPoint: "Anchor-2" 972 0 basechar 0
LayerCount: 2
Fore
SplineSet
1093 489 m 2
 1373 1181 l 2
 1389 1222 1391 1230 1336 1230 c 2
 1260 1230 l 2
 1216 1230 1210 1235 1210 1277 c 2
 1210 1437 l 2
 1210 1488 1211 1500 1262 1500 c 2
 1844 1500 l 2
 1890 1500 1910 1495 1910 1444 c 2
 1910 1271 l 2
 1910 1239 1896 1230 1862 1230 c 2
 1772 1230 l 2
 1717 1230 1710 1215 1694 1179 c 2
 1189 39 l 2
 1166 -13 1169 -30 1090 -30 c 2
 838 -30 l 2
 767 -30 757 -23 737 25 c 2
 241 1187 l 2
 224 1227 221 1230 162 1230 c 2
 41 1230 l 2
 -6 1230 -10 1245 -10 1289 c 2
 -10 1451 l 2
 -10 1499 -1 1500 48 1500 c 2
 926 1500 l 2
 961 1500 970 1487 970 1450 c 2
 970 1277 l 2
 970 1236 963 1230 920 1230 c 2
 788 1230 l 2
 745 1230 738 1218 750 1186 c 2
 978 601 l 2
 1017 500 1033 341 1093 489 c 2
EndSplineSet
Substitution2: "'c2sc' Capitals to Small Capitals in Latin lookup 1 subtable" v.sc
EndChar

StartChar: W
Encoding: 87 87 34
Width: 2580
Flags: MW
AnchorPoint: "Anchor-0" 1396 1500 basechar 0
AnchorPoint: "Anchor-1" 1306 0 basechar 0
AnchorPoint: "Anchor-2" 1306 0 basechar 0
LayerCount: 2
Fore
SplineSet
994 676 m 2
 1193 1092 l 2
 1211 1129 1223 1145 1208 1186 c 2
 1199 1210 l 2
 1193 1227 1188 1230 1165 1230 c 2
 1049 1230 l 2
 1011 1230 1010 1239 1010 1278 c 2
 1010 1435 l 2
 1010 1489 1011 1500 1065 1500 c 2
 1733 1500 l 2
 1767 1500 1810 1498 1810 1460 c 2
 1810 1294 l 2
 1810 1251 1809 1230 1762 1230 c 2
 1710 1230 l 2
 1663 1230 1663 1220 1674 1188 c 2
 1809 780 l 2
 1830 717 1843 613 1869 613 c 0
 1878 613 1888 631 1900 666 c 2
 2073 1164 l 2
 2090 1213 2103 1230 2029 1230 c 2
 1967 1230 l 2
 1922 1230 1910 1236 1910 1284 c 2
 1910 1442 l 2
 1910 1494 1917 1500 1967 1500 c 2
 2529 1500 l 2
 2570 1500 2590 1498 2590 1453 c 2
 2590 1272 l 2
 2590 1233 2581 1230 2541 1230 c 2
 2423 1230 l 2
 2363 1230 2358 1215 2343 1172 c 2
 1944 18 l 2
 1931 -19 1920 -20 1871 -20 c 2
 1709 -20 l 2
 1653 -20 1657 -7 1642 32 c 2
 1418 628 l 2
 1396 688 1375 813 1343 813 c 0
 1333 813 1322 804 1310 778 c 2
 953 28 l 2
 935 -9 937 -20 879 -20 c 2
 727 -20 l 2
 664 -20 659 -19 643 26 c 2
 228 1176 l 2
 211 1224 211 1230 143 1230 c 2
 37 1230 l 2
 -3 1230 -10 1235 -10 1276 c 2
 -10 1448 l 2
 -10 1498 6 1500 53 1500 c 2
 821 1500 l 2
 874 1500 890 1499 890 1442 c 2
 890 1290 l 2
 890 1239 888 1230 837 1230 c 2
 793 1230 l 2
 755 1230 734 1230 745 1196 c 2
 891 764 l 2
 910 705 922 622 946 622 c 0
 967 622 978 643 994 676 c 2
EndSplineSet
Substitution2: "'c2sc' Capitals to Small Capitals in Latin lookup 1 subtable" w.sc
EndChar

StartChar: X
Encoding: 88 88 35
Width: 1840
Flags: MW
AnchorPoint: "Anchor-0" 996 1500 basechar 0
AnchorPoint: "Anchor-1" 846 0 basechar 0
AnchorPoint: "Anchor-2" 846 0 basechar 0
LayerCount: 2
Fore
SplineSet
0 59 m 2
 0 211 l 2
 0 258 1 270 48 270 c 2
 160 270 l 2
 215 270 222 279 248 305 c 2
 606 658 l 2
 672 723 663 724 602 791 c 2
 243 1181 l 2
 214 1212 210 1230 146 1230 c 2
 66 1230 l 2
 16 1230 10 1236 10 1288 c 2
 10 1431 l 2
 10 1489 12 1500 70 1500 c 2
 892 1500 l 2
 937 1500 950 1496 950 1448 c 2
 950 1280 l 2
 950 1240 948 1230 908 1230 c 2
 806 1230 l 2
 743 1230 778 1208 803 1181 c 2
 955 1019 l 2
 996 975 1006 995 1046 1037 c 2
 1190 1187 l 2
 1228 1227 1221 1230 1138 1230 c 2
 1100 1230 l 2
 1057 1230 1050 1233 1050 1275 c 2
 1050 1446 l 2
 1050 1492 1053 1500 1098 1500 c 2
 1766 1500 l 2
 1795 1500 1800 1492 1800 1461 c 2
 1800 1275 l 2
 1800 1232 1792 1230 1748 1230 c 2
 1640 1230 l 2
 1592 1230 1581 1226 1558 1204 c 2
 1194 846 l 2
 1140 793 1175 782 1222 731 c 2
 1615 307 l 2
 1639 281 1643 270 1696 270 c 2
 1786 270 l 2
 1825 270 1840 263 1840 225 c 2
 1840 43 l 2
 1840 2 1832 0 1790 0 c 2
 956 0 l 2
 912 0 900 1 900 45 c 2
 900 222 l 2
 900 260 902 270 940 270 c 2
 994 270 l 2
 1080 270 1056 296 1026 329 c 2
 869 504 l 2
 839 536 829 543 799 511 c 2
 615 317 l 2
 587 287 568 270 644 270 c 2
 702 270 l 2
 744 270 760 260 760 215 c 2
 760 79 l 2
 760 18 743 0 686 0 c 2
 48 0 l 2
 1 0 0 11 0 59 c 2
EndSplineSet
Substitution2: "'c2sc' Capitals to Small Capitals in Latin lookup 1 subtable" x.sc
EndChar

StartChar: Y
Encoding: 89 89 36
Width: 1770
Flags: MW
AnchorPoint: "Anchor-0" 986 1500 basechar 0
AnchorPoint: "Anchor-1" 901 0 basechar 0
AnchorPoint: "Anchor-2" 901 0 basechar 0
LayerCount: 2
Fore
SplineSet
450 36 m 2
 450 224 l 2
 450 262 453 270 490 270 c 2
 626 270 l 2
 666 270 670 278 670 319 c 2
 670 463 l 2
 670 517 661 531 641 561 c 2
 214 1184 l 2
 191 1218 189 1230 129 1230 c 2
 23 1230 l 2
 -19 1230 -20 1239 -20 1281 c 2
 -20 1430 l 2
 -20 1492 -1 1500 57 1500 c 2
 851 1500 l 2
 902 1500 920 1497 920 1442 c 2
 920 1277 l 2
 920 1237 913 1230 874 1230 c 2
 789 1230 l 2
 739 1230 731 1219 760 1176 c 2
 932 926 l 2
 987 847 986 857 1043 930 c 2
 1236 1180 l 2
 1269 1222 1249 1230 1207 1230 c 2
 1130 1230 l 2
 1079 1230 1070 1232 1070 1283 c 2
 1070 1450 l 2
 1070 1495 1076 1500 1120 1500 c 2
 1741 1500 l 2
 1775 1500 1790 1499 1790 1461 c 2
 1790 1257 l 2
 1790 1232 1779 1230 1753 1230 c 2
 1687 1230 l 2
 1628 1230 1624 1219 1599 1188 c 2
 1180 669 l 2
 1154 636 1140 626 1140 563 c 2
 1140 317 l 2
 1140 279 1143 270 1180 270 c 2
 1339 270 l 2
 1378 270 1380 261 1380 221 c 2
 1380 39 l 2
 1380 8 1376 0 1346 0 c 2
 482 0 l 2
 455 0 450 7 450 36 c 2
EndSplineSet
Substitution2: "'c2sc' Capitals to Small Capitals in Latin lookup 1 subtable" y.sc
EndChar

StartChar: Z
Encoding: 90 90 37
Width: 1615
Flags: MW
AnchorPoint: "Anchor-0" 796 1500 basechar 0
AnchorPoint: "Anchor-1" 826 0 basechar 0
AnchorPoint: "Anchor-2" 826 0 basechar 0
LayerCount: 2
Fore
SplineSet
160 1500 m 2
 1426 1500 l 2
 1475 1500 1490 1490 1490 1438 c 2
 1490 1242 l 2
 1490 1172 1475 1156 1442 1124 c 2
 652 367 l 2
 624 340 567 308 567 288 c 0
 567 277 582 270 630 270 c 2
 1010 270 l 2
 1210 270 1298 386 1309 626 c 0
 1311 681 1314 690 1370 690 c 2
 1498 690 l 2
 1545 690 1550 656 1550 614 c 2
 1550 62 l 2
 1550 4 1540 0 1484 0 c 2
 118 0 l 2
 60 0 50 2 50 60 c 2
 50 270 l 2
 50 337 64 343 96 374 c 2
 922 1166 l 2
 941 1185 952 1198 952 1208 c 0
 952 1224 925 1230 870 1230 c 2
 630 1230 l 2
 430 1230 360 1103 351 896 c 0
 349 850 350 850 302 850 c 2
 146 850 l 2
 110 850 110 850 110 886 c 2
 110 1456 l 2
 110 1498 118 1500 160 1500 c 2
EndSplineSet
Substitution2: "'c2sc' Capitals to Small Capitals in Latin lookup 1 subtable" z.sc
EndChar

StartChar: a
Encoding: 97 97 38
Width: 1314
Flags: HMW
AnchorPoint: "Anchor-0" 642 1040 basechar 0
AnchorPoint: "Anchor-1" 655 0 basechar 0
AnchorPoint: "Anchor-2" 655 0 basechar 0
AnchorPoint: "Anchor-3" 1175 90 basechar 0
LayerCount: 2
Fore
SplineSet
15 246 m 4
 15 474 259 588 603 588 c 6
 671 588 l 6
 694 588 697 590 697 614 c 6
 697 734 l 6
 697 838 631 888 541 888 c 4
 511 888 489 880 489 868 c 4
 489 845 523 844 523 756 c 4
 523 658 421 600 313 600 c 4
 191 600 95 658 95 766 c 4
 95 920 279 1060 671 1060 c 4
 951 1060 1117 946 1117 694 c 6
 1117 272 l 6
 1117 232 1141 214 1169 214 c 0
 1197 214 1224 224 1247 267 c 4
 1254 279 1260 282 1270 274 c 5
 1384 204 l 6
 1395 197 1396 193 1390 180 c 4
 1343 91 1242 -20 1061 -20 c 4
 1060 -20 l 4
 919 -20 839 10 779 77 c 0
 746 113 734 113 712 91 c 0
 646 26 536 -20 365 -20 c 4
 137 -20 15 68 15 246 c 4
489 286 m 0
 489 232 515 199 575 199 c 0
 661 199 697 250 697 382 c 2
 697 417 l 2
 697 434 694 437 677 437 c 2
 669 437 l 2
 577 437 489 360 489 286 c 0
EndSplineSet
Substitution2: "'smcp' Lowercase to Small Capitals in Latin lookup 0 subtable" a.sc
EndChar

StartChar: b
Encoding: 98 98 39
Width: 1471
Flags: MW
AnchorPoint: "Anchor-0" 972 1040 basechar 0
AnchorPoint: "Anchor-1" 685 0 basechar 0
AnchorPoint: "Anchor-2" 685 0 basechar 0
LayerCount: 2
Fore
SplineSet
645 520 m 0
 645 332 719 204 821 204 c 0
 909 204 981 332 981 520 c 0
 981 708 909 836 821 836 c 0
 719 836 645 708 645 520 c 0
81 1350 m 2
 50 1350 45 1354 45 1384 c 2
 45 1529 l 2
 45 1556 56 1560 81 1560 c 2
 597 1560 l 2
 629 1560 645 1559 645 1524 c 2
 645 943 l 2
 645 902 649 901 661 916 c 0
 737 1010 813 1078 977 1078 c 0
 1235 1078 1421 880 1421 520 c 0
 1421 160 1215 -40 957 -40 c 0
 803 -40 731 8 668 103 c 0
 653 126 645 123 645 84 c 2
 645 36 l 2
 645 2 632 0 601 0 c 2
 79 0 l 2
 52 0 45 5 45 34 c 2
 45 178 l 2
 45 207 58 210 85 210 c 2
 187 210 l 2
 221 210 225 217 225 252 c 2
 225 1323 l 2
 225 1343 222 1350 203 1350 c 2
 81 1350 l 2
EndSplineSet
Substitution2: "'smcp' Lowercase to Small Capitals in Latin lookup 0 subtable" b.sc
EndChar

StartChar: c
Encoding: 99 99 40
Width: 1268
Flags: MW
AnchorPoint: "Anchor-0" 686 1040 basechar 0
AnchorPoint: "Anchor-1" 684 0 basechar 0
AnchorPoint: "Anchor-2" 684 0 basechar 0
LayerCount: 2
Fore
SplineSet
50 500 m 4
 50 800 266 1080 688 1080 c 4
 1012 1080 1178 918 1178 744 c 4
 1178 588 1070 500 932 500 c 4
 778 500 698 582 698 696 c 4
 698 798 780 818 780 852 c 4
 780 878 754 898 698 898 c 4
 568 898 520 768 520 540 c 4
 520 352 552 166 690 166 c 0
 788 166 845 218 893 321 c 0
 902 341 911 346 942 346 c 2
 1138 346 l 2
 1172 346 1176 342 1169 315 c 0
 1107 64 898 -40 646 -40 c 0
 244 -40 50 220 50 500 c 4
EndSplineSet
Substitution2: "'smcp' Lowercase to Small Capitals in Latin lookup 0 subtable" c.sc
EndChar

StartChar: d
Encoding: 100 100 41
Width: 1471
Flags: MW
AnchorPoint: "Anchor-0" 521 1040 basechar 0
AnchorPoint: "Anchor-1" 1509 1040 basechar 0
AnchorPoint: "Anchor-2" 742 0 basechar 0
AnchorPoint: "Anchor-3" 1509 1040 basechar 0
LayerCount: 2
Fore
SplineSet
490 518 m 0
 490 330 562 202 650 202 c 0
 752 202 826 330 826 518 c 0
 826 706 752 834 650 834 c 0
 562 834 490 706 490 518 c 0
50 518 m 0
 50 878 256 1078 514 1078 c 0
 663 1078 753 1023 807 935 c 0
 825 906 826 918 826 973 c 2
 826 1324 l 2
 826 1345 818 1350 799 1350 c 2
 681 1350 l 2
 650 1350 646 1351 646 1382 c 2
 646 1522 l 2
 646 1557 654 1560 690 1560 c 2
 1211 1560 l 2
 1236 1560 1246 1556 1246 1529 c 2
 1246 255 l 2
 1246 216 1250 210 1288 210 c 2
 1403 210 l 2
 1425 210 1426 201 1426 178 c 2
 1426 35 l 2
 1426 4 1420 0 1388 0 c 2
 857 0 l 2
 829 0 826 7 826 36 c 2
 826 87 l 2
 826 111 820 126 801 98 c 0
 744 12 650 -40 494 -40 c 0
 236 -40 50 158 50 518 c 0
EndSplineSet
Substitution2: "'smcp' Lowercase to Small Capitals in Latin lookup 0 subtable" d.sc
EndChar

StartChar: e
Encoding: 101 101 42
Width: 1253
Flags: MW
AnchorPoint: "Anchor-0" 655 1040 basechar 0
AnchorPoint: "Anchor-1" 687 0 basechar 0
AnchorPoint: "Anchor-2" 687 0 basechar 0
AnchorPoint: "Anchor-3" 918 102 basechar 0
LayerCount: 2
Fore
SplineSet
50 500 m 0
 50 820 248 1080 650 1080 c 0
 1130 1080 1198 706 1198 490 c 0
 1198 459 1194 452 1164 452 c 2
 518 452 l 2
 490 452 493 447 495 422 c 0
 506 280 547 166 690 166 c 0
 789 166 846 218 894 322 c 0
 901 337 906 346 930 346 c 2
 1142 346 l 2
 1170 346 1175 342 1170 320 c 0
 1110 65 900 -40 646 -40 c 0
 244 -40 50 220 50 500 c 0
526 658 m 2
 752 658 l 2
 780 658 780 658 778 685 c 0
 772 795 736 882 648 882 c 0
 552 882 514 806 500 695 c 0
 496 666 491 658 526 658 c 2
EndSplineSet
Substitution2: "'smcp' Lowercase to Small Capitals in Latin lookup 0 subtable" e.sc
EndChar

StartChar: f
Encoding: 102 102 43
Width: 920
Flags: MW
AnchorPoint: "Anchor-0" 819 1692 basechar 0
AnchorPoint: "Anchor-1" 441 0 basechar 0
AnchorPoint: "Anchor-2" 441 0 basechar 0
LayerCount: 2
Fore
SplineSet
630 787 m 2
 630 248 l 2
 630 215 636 210 671 210 c 2
 813 210 l 2
 852 210 870 206 870 163 c 2
 870 46 l 2
 870 3 863 0 819 0 c 2
 87 0 l 2
 45 0 30 6 30 51 c 2
 30 155 l 2
 30 196 32 210 73 210 c 2
 161 210 l 2
 201 210 210 212 210 252 c 2
 210 796 l 2
 210 822 208 830 183 830 c 2
 71 830 l 2
 40 830 30 831 30 862 c 2
 30 1000 l 2
 30 1031 34 1040 67 1040 c 2
 171 1040 l 2
 204 1040 210 1046 210 1078 c 2
 210 1144 l 2
 210 1366 404 1600 804 1600 c 0
 1126 1600 1270 1462 1270 1308 c 0
 1270 1148 1160 1086 1036 1086 c 0
 892 1086 796 1162 796 1272 c 0
 796 1366 868 1388 868 1410 c 0
 868 1424 840 1426 820 1426 c 0
 740 1426 630 1354 630 1100 c 2
 630 1063 l 2
 630 1042 635 1040 655 1040 c 2
 836 1040 l 2
 869 1040 870 1036 870 1004 c 2
 870 867 l 2
 870 834 868 830 835 830 c 2
 677 830 l 2
 640 830 630 824 630 787 c 2
EndSplineSet
Substitution2: "'smcp' Lowercase to Small Capitals in Latin lookup 0 subtable" f.sc
EndChar

StartChar: g
Encoding: 103 103 44
Width: 1379
Flags: MW
AnchorPoint: "Anchor-0" 702 1040 basechar 0
AnchorPoint: "Anchor-1" 526 -565 basechar 0
AnchorPoint: "Anchor-2" 526 -565 basechar 0
LayerCount: 2
Fore
SplineSet
455 710 m 0
 455 602 475 520 543 520 c 0
 611 520 631 602 631 710 c 0
 631 818 611 900 543 900 c 0
 475 900 455 818 455 710 c 0
45 710 m 0
 45 950 281 1080 543 1080 c 0
 671 1080 789 1048 875 988 c 0
 902 970 901 966 925 988 c 0
 995 1052 1085 1080 1171 1080 c 0
 1293 1080 1399 992 1399 868 c 0
 1399 750 1313 688 1213 688 c 0
 1107 688 1067 766 1067 826 c 0
 1067 894 1113 901 1113 921 c 0
 1113 929 1108 930 1099 930 c 0
 1068 930 1028 902 1011 880 c 0
 995 860 993 849 1002 824 c 0
 1014 789 1021 751 1021 710 c 0
 1021 470 805 340 543 340 c 0
 500 340 461 345 421 352 c 0
 402 355 394 350 383 340 c 0
 370 327 365 312 365 294 c 0
 365 266 379 238 449 238 c 0
 499 238 755 240 871 240 c 0
 1121 240 1275 118 1275 -114 c 0
 1275 -396 915 -530 555 -530 c 0
 189 -530 -65 -440 -65 -270 c 0
 -65 -169 28 -100 149 -55 c 0
 178 -44 176 -37 153 -21 c 0
 85 26 39 87 39 168 c 0
 39 275 103 343 206 391 c 0
 233 404 232 413 211 426 c 0
 111 489 45 584 45 710 c 0
927 -202 m 0
 927 -134 885 -118 755 -118 c 0
 713 -118 501 -118 457 -118 c 0
 435 -118 413 -117 391 -114 c 0
 370 -111 354 -107 341 -120 c 0
 316 -145 305 -174 305 -204 c 0
 305 -300 435 -326 587 -326 c 0
 755 -326 927 -286 927 -202 c 0
EndSplineSet
Substitution2: "'smcp' Lowercase to Small Capitals in Latin lookup 0 subtable" g.sc
EndChar

StartChar: h
Encoding: 104 104 45
Width: 1505
Flags: MW
AnchorPoint: "Anchor-0" 1068 1039 basechar 0
AnchorPoint: "Anchor-1" 739 0 basechar 0
AnchorPoint: "Anchor-2" 739 0 basechar 0
LayerCount: 2
Fore
SplineSet
197 1350 m 2
 79 1350 l 2
 50 1350 45 1358 45 1385 c 2
 45 1523 l 2
 45 1550 46 1560 73 1560 c 2
 585 1560 l 2
 600 1560 605 1553 605 1537 c 2
 605 958 l 2
 605 909 610 932 627 953 c 0
 687 1028 782 1080 931 1080 c 0
 1165 1080 1295 952 1295 738 c 2
 1295 236 l 2
 1295 210 1295 210 1321 210 c 2
 1447 210 l 2
 1465 210 1475 205 1475 186 c 2
 1475 30 l 2
 1475 5 1468 0 1445 0 c 2
 803 0 l 2
 776 0 775 9 775 36 c 2
 775 181 l 2
 775 202 777 210 797 210 c 2
 845 210 l 2
 868 210 875 213 875 235 c 2
 875 706 l 2
 875 814 847 846 785 846 c 0
 709 846 605 772 605 566 c 2
 605 240 l 2
 605 213 613 210 641 210 c 2
 676 210 l 2
 696 210 705 205 705 183 c 2
 705 34 l 2
 705 4 696 0 668 0 c 2
 65 0 l 2
 48 0 45 8 45 26 c 2
 45 176 l 2
 45 202 48 210 73 210 c 2
 196 210 l 2
 222 210 225 218 225 245 c 2
 225 1316 l 2
 225 1342 222 1350 197 1350 c 2
EndSplineSet
Substitution2: "'smcp' Lowercase to Small Capitals in Latin lookup 0 subtable" h.sc
EndChar

StartChar: i
Encoding: 105 105 46
Width: 865
Flags: MW
AnchorPoint: "Anchor-1" 437 0 basechar 0
AnchorPoint: "Anchor-2" 437 0 basechar 0
LayerCount: 2
Fore
SplineSet
195 1380 m 0
 195 1516 303 1590 435 1590 c 0
 567 1590 675 1516 675 1380 c 0
 675 1244 567 1170 435 1170 c 0
 303 1170 195 1244 195 1380 c 0
216 830 m 6
 81 830 l 6
 63 830 55 833 55 850 c 6
 55 1012 l 6
 55 1035 63 1040 85 1040 c 6
 630 1040 l 6
 649 1040 655 1039 655 1020 c 6
 655 235 l 6
 655 215 656 210 676 210 c 6
 807 210 l 6
 830 210 835 209 835 186 c 6
 835 31 l 6
 835 2 827 0 797 0 c 6
 79 0 l 6
 59 0 55 4 55 25 c 6
 55 181 l 6
 55 206 58 210 82 210 c 6
 209 210 l 6
 230 210 235 211 235 232 c 6
 235 804 l 6
 235 821 232 830 216 830 c 6
EndSplineSet
Substitution2: "'smcp' Lowercase to Small Capitals in Latin lookup 0 subtable" i.sc
EndChar

StartChar: j
Encoding: 106 106 47
Width: 800
Flags: MW
AnchorPoint: "Anchor-1" 142 -565 basechar 0
AnchorPoint: "Anchor-2" 142 -565 basechar 0
LayerCount: 2
Fore
SplineSet
180 1380 m 0
 180 1516 288 1590 420 1590 c 0
 552 1590 660 1516 660 1380 c 0
 660 1244 552 1170 420 1170 c 0
 288 1170 180 1244 180 1380 c 0
196 830 m 2
 82 830 l 2
 45 830 40 836 40 875 c 2
 40 989 l 2
 40 1035 46 1040 90 1040 c 2
 604 1040 l 2
 637 1040 640 1033 640 999 c 2
 640 -64 l 2
 640 -386 406 -520 106 -520 c 0
 -136 -520 -330 -422 -330 -228 c 0
 -330 -108 -230 -16 -106 -16 c 0
 38 -16 134 -102 134 -192 c 0
 134 -306 54 -302 54 -324 c 0
 54 -340 66 -350 102 -350 c 0
 302 -350 220 -134 220 140 c 2
 220 797 l 2
 220 820 219 830 196 830 c 2
EndSplineSet
Substitution2: "'smcp' Lowercase to Small Capitals in Latin lookup 0 subtable" j.sc
EndChar

StartChar: k
Encoding: 107 107 48
Width: 1567
Flags: MW
AnchorPoint: "Anchor-0" 1150 1040 basechar 0
AnchorPoint: "Anchor-1" 776 0 basechar 0
AnchorPoint: "Anchor-2" 776 0 basechar 0
LayerCount: 2
Fore
SplineSet
178 1350 m 2
 86 1350 l 2
 49 1350 45 1358 45 1392 c 2
 45 1516 l 2
 45 1553 58 1560 94 1560 c 2
 590 1560 l 2
 635 1560 645 1559 645 1514 c 2
 645 671 l 2
 645 612 677 633 706 651 c 2
 926 785 l 2
 965 809 974 810 908 810 c 2
 849 810 l 2
 811 810 803 813 803 850 c 2
 803 1000 l 2
 803 1038 815 1040 850 1040 c 2
 1472 1040 l 2
 1506 1040 1509 1033 1509 998 c 2
 1509 853 l 2
 1509 823 1507 810 1478 810 c 2
 1380 810 l 2
 1334 810 1319 804 1294 787 c 2
 1072 639 l 2
 1028 610 1039 600 1073 560 c 2
 1351 234 l 2
 1366 217 1378 210 1412 210 c 2
 1536 210 l 2
 1568 210 1577 208 1577 176 c 2
 1577 36 l 2
 1577 3 1570 0 1536 0 c 2
 850 0 l 2
 821 0 813 2 813 30 c 2
 813 172 l 2
 813 205 819 210 854 210 c 2
 872 210 l 2
 916 210 903 215 885 236 c 2
 684 472 l 2
 660 500 645 527 645 468 c 2
 645 252 l 2
 645 218 649 210 686 210 c 2
 712 210 l 2
 739 210 745 204 745 178 c 2
 745 36 l 2
 745 2 737 0 702 0 c 2
 98 0 l 2
 61 0 45 4 45 40 c 2
 45 168 l 2
 45 201 49 210 84 210 c 2
 176 210 l 2
 224 210 225 219 225 268 c 2
 225 1302 l 2
 225 1339 216 1350 178 1350 c 2
EndSplineSet
Substitution2: "'smcp' Lowercase to Small Capitals in Latin lookup 0 subtable" k.sc
EndChar

StartChar: l
Encoding: 108 108 49
Width: 870
Flags: MW
AnchorPoint: "Anchor-0" 433 1696 basechar 0
AnchorPoint: "Anchor-1" 896 1040 basechar 0
AnchorPoint: "Anchor-2" 440 0 basechar 0
AnchorPoint: "Anchor-3" 896 1040 basechar 0
LayerCount: 2
Fore
SplineSet
166 1350 m 6
 102 1350 l 6
 46 1350 45 1363 45 1416 c 6
 45 1496 l 6
 45 1558 53 1560 116 1560 c 6
 582 1560 l 6
 638 1560 645 1556 645 1498 c 6
 645 262 l 6
 645 215 651 210 696 210 c 6
 792 210 l 6
 819 210 825 205 825 176 c 6
 825 54 l 6
 825 3 818 0 766 0 c 6
 86 0 l 6
 54 0 45 2 45 34 c 6
 45 166 l 6
 45 201 57 210 92 210 c 6
 164 210 l 6
 218 210 225 214 225 270 c 6
 225 1298 l 6
 225 1348 213 1350 166 1350 c 6
EndSplineSet
Substitution2: "'smcp' Lowercase to Small Capitals in Latin lookup 0 subtable" l.sc
EndChar

StartChar: m
Encoding: 109 109 50
Width: 2185
Flags: MW
AnchorPoint: "Anchor-0" 1149 1040 basechar 0
AnchorPoint: "Anchor-1" 1090 0 basechar 0
AnchorPoint: "Anchor-2" 1090 0 basechar 0
LayerCount: 2
Fore
SplineSet
55 38 m 2
 55 166 l 2
 55 194 57 210 88 210 c 2
 204 210 l 2
 234 210 235 219 235 250 c 2
 235 784 l 2
 235 827 228 830 184 830 c 2
 109 830 l 2
 70 830 55 831 55 870 c 2
 55 991 l 2
 55 1032 65 1040 104 1040 c 2
 567 1040 l 2
 601 1040 615 1038 615 1004 c 2
 615 968 l 2
 615 907 624 899 657 943 c 0
 713 1019 808 1080 951 1080 c 0
 1094 1080 1186 1033 1237 957 c 0
 1270 908 1285 923 1320 962 c 0
 1383 1032 1475 1080 1611 1080 c 0
 1845 1080 1975 952 1975 738 c 2
 1975 248 l 2
 1975 212 1983 210 2020 210 c 2
 2110 210 l 2
 2145 210 2155 205 2155 168 c 2
 2155 56 l 2
 2155 12 2154 0 2110 0 c 2
 1516 0 l 2
 1475 0 1465 5 1465 44 c 2
 1465 162 l 2
 1465 192 1467 210 1496 210 c 2
 1524 210 l 2
 1553 210 1555 218 1555 248 c 2
 1555 706 l 2
 1555 814 1527 846 1465 846 c 0
 1409 846 1315 772 1315 566 c 2
 1315 252 l 2
 1315 230 1317 210 1342 210 c 2
 1372 210 l 2
 1397 210 1405 208 1405 184 c 2
 1405 46 l 2
 1405 5 1396 0 1353 0 c 2
 844 0 l 2
 808 0 805 7 805 44 c 2
 805 176 l 2
 805 204 810 210 840 210 c 2
 868 210 l 2
 897 210 895 222 895 250 c 2
 895 706 l 2
 895 814 867 846 805 846 c 0
 749 846 655 772 655 566 c 2
 655 254 l 2
 655 220 656 210 690 210 c 2
 715 210 l 2
 743 210 745 202 745 176 c 2
 745 40 l 2
 745 9 741 0 708 0 c 2
 104 0 l 2
 70 0 55 1 55 38 c 2
EndSplineSet
Substitution2: "'smcp' Lowercase to Small Capitals in Latin lookup 0 subtable" m.sc
EndChar

StartChar: n
Encoding: 110 110 51
Width: 1555
Flags: MW
AnchorPoint: "Anchor-0" 801 1040 basechar 0
AnchorPoint: "Anchor-1" 790 0 basechar 0
AnchorPoint: "Anchor-2" 790 0 basechar 0
LayerCount: 2
Fore
SplineSet
189 830 m 6
 105 830 l 6
 60 830 55 837 55 881 c 6
 55 987 l 6
 55 1033 80 1040 121 1040 c 6
 559 1040 l 6
 590 1040 615 1032 615 990 c 6
 615 954 l 6
 615 905 628 890 656 922 c 4
 728 1004 812 1080 981 1080 c 4
 1215 1080 1345 952 1345 738 c 6
 1345 253 l 6
 1345 213 1352 210 1393 210 c 6
 1489 210 l 6
 1515 210 1525 201 1525 173 c 6
 1525 52 l 6
 1525 2 1514 0 1467 0 c 6
 865 0 l 6
 828 0 825 8 825 46 c 6
 825 164 l 6
 825 192 826 210 857 210 c 6
 883 210 l 6
 919 210 925 214 925 249 c 6
 925 706 l 6
 925 814 897 846 835 846 c 4
 759 846 655 772 655 566 c 6
 655 249 l 6
 655 219 659 210 691 210 c 6
 715 210 l 6
 746 210 755 206 755 173 c 6
 755 37 l 6
 755 2 737 0 705 0 c 6
 87 0 l 6
 56 0 55 9 55 41 c 6
 55 168 l 6
 55 204 60 210 95 210 c 6
 185 210 l 6
 226 210 235 211 235 252 c 6
 235 784 l 6
 235 825 229 830 189 830 c 6
EndSplineSet
Substitution2: "'smcp' Lowercase to Small Capitals in Latin lookup 0 subtable" n.sc
EndChar

StartChar: o
Encoding: 111 111 52
Width: 1296
Flags: MW
AnchorPoint: "Anchor-0" 648 1040 basechar 0
AnchorPoint: "Anchor-1" 645 0 basechar 0
AnchorPoint: "Anchor-2" 645 0 basechar 0
LayerCount: 2
Fore
SplineSet
500 540 m 4
 500 332 530 160 648 160 c 4
 766 160 796 332 796 500 c 4
 796 708 766 880 648 880 c 4
 530 880 500 708 500 540 c 4
50 490 m 4
 50 810 266 1080 648 1080 c 4
 1030 1080 1246 820 1246 540 c 4
 1246 220 1030 -40 648 -40 c 4
 266 -40 50 210 50 490 c 4
EndSplineSet
Substitution2: "'smcp' Lowercase to Small Capitals in Latin lookup 0 subtable" o.sc
EndChar

StartChar: p
Encoding: 112 112 53
Width: 1471
Flags: MW
AnchorPoint: "Anchor-0" 888 1040 basechar 0
AnchorPoint: "Anchor-1" 927 0 basechar 0
AnchorPoint: "Anchor-2" 927 0 basechar 0
LayerCount: 2
Fore
SplineSet
645 522 m 0
 645 334 719 206 821 206 c 0
 909 206 981 334 981 522 c 0
 981 710 909 838 821 838 c 0
 719 838 645 710 645 522 c 0
45 882 m 6
 45 995 l 6
 45 1036 55 1040 94 1040 c 6
 600 1040 l 6
 628 1040 645 1035 645 1004 c 6
 645 950 l 6
 645 920 656 923 678 954 c 4
 736 1033 829 1080 977 1080 c 4
 1235 1080 1421 882 1421 522 c 4
 1421 162 1215 -38 957 -38 c 4
 827 -38 742 4 686 74 c 4
 657 110 645 124 645 26 c 6
 645 -258 l 6
 645 -301 649 -310 694 -310 c 6
 790 -310 l 6
 816 -310 825 -314 825 -342 c 6
 825 -478 l 6
 825 -518 817 -520 776 -520 c 6
 90 -520 l 6
 50 -520 45 -514 45 -476 c 6
 45 -348 l 6
 45 -318 50 -310 82 -310 c 6
 176 -310 l 6
 220 -310 225 -303 225 -257 c 6
 225 778 l 6
 225 825 215 830 170 830 c 6
 100 830 l 6
 51 830 45 835 45 882 c 6
EndSplineSet
Substitution2: "'smcp' Lowercase to Small Capitals in Latin lookup 0 subtable" p.sc
EndChar

StartChar: q
Encoding: 113 113 54
Width: 1446
Flags: MW
AnchorPoint: "Anchor-0" 606 1040 basechar 0
AnchorPoint: "Anchor-1" 515 0 basechar 0
AnchorPoint: "Anchor-2" 515 0 basechar 0
LayerCount: 2
Fore
SplineSet
826 520 m 0
 826 708 752 836 650 836 c 0
 562 836 490 708 490 520 c 0
 490 332 562 204 650 204 c 0
 752 204 826 332 826 520 c 0
1281 -310 m 2
 1367 -310 l 2
 1408 -310 1426 -317 1426 -362 c 2
 1426 -480 l 2
 1426 -511 1417 -520 1384 -520 c 2
 689 -520 l 2
 651 -520 646 -514 646 -474 c 2
 646 -356 l 2
 646 -320 647 -310 683 -310 c 2
 791 -310 l 2
 825 -310 826 -296 826 -261 c 2
 826 42 l 2
 826 134 815 117 787 81 c 0
 729 7 637 -38 494 -38 c 0
 236 -38 50 160 50 520 c 0
 50 880 256 1080 514 1080 c 0
 657 1080 746 1029 801 946 c 0
 818 920 826 910 826 974 c 2
 826 1012 l 2
 826 1038 834 1040 861 1040 c 2
 1391 1040 l 2
 1420 1040 1426 1034 1426 1004 c 2
 1426 889 l 2
 1426 844 1424 830 1379 830 c 2
 1291 830 l 2
 1249 830 1246 818 1246 775 c 2
 1246 -274 l 2
 1246 -300 1255 -310 1281 -310 c 2
EndSplineSet
Substitution2: "'smcp' Lowercase to Small Capitals in Latin lookup 0 subtable" q.sc
EndChar

StartChar: r
Encoding: 114 114 55
Width: 1316
Flags: MW
AnchorPoint: "Anchor-0" 645 1040 basechar 0
AnchorPoint: "Anchor-1" 427 0 basechar 0
AnchorPoint: "Anchor-2" 427 0 basechar 0
LayerCount: 2
Fore
SplineSet
235 787 m 2
 235 820 234 830 201 830 c 2
 91 830 l 2
 62 830 55 833 55 861 c 2
 55 1000 l 2
 55 1032 63 1040 93 1040 c 2
 583 1040 l 2
 609 1040 615 1035 615 1007 c 2
 615 926 l 2
 615 882 620 869 635 894 c 0
 699 999 806 1080 985 1080 c 0
 1173 1080 1311 988 1311 812 c 0
 1311 708 1237 560 1067 560 c 0
 939 560 845 630 845 732 c 0
 845 826 905 848 905 872 c 0
 905 882 897 892 875 892 c 0
 779 892 655 732 655 526 c 2
 655 245 l 2
 655 213 662 210 695 210 c 2
 807 210 l 2
 832 210 835 203 835 177 c 2
 835 40 l 2
 835 9 834 0 803 0 c 2
 99 0 l 2
 66 0 55 9 55 43 c 2
 55 180 l 2
 55 209 64 210 93 210 c 2
 188 210 l 2
 222 210 235 213 235 246 c 2
 235 787 l 2
EndSplineSet
Substitution2: "'smcp' Lowercase to Small Capitals in Latin lookup 0 subtable" r.sc
EndChar

StartChar: s
Encoding: 115 115 56
Width: 1160
Flags: MW
AnchorPoint: "Anchor-0" 600 1040 basechar 0
AnchorPoint: "Anchor-1" 570 0 basechar 0
AnchorPoint: "Anchor-2" 570 0 basechar 0
LayerCount: 2
Fore
SplineSet
851 692 m 0
 787 834 673 892 576 892 c 0
 510 892 480 858 480 822 c 0
 480 642 1110 710 1110 314 c 0
 1110 46 910 -44 636 -44 c 0
 500 -44 399 -2 330 49 c 0
 315 60 308 58 296 42 c 2
 266 3 l 2
 254 -14 253 -20 222 -20 c 2
 76 -20 l 2
 53 -20 50 -12 50 12 c 2
 50 373 l 2
 50 396 51 406 74 406 c 2
 225 406 l 2
 260 406 259 404 268 378 c 0
 317 230 460 150 586 150 c 0
 666 150 704 184 704 236 c 0
 704 430 84 358 84 750 c 0
 84 958 244 1084 484 1084 c 0
 625 1084 733 1035 796 990 c 0
 815 976 824 976 837 998 c 2
 861 1037 l 2
 872 1055 877 1060 907 1060 c 2
 1049 1060 l 2
 1068 1060 1074 1054 1074 1033 c 2
 1074 691 l 2
 1074 669 1073 660 1051 660 c 2
 894 660 l 2
 862 660 860 671 851 692 c 0
EndSplineSet
Substitution2: "'smcp' Lowercase to Small Capitals in Latin lookup 0 subtable" s.sc
EndChar

StartChar: t
Encoding: 116 116 57
Width: 968
Flags: MW
AnchorPoint: "Anchor-0" 522 1277 basechar 0
AnchorPoint: "Anchor-1" 712 1153 basechar 0
AnchorPoint: "Anchor-2" 535 0 basechar 0
AnchorPoint: "Anchor-3" 712 1153 basechar 0
LayerCount: 2
Fore
SplineSet
936 185 m 0
 862 70 737 -34 531 -34 c 0
 297 -34 191 54 191 272 c 2
 191 791 l 2
 191 820 191 830 162 830 c 2
 34 830 l 2
 10 830 5 837 5 862 c 2
 5 1002 l 2
 5 1034 10 1040 41 1040 c 0
 198 1041 381 1068 444 1363 c 0
 450 1393 446 1400 484 1400 c 2
 597 1400 l 2
 622 1400 631 1393 631 1367 c 2
 631 1080 l 2
 631 1049 632 1040 663 1040 c 2
 840 1040 l 2
 860 1040 865 1034 865 1012 c 2
 865 854 l 2
 865 836 856 830 837 830 c 2
 663 830 l 2
 643 830 631 818 631 797 c 2
 631 308 l 2
 631 238 635 204 683 204 c 0
 717 204 750 222 787 274 c 0
 802 295 808 303 833 288 c 2
 914 235 l 2
 942 218 951 208 936 185 c 0
EndSplineSet
Substitution2: "'smcp' Lowercase to Small Capitals in Latin lookup 0 subtable" t.sc
EndChar

StartChar: u
Encoding: 117 117 58
Width: 1545
Flags: MW
AnchorPoint: "Anchor-0" 740 1040 basechar 0
AnchorPoint: "Anchor-1" 722 0 basechar 0
AnchorPoint: "Anchor-2" 722 0 basechar 0
AnchorPoint: "Anchor-3" 1222 0 basechar 0
LayerCount: 2
Fore
SplineSet
210 302 m 6
 210 789 l 6
 210 821 200 830 170 830 c 6
 72 830 l 6
 40 830 30 836 30 868 c 6
 30 997 l 6
 30 1031 33 1040 66 1040 c 6
 590 1040 l 6
 622 1040 630 1036 630 1001 c 6
 630 334 l 6
 630 226 658 194 720 194 c 4
 796 194 900 268 900 474 c 6
 900 788 l 6
 900 818 897 830 868 830 c 6
 798 830 l 6
 768 830 760 833 760 862 c 6
 760 1000 l 6
 760 1032 763 1040 794 1040 c 6
 1286 1040 l 6
 1316 1040 1320 1033 1320 1002 c 6
 1320 250 l 6
 1320 211 1329 210 1368 210 c 6
 1473 210 l 6
 1495 210 1500 203 1500 180 c 6
 1500 37 l 6
 1500 8 1497 0 1469 0 c 6
 981 0 l 6
 944 0 940 7 940 45 c 6
 940 108 l 6
 940 138 922 143 902 113 c 4
 840 19 746 -40 574 -40 c 4
 340 -40 210 88 210 302 c 6
EndSplineSet
Substitution2: "'smcp' Lowercase to Small Capitals in Latin lookup 0 subtable" u.sc
EndChar

StartChar: v
Encoding: 118 118 59
Width: 1358
Flags: MW
AnchorPoint: "Anchor-0" 784 1040 basechar 0
AnchorPoint: "Anchor-1" 707 0 basechar 0
AnchorPoint: "Anchor-2" 707 0 basechar 0
LayerCount: 2
Fore
SplineSet
859 547 m 6
 973 799 l 6
 983 821 978 830 946 830 c 6
 886 830 l 6
 865 830 860 840 860 859 c 6
 860 1010 l 6
 860 1034 865 1040 888 1040 c 6
 1342 1040 l 6
 1360 1040 1368 1032 1368 1015 c 6
 1368 857 l 6
 1368 839 1361 830 1342 830 c 6
 1262 830 l 6
 1234 830 1227 817 1218 799 c 6
 826 2 l 6
 813 -24 804 -30 764 -30 c 6
 632 -30 l 6
 602 -30 593 -24 583 -5 c 6
 149 812 l 6
 140 828 129 830 104 830 c 6
 22 830 l 6
 -2 830 -10 833 -10 856 c 6
 -10 1012 l 6
 -10 1035 -3 1040 18 1040 c 6
 752 1040 l 6
 771 1040 772 1031 772 1011 c 6
 772 855 l 6
 772 832 764 830 740 830 c 6
 653 830 l 6
 620 830 618 818 629 797 c 6
 753 549 l 6
 769 517 776 451 803 451 c 4
 830 451 845 516 859 547 c 6
EndSplineSet
Substitution2: "'smcp' Lowercase to Small Capitals in Latin lookup 0 subtable" v.sc
EndChar

StartChar: w
Encoding: 119 119 60
Width: 1890
Flags: MW
AnchorPoint: "Anchor-0" 1017 1040 basechar 0
AnchorPoint: "Anchor-1" 957 0 basechar 0
AnchorPoint: "Anchor-2" 957 0 basechar 0
LayerCount: 2
Fore
SplineSet
720 567 m 2
 895 1013 l 2
 903 1034 912 1040 942 1040 c 2
 1096 1040 l 2
 1139 1040 1151 1038 1164 1009 c 2
 1349 603 l 2
 1370 557 1367 532 1383 532 c 0
 1401 532 1404 555 1419 603 c 2
 1478 795 l 2
 1488 827 1481 830 1444 830 c 2
 1364 830 l 2
 1335 830 1332 841 1332 867 c 2
 1332 1013 l 2
 1332 1039 1341 1040 1368 1040 c 2
 1862 1040 l 2
 1889 1040 1900 1032 1900 1002 c 2
 1900 877 l 2
 1900 839 1898 830 1860 830 c 2
 1786 830 l 2
 1742 830 1733 825 1722 793 c 2
 1472 21 l 2
 1459 -18 1464 -30 1410 -30 c 2
 1254 -30 l 2
 1195 -30 1195 -24 1177 15 c 2
 987 423 l 2
 966 469 966 511 948 511 c 0
 933 511 924 471 908 431 c 2
 742 15 l 2
 727 -23 728 -30 672 -30 c 2
 520 -30 l 2
 461 -30 463 -21 448 21 c 2
 173 795 l 2
 162 825 163 830 120 830 c 2
 26 830 l 2
 -9 830 -10 845 -10 877 c 2
 -10 999 l 2
 -10 1036 -2 1040 32 1040 c 2
 688 1040 l 2
 723 1040 732 1036 732 999 c 2
 732 875 l 2
 732 837 729 830 692 830 c 2
 612 830 l 2
 573 830 579 827 588 799 c 2
 666 565 l 2
 679 526 673 507 689 507 c 0
 706 507 704 527 720 567 c 2
EndSplineSet
Substitution2: "'smcp' Lowercase to Small Capitals in Latin lookup 0 subtable" w.sc
EndChar

StartChar: x
Encoding: 120 120 61
Width: 1448
Flags: MW
AnchorPoint: "Anchor-0" 825 1040 basechar 0
AnchorPoint: "Anchor-1" 637 2 basechar 0
AnchorPoint: "Anchor-2" 637 2 basechar 0
LayerCount: 2
Fore
SplineSet
890 765 m 6
 942 793 l 6
 967 807 996 830 972 830 c 6
 922 830 l 6
 899 830 896 838 896 859 c 6
 896 999 l 6
 896 1031 898 1040 930 1040 c 6
 1388 1040 l 6
 1421 1040 1424 1032 1424 998 c 6
 1424 872 l 6
 1424 832 1416 830 1376 830 c 6
 1324 830 l 6
 1288 830 1276 806 1252 790 c 6
 1032 642 l 6
 987 608 958 602 958 574 c 4
 958 544 1012 512 1052 470 c 6
 1283 230 l 6
 1296 216 1299 210 1328 210 c 6
 1441 210 l 6
 1457 210 1458 201 1458 184 c 6
 1458 28 l 6
 1458 7 1454 0 1434 0 c 6
 710 0 l 6
 687 0 686 9 686 32 c 6
 686 170 l 6
 686 202 689 210 720 210 c 6
 764 210 l 6
 800 210 808 214 793 230 c 6
 727 298 l 6
 695 331 677 356 659 356 c 4
 643 356 629 335 596 310 c 6
 501 238 l 6
 480 222 466 210 498 210 c 6
 524 210 l 6
 552 210 568 208 568 178 c 6
 568 43 l 6
 568 6 564 0 528 0 c 6
 18 0 l 6
 -9 0 -10 9 -10 36 c 6
 -10 177 l 6
 -10 202 -8 210 16 210 c 6
 108 210 l 6
 143 210 150 216 168 230 c 6
 464 455 l 6
 497 480 521 485 521 509 c 4
 521 537 480 554 445 590 c 6
 236 806 l 6
 218 825 212 830 172 830 c 6
 66 830 l 6
 36 830 36 830 36 860 c 6
 36 1013 l 6
 36 1039 45 1040 72 1040 c 6
 780 1040 l 6
 801 1040 818 1037 818 1014 c 6
 818 855 l 6
 818 835 812 830 790 830 c 6
 714 830 l 6
 681 830 679 803 699 793 c 6
 737 762 l 6
 772 734 781 721 809 721 c 4
 835 721 856 747 890 765 c 6
EndSplineSet
Substitution2: "'smcp' Lowercase to Small Capitals in Latin lookup 0 subtable" x.sc
EndChar

StartChar: y
Encoding: 121 121 62
Width: 1430
Flags: MW
AnchorPoint: "Anchor-0" 754 1040 basechar 0
AnchorPoint: "Anchor-1" 346 -565 basechar 0
AnchorPoint: "Anchor-2" 346 -565 basechar 0
LayerCount: 2
Fore
SplineSet
-19 -202 m 4
 -19 -60 81 84 253 84 c 4
 363 84 442 17 442 -104 c 4
 442 -280 247 -242 247 -284 c 4
 247 -311 291 -330 347 -330 c 4
 425 -330 497 -269 570 -130 c 6
 595 -82 l 6
 615 -43 609 -9 591 31 c 6
 215 778 l 6
 194 820 186 830 146 830 c 6
 79 830 l 6
 49 830 34 836 34 864 c 6
 34 1010 l 6
 34 1028 52 1040 71 1040 c 6
 739 1040 l 6
 771 1040 786 1024 786 990 c 6
 786 885 l 6
 786 845 772 830 733 830 c 6
 670 830 l 6
 628 830 621 828 635 800 c 6
 755 552 l 6
 786 488 796 414 809 414 c 4
 824 414 837 459 855 506 c 6
 985 796 l 6
 996 825 989 830 946 830 c 6
 903 830 l 6
 874 830 870 839 870 866 c 6
 870 990 l 6
 870 1025 878 1040 911 1040 c 6
 1349 1040 l 6
 1372 1040 1390 1028 1390 1006 c 6
 1390 880 l 6
 1390 850 1379 830 1349 830 c 6
 1298 830 l 6
 1252 830 1253 798 1236 768 c 6
 809 -144 l 6
 690 -398 563 -530 347 -530 c 4
 133 -530 -19 -396 -19 -202 c 4
EndSplineSet
Substitution2: "'smcp' Lowercase to Small Capitals in Latin lookup 0 subtable" y.sc
EndChar

StartChar: z
Encoding: 122 122 63
Width: 1175
Flags: MW
AnchorPoint: "Anchor-0" 608 1040 basechar 0
AnchorPoint: "Anchor-1" 589 0 basechar 0
AnchorPoint: "Anchor-2" 589 0 basechar 0
LayerCount: 2
Fore
SplineSet
572 840 m 2
 345 840 302 737 297 580 c 0
 296 540 289 536 246 536 c 2
 152 536 l 2
 105 536 96 539 96 589 c 2
 96 980 l 2
 96 1032 100 1040 154 1040 c 2
 1068 1040 l 2
 1111 1040 1118 1036 1118 991 c 2
 1118 885 l 2
 1118 840 1107 829 1087 807 c 2
 565 242 l 2
 542 217 535 200 580 200 c 2
 598 200 l 2
 868 200 913 301 919 494 c 0
 920 533 921 548 964 548 c 2
 1086 548 l 2
 1113 548 1120 544 1120 517 c 2
 1120 70 l 2
 1120 9 1117 0 1054 0 c 2
 90 0 l 2
 59 0 50 1 50 32 c 2
 50 156 l 2
 50 203 59 209 80 231 c 2
 618 796 l 2
 643 822 643 840 594 840 c 2
 572 840 l 2
EndSplineSet
Substitution2: "'smcp' Lowercase to Small Capitals in Latin lookup 0 subtable" z.sc
EndChar

StartChar: comma
Encoding: 44 44 65
Width: 703
Flags: MW
LayerCount: 2
Fore
SplineSet
79 198 m 0
 79 344 207 436 343 436 c 0
 511 436 623 325 623 109 c 0
 623 -171 336 -365 152 -389 c 0
 123 -393 115 -388 115 -356 c 2
 115 -237 l 2
 115 -217 123 -213 140 -211 c 0
 260 -199 381 -101 422 -32 c 0
 427 -24 420 -18 408 -23 c 0
 385 -33 349 -40 305 -40 c 0
 169 -40 79 52 79 198 c 0
EndSplineSet
EndChar

StartChar: exclam
Encoding: 33 33 67
Width: 798
Flags: MW
LayerCount: 2
Fore
SplineSet
160 200 m 0
 160 332 268 440 400 440 c 0
 532 440 640 332 640 200 c 0
 640 68 532 -40 400 -40 c 0
 268 -40 160 68 160 200 c 0
656 1248 m 0
 616 912 498 879 487 616 c 0
 486 590 484 576 453 576 c 2
 353 576 l 2
 312 576 311 588 309 624 c 0
 296 879 180 916 140 1248 c 0
 138 1262 140 1274 140 1286 c 0
 140 1458 264 1536 398 1536 c 0
 532 1536 658 1458 658 1286 c 0
 658 1274 658 1262 656 1248 c 0
EndSplineSet
EndChar

StartChar: quotesingle
Encoding: 39 39 70
Width: 598
Flags: MW
LayerCount: 2
Fore
SplineSet
516 1308 m 4
 495 1184 386 1107 375 945 c 4
 373 918 373 916 345 916 c 6
 247 916 l 6
 220 916 218 932 216 954 c 4
 201 1108 100 1188 80 1308 c 4
 78 1322 78 1332 78 1344 c 4
 78 1452 170 1536 298 1536 c 4
 426 1536 518 1452 518 1344 c 4
 518 1332 518 1322 516 1308 c 4
EndSplineSet
EndChar

StartChar: quoteleft
Encoding: 8216 8216 71
Width: 704
Flags: MW
LayerCount: 2
Fore
SplineSet
624 1090 m 0
 624 944 496 852 360 852 c 0
 192 852 80 963 80 1179 c 0
 80 1459 367 1653 551 1677 c 0
 580 1681 588 1676 588 1644 c 2
 588 1525 l 2
 588 1505 580 1501 563 1499 c 0
 443 1487 322 1389 281 1320 c 0
 276 1312 283 1306 295 1311 c 0
 318 1321 354 1328 398 1328 c 0
 534 1328 624 1236 624 1090 c 0
EndSplineSet
EndChar

StartChar: quotedblleft
Encoding: 8220 8220 72
Width: 1324
Flags: MW
LayerCount: 2
Fore
SplineSet
624 1090 m 0
 624 944 496 852 360 852 c 0
 192 852 80 963 80 1179 c 0
 80 1459 367 1653 551 1677 c 0
 580 1681 588 1676 588 1644 c 2
 588 1525 l 2
 588 1505 580 1501 563 1499 c 0
 443 1487 322 1389 281 1320 c 0
 276 1312 283 1306 295 1311 c 0
 318 1321 354 1328 398 1328 c 0
 534 1328 624 1236 624 1090 c 0
1244 1090 m 0
 1244 944 1116 852 980 852 c 0
 812 852 700 963 700 1179 c 0
 700 1459 987 1653 1171 1677 c 0
 1200 1681 1208 1676 1208 1644 c 2
 1208 1525 l 2
 1208 1505 1200 1501 1183 1499 c 0
 1063 1487 942 1389 901 1320 c 0
 896 1312 903 1306 915 1311 c 0
 938 1321 974 1328 1018 1328 c 0
 1154 1328 1244 1236 1244 1090 c 0
EndSplineSet
EndChar

StartChar: quotedblright
Encoding: 8221 8221 73
Width: 1324
Flags: MW
LayerCount: 2
Fore
SplineSet
80 1502 m 0
 80 1648 208 1740 344 1740 c 0
 512 1740 624 1629 624 1413 c 0
 624 1133 337 939 153 915 c 0
 124 911 116 916 116 948 c 2
 116 1067 l 2
 116 1087 124 1091 141 1093 c 0
 261 1105 382 1203 423 1272 c 0
 428 1280 421 1286 409 1281 c 0
 386 1271 350 1264 306 1264 c 0
 170 1264 80 1356 80 1502 c 0
700 1502 m 0
 700 1648 828 1740 964 1740 c 0
 1132 1740 1244 1629 1244 1413 c 0
 1244 1133 957 939 773 915 c 0
 744 911 736 916 736 948 c 2
 736 1067 l 2
 736 1087 744 1091 761 1093 c 0
 881 1105 1002 1203 1043 1272 c 0
 1048 1280 1041 1286 1029 1281 c 0
 1006 1271 970 1264 926 1264 c 0
 790 1264 700 1356 700 1502 c 0
EndSplineSet
EndChar

StartChar: quoteright
Encoding: 8217 8217 74
Width: 704
Flags: MW
LayerCount: 2
Fore
SplineSet
80 1502 m 0
 80 1648 208 1740 344 1740 c 0
 512 1740 624 1629 624 1413 c 0
 624 1133 337 939 153 915 c 0
 124 911 116 916 116 948 c 2
 116 1067 l 2
 116 1087 124 1091 141 1093 c 0
 261 1105 382 1203 423 1272 c 0
 428 1280 421 1286 409 1281 c 0
 386 1271 350 1264 306 1264 c 0
 170 1264 80 1356 80 1502 c 0
EndSplineSet
EndChar

StartChar: question
Encoding: 63 63 75
Width: 1170
Flags: MW
LayerCount: 2
Fore
SplineSet
358 1334 m 0
 358 1294 500 1312 500 1150 c 0
 500 1026 374 940 264 940 c 0
 144 940 30 1026 30 1182 c 0
 30 1346 228 1520 562 1520 c 0
 884 1520 1140 1390 1140 1100 c 0
 1140 840 925 690 666 618 c 0
 639 611 634 613 631 580 c 2
 628 536 l 2
 625 500 608 498 572 498 c 2
 506 498 l 2
 440 498 433 504 425 560 c 2
 411 652 l 2
 402 712 426 702 470 722 c 0
 643 799 738 956 738 1140 c 0
 738 1288 680 1396 522 1396 c 0
 414 1396 358 1358 358 1334 c 0
EndSplineSet
Refer: 1 46 N 1 0 0 1 258 0 2
EndChar

StartChar: parenleft
Encoding: 40 40 76
Width: 1010
Flags: MW
LayerCount: 2
Fore
SplineSet
994 -217 m 2
 949 -302 l 2
 934 -333 923 -339 886 -329 c 0
 460 -216 110 141 110 650 c 0
 110 1161 463 1481 892 1591 c 0
 922 1599 933 1598 946 1572 c 2
 990 1474 l 2
 1005 1444 1010 1441 978 1428 c 0
 712 1322 580 1096 580 650 c 0
 580 204 711 -60 978 -168 c 0
 1011 -181 1009 -186 994 -217 c 2
EndSplineSet
EndChar

StartChar: parenright
Encoding: 41 41 77
Width: 1009
Flags: MW
LayerCount: 2
Fore
SplineSet
15 1477 m 2
 60 1562 l 2
 75 1593 86 1599 123 1589 c 0
 549 1476 899 1119 899 610 c 0
 899 99 546 -221 117 -331 c 0
 87 -339 76 -338 63 -312 c 2
 19 -214 l 2
 4 -184 -1 -181 31 -168 c 0
 297 -62 429 164 429 610 c 0
 429 1056 298 1320 31 1428 c 0
 -2 1441 0 1446 15 1477 c 2
EndSplineSet
EndChar

StartChar: asterisk
Encoding: 42 42 78
Width: 1270
Flags: MW
LayerCount: 2
Fore
SplineSet
106 725 m 0
 47 827 52 925 146 979 c 0
 253 1041 341 957 514 1016 c 0
 551 1028 548 1031 512 1043 c 0
 340 1101 253 1019 146 1081 c 0
 52 1135 47 1233 106 1335 c 0
 165 1437 252 1481 346 1427 c 0
 452 1366 425 1249 559 1130 c 0
 581 1110 594 1093 585 1140 c 0
 550 1321 434 1354 434 1478 c 0
 434 1586 516 1640 634 1640 c 0
 752 1640 834 1586 834 1478 c 0
 834 1353 717 1320 682 1137 c 0
 675 1098 683 1108 704 1126 c 0
 843 1247 814 1365 922 1427 c 0
 1016 1481 1103 1437 1162 1335 c 0
 1221 1233 1216 1135 1122 1081 c 0
 1015 1019 927 1103 752 1042 c 0
 723 1032 715 1031 748 1019 c 0
 925 956 1013 1042 1122 979 c 0
 1216 925 1221 827 1162 725 c 0
 1103 623 1016 579 922 633 c 0
 814 695 843 813 703 934 c 0
 686 949 675 965 682 928 c 0
 715 740 834 708 834 582 c 0
 834 474 752 420 634 420 c 0
 516 420 434 474 434 582 c 0
 434 708 553 741 586 928 c 0
 593 965 581 948 564 933 c 0
 424 812 454 695 346 633 c 0
 252 579 165 623 106 725 c 0
EndSplineSet
EndChar

StartChar: at
Encoding: 64 64 79
Width: 2300
Flags: MW
LayerCount: 2
Fore
SplineSet
1348 692 m 0
 1348 776 1344 836 1288 836 c 0
 1200 836 1130 608 1130 480 c 0
 1130 386 1140 364 1168 364 c 0
 1250 364 1348 536 1348 692 c 0
1768 -173 m 0
 1600 -353 1350 -448 1038 -448 c 0
 672 -448 90 -224 90 442 c 0
 90 1108 644 1600 1270 1600 c 0
 1856 1600 2180 1248 2180 802 c 0
 2180 462 1944 126 1582 126 c 0
 1481 126 1405 172 1354 230 c 0
 1324 264 1314 272 1274 239 c 0
 1200 178 1119 130 1008 130 c 0
 850 130 708 211 708 420 c 0
 708 640 878 1068 1196 1068 c 0
 1314 1068 1372 1027 1400 958 c 0
 1415 922 1420 917 1428 961 c 2
 1438 1012 l 2
 1444 1042 1449 1040 1486 1040 c 2
 1719 1040 l 2
 1770 1040 1783 1036 1772 989 c 2
 1640 440 l 2
 1636 414 1610 340 1676 340 c 0
 1778 340 1954 482 1954 810 c 0
 1954 1224 1612 1364 1344 1364 c 0
 956 1364 540 1046 540 482 c 0
 540 58 762 -218 1110 -218 c 0
 1284 -218 1446 -208 1612 -51 c 0
 1642 -23 1645 -3 1677 -35 c 2
 1770 -128 l 2
 1791 -149 1788 -151 1768 -173 c 0
EndSplineSet
EndChar

StartChar: dollar
Encoding: 36 36 80
Width: 1450
Flags: MW
LayerCount: 2
Fore
SplineSet
700 1670 m 1
 930 1670 l 1
 919 1522 l 1
 1174 1492 1428 1375 1428 1138 c 0
 1428 982 1338 906 1200 906 c 0
 1106 906 986 948 986 1102 c 0
 986 1194 1056 1206 1056 1240 c 0
 1056 1260 993 1294 903 1312 c 1
 877 967 l 1
 1127 897 1430 801 1430 460 c 0
 1430 191 1145 -14 801 -29 c 1
 790 -170 l 1
 560 -170 l 1
 571 -21 l 1
 260 9 12 121 12 372 c 0
 12 548 142 624 240 624 c 0
 374 624 474 562 474 428 c 0
 474 336 400 306 400 260 c 0
 400 216 441 188 586 177 c 1
 617 580 l 1
 378 645 110 736 110 1058 c 0
 110 1349 382 1501 689 1526 c 1
 700 1670 l 1
980 368 m 0
 980 439 925 480 842 513 c 1
 816 177 l 1
 942 200 980 299 980 368 c 0
552 1152 m 0
 552 1102 591 1067 652 1039 c 1
 672 1305 l 1
 599 1277 552 1221 552 1152 c 0
EndSplineSet
EndChar

StartChar: numbersign
Encoding: 35 35 81
Width: 1320
Flags: MW
LayerCount: 2
Fore
SplineSet
462 1610 m 2
 583 1610 l 2
 621 1610 630 1610 626 1576 c 2
 575 1136 l 2
 572 1107 574 1100 609 1100 c 2
 749 1100 l 2
 793 1100 800 1095 805 1136 c 2
 855 1568 l 2
 860 1608 866 1610 911 1610 c 2
 1023 1610 l 2
 1066 1610 1070 1607 1066 1574 c 2
 1016 1148 l 2
 1011 1104 1016 1100 1067 1100 c 2
 1305 1100 l 2
 1334 1100 1340 1094 1340 1064 c 2
 1340 938 l 2
 1340 891 1327 890 1283 890 c 2
 1035 890 l 2
 994 890 986 894 982 856 c 2
 962 680 l 2
 957 635 963 640 1011 640 c 2
 1239 640 l 2
 1277 640 1280 633 1280 594 c 2
 1280 464 l 2
 1280 434 1271 430 1243 430 c 2
 971 430 l 2
 933 430 933 430 929 396 c 2
 873 -74 l 2
 869 -105 868 -110 833 -110 c 2
 717 -110 l 2
 675 -110 661 -109 666 -68 c 2
 715 366 l 2
 721 415 735 430 675 430 c 2
 549 430 l 2
 509 430 492 427 488 389 c 2
 436 -58 l 2
 430 -108 431 -110 375 -110 c 2
 273 -110 l 2
 211 -110 221 -101 227 -48 c 2
 277 372 l 2
 283 422 281 430 225 430 c 2
 31 430 l 2
 -17 430 -20 437 -20 486 c 2
 -20 598 l 2
 -20 639 -11 640 31 640 c 2
 263 640 l 2
 310 640 307 643 312 684 c 2
 333 850 l 2
 337 883 333 890 297 890 c 2
 93 890 l 2
 47 890 40 893 40 938 c 2
 40 1056 l 2
 40 1094 45 1100 85 1100 c 2
 321 1100 l 2
 364 1100 362 1104 366 1142 c 2
 415 1564 l 2
 419 1598 421 1610 462 1610 c 2
727 890 m 2
 589 890 l 2
 539 890 545 880 540 838 c 2
 523 690 l 2
 518 648 522 640 571 640 c 2
 705 640 l 2
 744 640 747 648 751 684 c 2
 771 842 l 2
 776 888 769 890 727 890 c 2
EndSplineSet
EndChar

StartChar: slash
Encoding: 47 47 82
Width: 1040
Flags: MW
LayerCount: 2
Fore
SplineSet
763 1560 m 2
 881 1560 l 2
 948 1560 959 1557 942 1505 c 2
 353 -254 l 2
 340 -294 332 -300 277 -300 c 2
 167 -300 l 2
 96 -300 80 -299 98 -246 c 2
 700 1524 l 2
 711 1555 719 1560 763 1560 c 2
EndSplineSet
EndChar

StartChar: percent
Encoding: 37 37 83
Width: 2400
Flags: MW
LayerCount: 2
Fore
SplineSet
70 1080 m 0
 70 1366 274 1530 570 1530 c 0
 866 1530 1070 1366 1070 1080 c 0
 1070 794 826 630 570 630 c 0
 274 630 70 794 70 1080 c 0
490 1080 m 0
 490 876 512 810 570 810 c 0
 638 810 650 876 650 1080 c 0
 650 1284 638 1350 570 1350 c 0
 512 1350 490 1284 490 1080 c 0
1661 1500 m 2
 1743 1500 l 2
 1807 1500 1822 1488 1796 1450 c 2
 824 24 l 2
 808 0 779 0 737 0 c 2
 677 0 l 2
 597 0 584 20 610 58 c 2
 1576 1462 l 2
 1594 1488 1614 1500 1661 1500 c 2
1330 420 m 0
 1330 706 1534 870 1830 870 c 0
 2126 870 2330 706 2330 420 c 0
 2330 134 2086 -30 1830 -30 c 0
 1534 -30 1330 134 1330 420 c 0
1750 420 m 0
 1750 216 1762 150 1830 150 c 0
 1898 150 1910 216 1910 420 c 0
 1910 624 1898 690 1830 690 c 0
 1762 690 1750 624 1750 420 c 0
EndSplineSet
EndChar

StartChar: hyphen
Encoding: 45 45 84
Width: 820
Flags: MW
LayerCount: 2
Fore
SplineSet
154 770 m 2
 666 770 l 2
 697 770 700 763 700 731 c 2
 700 581 l 2
 700 546 699 540 664 540 c 2
 162 540 l 2
 126 540 120 545 120 580 c 2
 120 729 l 2
 120 761 122 770 154 770 c 2
EndSplineSet
Substitution2: "Single Substitution lookup 8 subtable" hyphen.sc
EndChar

StartChar: plus
Encoding: 43 43 86
Width: 1060
Flags: MW
LayerCount: 2
Fore
SplineSet
674 746 m 2
 900 746 l 2
 927 746 940 743 940 714 c 2
 940 555 l 2
 940 525 938 516 908 516 c 2
 678 516 l 2
 645 516 644 512 644 478 c 2
 644 243 l 2
 644 223 637 220 616 220 c 2
 446 220 l 2
 419 220 416 227 416 255 c 2
 416 474 l 2
 416 508 413 516 380 516 c 2
 150 516 l 2
 128 516 120 521 120 545 c 2
 120 724 l 2
 120 746 125 746 147 746 c 2
 388 746 l 2
 413 746 416 754 416 780 c 2
 416 1000 l 2
 416 1033 420 1040 452 1040 c 2
 614 1040 l 2
 643 1040 644 1031 644 1001 c 2
 644 776 l 2
 644 750 649 746 674 746 c 2
EndSplineSet
EndChar

StartChar: equal
Encoding: 61 61 87
Width: 1120
Flags: MW
LayerCount: 2
Fore
SplineSet
164 690 m 2
 956 690 l 2
 996 690 1000 683 1000 651 c 2
 1000 501 l 2
 1000 466 999 460 954 460 c 2
 175 460 l 2
 128 460 120 465 120 500 c 2
 120 649 l 2
 120 681 123 690 164 690 c 2
164 1090 m 2
 956 1090 l 2
 996 1090 1000 1083 1000 1051 c 2
 1000 901 l 2
 1000 866 999 860 954 860 c 2
 175 860 l 2
 128 860 120 865 120 900 c 2
 120 1049 l 2
 120 1081 123 1090 164 1090 c 2
EndSplineSet
EndChar

StartChar: less
Encoding: 60 60 88
Width: 1120
Flags: MW
LayerCount: 2
Fore
SplineSet
438 748 m 2
 960 555 l 2
 989 544 1000 533 1000 491 c 2
 1000 373 l 2
 1000 315 993 313 954 328 c 2
 164 642 l 2
 131 655 120 672 120 720 c 2
 120 830 l 2
 120 890 135 896 176 912 c 2
 940 1216 l 2
 980 1232 1000 1235 1000 1169 c 2
 1000 1082 l 2
 1000 1025 992 1007 952 992 c 2
 438 802 l 2
 403 789 382 788 382 776 c 0
 382 759 399 763 438 748 c 2
EndSplineSet
EndChar

StartChar: greater
Encoding: 62 62 89
Width: 1120
Flags: MW
LayerCount: 2
Fore
SplineSet
682 802 m 2
 160 995 l 2
 131 1006 120 1017 120 1059 c 2
 120 1177 l 2
 120 1235 127 1237 166 1222 c 2
 956 908 l 2
 989 895 1000 878 1000 830 c 2
 1000 720 l 2
 1000 660 985 654 944 638 c 2
 180 334 l 2
 140 318 120 315 120 381 c 2
 120 468 l 2
 120 525 128 543 168 558 c 2
 682 748 l 2
 717 761 738 762 738 774 c 0
 738 791 721 787 682 802 c 2
EndSplineSet
EndChar

StartChar: backslash
Encoding: 92 92 90
Width: 1040
Flags: MW
LayerCount: 2
Fore
SplineSet
328 1560 m 1
 960 -300 l 1
 702 -300 l 1
 80 1560 l 1
 328 1560 l 1
EndSplineSet
EndChar

StartChar: bracketleft
Encoding: 91 91 91
Width: 810
Flags: MW
LayerCount: 2
Fore
SplineSet
210 1560 m 18
 701 1560 l 2
 744 1560 750 1555 750 1510 c 2
 750 1386 l 2
 750 1342 746 1330 699 1330 c 2
 597 1330 l 2
 540 1330 530 1329 530 1272 c 2
 530 2 l 2
 530 -56 531 -70 589 -70 c 2
 693 -70 l 2
 747 -70 750 -77 750 -132 c 2
 750 -242 l 2
 750 -295 744 -300 693 -300 c 2
 210 -300 l 10
 123 -300 110 -295 110 -205 c 2
 110 1465 l 2
 110 1555 123 1560 210 1560 c 18
EndSplineSet
EndChar

StartChar: braceleft
Encoding: 123 123 92
Width: 744
Flags: MW
LayerCount: 2
Fore
SplineSet
627 -300 m 0
 269 -294 70 -228 70 -20 c 0
 70 174 230 284 230 410 c 0
 230 477 190 495 142 510 c 0
 107 521 110 535 110 581 c 2
 110 716 l 2
 110 752 134 747 158 756 c 0
 198 771 230 792 230 852 c 0
 230 978 70 1088 70 1282 c 0
 70 1491 276 1555 636 1560 c 0
 679 1561 684 1551 684 1506 c 2
 684 1393 l 2
 684 1342 671 1347 626 1345 c 0
 535 1341 476 1322 476 1234 c 0
 476 1102 564 1042 564 862 c 0
 564 785 497 702 411 670 c 0
 372 656 358 659 358 630 c 0
 358 600 375 603 420 586 c 0
 502 555 564 475 564 400 c 0
 564 220 476 160 476 28 c 0
 476 -60 535 -81 626 -85 c 0
 666 -87 684 -85 684 -132 c 2
 684 -236 l 2
 684 -289 680 -301 627 -300 c 0
EndSplineSet
EndChar

StartChar: bracketright
Encoding: 93 93 93
Width: 810
Flags: MW
LayerCount: 2
Fore
SplineSet
600 -300 m 18
 109 -300 l 2
 66 -300 60 -295 60 -250 c 2
 60 -126 l 2
 60 -82 64 -70 111 -70 c 2
 213 -70 l 2
 270 -70 280 -69 280 -12 c 2
 280 1258 l 2
 280 1316 279 1330 221 1330 c 2
 117 1330 l 2
 63 1330 60 1337 60 1392 c 2
 60 1502 l 2
 60 1555 66 1560 117 1560 c 2
 600 1560 l 10
 687 1560 700 1555 700 1465 c 2
 700 -205 l 2
 700 -295 687 -300 600 -300 c 18
EndSplineSet
EndChar

StartChar: braceright
Encoding: 125 125 94
Width: 704
Flags: MW
LayerCount: 2
Fore
SplineSet
97 1560 m 0
 455 1554 654 1488 654 1280 c 0
 654 1086 494 976 494 850 c 0
 494 783 534 765 582 750 c 0
 617 739 614 725 614 679 c 2
 614 544 l 2
 614 508 590 513 566 504 c 0
 526 489 494 468 494 408 c 0
 494 282 654 172 654 -22 c 0
 654 -231 448 -295 88 -300 c 0
 45 -301 40 -291 40 -246 c 2
 40 -133 l 2
 40 -82 53 -87 98 -85 c 0
 189 -81 248 -62 248 26 c 0
 248 158 160 218 160 398 c 0
 160 475 227 558 313 590 c 0
 352 604 366 601 366 630 c 0
 366 660 349 657 304 674 c 0
 222 705 160 785 160 860 c 0
 160 1040 248 1100 248 1232 c 0
 248 1320 189 1341 98 1345 c 0
 58 1347 40 1345 40 1392 c 2
 40 1496 l 2
 40 1549 44 1561 97 1560 c 0
EndSplineSet
EndChar

StartChar: bar
Encoding: 124 124 95
Width: 600
Flags: MW
LayerCount: 2
Fore
SplineSet
207 1560 m 2
 393 1560 l 2
 447 1560 450 1553 450 1498 c 2
 450 -448 l 2
 450 -499 441 -500 389 -500 c 2
 203 -500 l 2
 152 -500 150 -492 150 -440 c 2
 150 1496 l 2
 150 1551 152 1560 207 1560 c 2
EndSplineSet
EndChar

StartChar: asciitilde
Encoding: 126 126 96
Width: 1376
Flags: MW
LayerCount: 2
Fore
SplineSet
486 834 m 0
 432 834 392 805 379 738 c 0
 373 707 375 686 334 686 c 2
 184 686 l 2
 142 686 139 690 142 732 c 0
 158 940 293 1080 498 1080 c 0
 758 1080 718 872 870 872 c 0
 925 872 980 903 997 974 c 0
 1006 1012 1009 1020 1058 1020 c 2
 1176 1020 l 2
 1225 1020 1238 1019 1234 971 c 0
 1215 767 1080 626 878 626 c 0
 584 626 652 834 486 834 c 0
EndSplineSet
EndChar

StartChar: asciicircum
Encoding: 94 94 97
Width: 1090
Flags: MW
LayerCount: 2
Fore
SplineSet
489 1252 m 2
 252 1123 l 2
 222 1107 209 1102 176 1117 c 2
 124 1145 l 2
 89 1165 88 1169 111 1193 c 2
 413 1512 l 2
 429 1529 443 1540 478 1540 c 2
 598 1540 l 2
 644 1540 658 1531 679 1509 c 2
 971 1201 l 2
 996 1174 1005 1157 975 1143 c 2
 923 1120 l 2
 884 1102 876 1102 839 1122 c 2
 594 1256 l 2
 545 1282 537 1278 489 1252 c 2
EndSplineSet
EndChar

StartChar: grave
Encoding: 96 96 98
Width: 790
Flags: MW
LayerCount: 2
Fore
SplineSet
250 1340 m 2
 145 1331 60 1392 60 1510 c 0
 60 1628 154 1720 270 1676 c 2
 637 1536 l 2
 701 1512 730 1509 724 1432 c 0
 720 1377 696 1378 634 1373 c 2
 250 1340 l 2
EndSplineSet
EndChar

StartChar: uni203E
Encoding: 8254 8254 99
Width: 719
Flags: MW
LayerCount: 2
Fore
SplineSet
42 1919 m 2
 986 1919 l 2
 1034 1919 1038 1912 1038 1880 c 2
 1038 1730 l 2
 1038 1695 1037 1689 983 1689 c 2
 55 1689 l 2
 -1 1689 -10 1694 -10 1729 c 2
 -10 1878 l 2
 -10 1910 -7 1919 42 1919 c 2
EndSplineSet
EndChar

StartChar: uni2010
Encoding: 8208 8208 100
Width: 920
Flags: MW
LayerCount: 2
Fore
SplineSet
154 890 m 2
 766 890 l 2
 797 890 800 883 800 851 c 2
 800 701 l 2
 800 666 799 660 764 660 c 2
 162 660 l 2
 126 660 120 665 120 700 c 2
 120 849 l 2
 120 881 122 890 154 890 c 2
EndSplineSet
EndChar

StartChar: uni2011
Encoding: 8209 8209 101
Width: 920
Flags: MW
LayerCount: 2
Fore
SplineSet
154 890 m 2
 766 890 l 2
 797 890 800 883 800 851 c 2
 800 701 l 2
 800 666 799 660 764 660 c 2
 162 660 l 2
 126 660 120 665 120 700 c 2
 120 849 l 2
 120 881 122 890 154 890 c 2
EndSplineSet
EndChar

StartChar: endash
Encoding: 8211 8211 102
Width: 1432
Flags: MW
LayerCount: 2
Fore
SplineSet
180 890 m 2
 1253 890 l 2
 1307 890 1312 883 1312 851 c 2
 1312 701 l 2
 1312 666 1310 660 1249 660 c 2
 194 660 l 2
 131 660 120 665 120 700 c 2
 120 849 l 2
 120 881 124 890 180 890 c 2
EndSplineSet
EndChar

StartChar: figuredash
Encoding: 8210 8210 103
Width: 1224
Flags: MW
LayerCount: 2
Fore
SplineSet
169 890 m 2
 1055 890 l 2
 1100 890 1104 883 1104 851 c 2
 1104 701 l 2
 1104 666 1103 660 1052 660 c 2
 181 660 l 2
 129 660 120 665 120 700 c 2
 120 849 l 2
 120 881 123 890 169 890 c 2
EndSplineSet
EndChar

StartChar: emdash
Encoding: 8212 8212 104
Width: 2124
Flags: MW
LayerCount: 2
Fore
SplineSet
215 890 m 2
 1910 890 l 2
 1996 890 2004 883 2004 851 c 2
 2004 701 l 2
 2004 666 2001 660 1904 660 c 2
 237 660 l 2
 137 660 120 665 120 700 c 2
 120 849 l 2
 120 881 126 890 215 890 c 2
EndSplineSet
EndChar

StartChar: uni2015
Encoding: 8213 8213 105
Width: 2331
Flags: MW
LayerCount: 2
Fore
SplineSet
225 890 m 2
 2107 890 l 2
 2202 890 2211 883 2211 851 c 2
 2211 701 l 2
 2211 666 2209 660 2101 660 c 2
 249 660 l 2
 138 660 120 665 120 700 c 2
 120 849 l 2
 120 881 127 890 225 890 c 2
EndSplineSet
EndChar

StartChar: perthousand
Encoding: 8240 8240 106
Width: 3500
Flags: MW
LayerCount: 2
Fore
SplineSet
2430 420 m 0
 2430 706 2634 870 2930 870 c 0
 3226 870 3430 706 3430 420 c 0
 3430 134 3186 -30 2930 -30 c 0
 2634 -30 2430 134 2430 420 c 0
2850 420 m 0
 2850 216 2862 150 2930 150 c 0
 2998 150 3010 216 3010 420 c 0
 3010 624 2998 690 2930 690 c 0
 2862 690 2850 624 2850 420 c 0
70 1080 m 0
 70 1366 274 1530 570 1530 c 0
 866 1530 1070 1366 1070 1080 c 0
 1070 794 826 630 570 630 c 0
 274 630 70 794 70 1080 c 0
490 1080 m 0
 490 876 512 810 570 810 c 0
 638 810 650 876 650 1080 c 0
 650 1284 638 1350 570 1350 c 0
 512 1350 490 1284 490 1080 c 0
1661 1500 m 2
 1743 1500 l 2
 1807 1500 1822 1488 1796 1450 c 2
 824 24 l 2
 808 0 779 0 737 0 c 2
 677 0 l 2
 597 0 584 20 610 58 c 2
 1576 1462 l 2
 1594 1488 1614 1500 1661 1500 c 2
1330 420 m 0
 1330 706 1534 870 1830 870 c 0
 2126 870 2330 706 2330 420 c 0
 2330 134 2086 -30 1830 -30 c 0
 1534 -30 1330 134 1330 420 c 0
1750 420 m 0
 1750 216 1762 150 1830 150 c 0
 1898 150 1910 216 1910 420 c 0
 1910 624 1898 690 1830 690 c 0
 1762 690 1750 624 1750 420 c 0
EndSplineSet
EndChar

StartChar: uni2031
Encoding: 8241 8241 107
Width: 4600
Flags: MW
LayerCount: 2
Fore
SplineSet
3530 420 m 0
 3530 706 3734 870 4030 870 c 0
 4326 870 4530 706 4530 420 c 0
 4530 134 4286 -30 4030 -30 c 0
 3734 -30 3530 134 3530 420 c 0
3950 420 m 0
 3950 216 3962 150 4030 150 c 0
 4098 150 4110 216 4110 420 c 0
 4110 624 4098 690 4030 690 c 0
 3962 690 3950 624 3950 420 c 0
2430 420 m 0
 2430 706 2634 870 2930 870 c 0
 3226 870 3430 706 3430 420 c 0
 3430 134 3186 -30 2930 -30 c 0
 2634 -30 2430 134 2430 420 c 0
2850 420 m 0
 2850 216 2862 150 2930 150 c 0
 2998 150 3010 216 3010 420 c 0
 3010 624 2998 690 2930 690 c 0
 2862 690 2850 624 2850 420 c 0
70 1080 m 0
 70 1366 274 1530 570 1530 c 0
 866 1530 1070 1366 1070 1080 c 0
 1070 794 826 630 570 630 c 0
 274 630 70 794 70 1080 c 0
490 1080 m 0
 490 876 512 810 570 810 c 0
 638 810 650 876 650 1080 c 0
 650 1284 638 1350 570 1350 c 0
 512 1350 490 1284 490 1080 c 0
1661 1500 m 2
 1743 1500 l 2
 1807 1500 1822 1488 1796 1450 c 2
 824 24 l 2
 808 0 779 0 737 0 c 2
 677 0 l 2
 597 0 584 20 610 58 c 2
 1576 1462 l 2
 1594 1488 1614 1500 1661 1500 c 2
1330 420 m 0
 1330 706 1534 870 1830 870 c 0
 2126 870 2330 706 2330 420 c 0
 2330 134 2086 -30 1830 -30 c 0
 1534 -30 1330 134 1330 420 c 0
1750 420 m 0
 1750 216 1762 150 1830 150 c 0
 1898 150 1910 216 1910 420 c 0
 1910 624 1898 690 1830 690 c 0
 1762 690 1750 624 1750 420 c 0
EndSplineSet
EndChar

StartChar: uniFB00
Encoding: 64256 64256 108
Width: 1730
Flags: MW
LayerCount: 2
Fore
SplineSet
40 47 m 2
 40 157 l 2
 40 200 41 210 84 210 c 2
 182 210 l 2
 215 210 220 218 220 249 c 2
 220 792 l 2
 220 826 211 830 179 830 c 2
 75 830 l 2
 45 830 40 838 40 866 c 2
 40 1003 l 2
 40 1030 41 1040 68 1040 c 2
 178 1040 l 2
 217 1040 220 1047 220 1087 c 2
 220 1104 l 2
 220 1326 414 1560 814 1560 c 0
 956 1560 1063 1533 1139 1490 c 0
 1159 1478 1168 1471 1177 1471 c 0
 1184 1471 1192 1476 1207 1486 c 0
 1304 1555 1439 1600 1614 1600 c 0
 1936 1600 2080 1462 2080 1308 c 0
 2080 1148 1970 1086 1846 1086 c 0
 1702 1086 1606 1162 1606 1272 c 0
 1606 1366 1678 1388 1678 1410 c 0
 1678 1424 1650 1426 1630 1426 c 0
 1550 1426 1440 1354 1440 1100 c 2
 1440 1075 l 2
 1440 1045 1446 1040 1474 1040 c 2
 1609 1040 l 2
 1656 1040 1680 1033 1680 981 c 2
 1680 878 l 2
 1680 842 1677 830 1638 830 c 2
 1484 830 l 2
 1449 830 1440 829 1440 794 c 2
 1440 244 l 2
 1440 214 1440 210 1470 210 c 2
 1637 210 l 2
 1675 210 1680 204 1680 164 c 2
 1680 44 l 2
 1680 1 1665 0 1625 0 c 2
 894 0 l 2
 862 0 860 8 860 41 c 2
 860 180 l 2
 860 208 868 210 897 210 c 2
 986 210 l 2
 1017 210 1020 217 1020 249 c 2
 1020 783 l 2
 1020 821 1018 830 980 830 c 2
 678 830 l 2
 649 830 640 829 640 800 c 2
 640 250 l 2
 640 218 644 210 679 210 c 2
 747 210 l 2
 771 210 780 209 780 185 c 2
 780 44 l 2
 780 1 766 0 726 0 c 2
 86 0 l 2
 45 0 40 7 40 47 c 2
674 1040 m 2
 998 1040 l 2
 1010 1040 1020 1040 1020 1052 c 2
 1020 1055 l 2
 1020 1067 1008 1067 994 1069 c 0
 880 1081 806 1136 806 1232 c 0
 806 1326 878 1348 878 1370 c 0
 878 1384 850 1386 830 1386 c 0
 750 1386 640 1314 640 1070 c 0
 640 1044 650 1040 674 1040 c 2
EndSplineSet
LCarets2: 1 0
Ligature2: "'liga' Standard Ligatures lookup 4 subtable" f f
EndChar

StartChar: uniFB01
Encoding: 64257 64257 109
Width: 1630
Flags: MW
LayerCount: 2
Fore
SplineSet
640 778 m 2
 640 262 l 2
 640 217 643 210 687 210 c 2
 751 210 l 2
 784 210 790 206 790 174 c 2
 790 43 l 2
 790 5 781 0 745 0 c 2
 97 0 l 2
 50 0 40 1 40 48 c 2
 40 158 l 2
 40 200 41 210 83 210 c 2
 175 210 l 2
 213 210 220 213 220 250 c 2
 220 772 l 2
 220 820 219 830 171 830 c 2
 89 830 l 2
 45 830 40 837 40 880 c 2
 40 998 l 2
 40 1034 44 1040 79 1040 c 2
 179 1040 l 2
 215 1040 220 1046 220 1084 c 2
 220 1144 l 2
 220 1366 454 1600 854 1600 c 0
 1176 1600 1340 1462 1340 1308 c 0
 1340 1188 1230 1106 1106 1106 c 0
 962 1106 866 1162 866 1272 c 0
 866 1366 938 1388 938 1410 c 0
 938 1424 900 1426 880 1426 c 0
 780 1426 640 1354 640 1100 c 2
 640 1078 l 2
 640 1042 648 1040 685 1040 c 2
 1383 1040 l 2
 1430 1040 1440 1039 1440 992 c 2
 1440 258 l 2
 1440 225 1443 210 1479 210 c 2
 1581 210 l 2
 1615 210 1620 200 1620 168 c 2
 1620 56 l 2
 1620 10 1616 0 1567 0 c 2
 925 0 l 2
 876 0 850 2 850 56 c 2
 850 154 l 2
 850 201 853 210 903 210 c 2
 965 210 l 2
 1011 210 1020 212 1020 258 c 2
 1020 780 l 2
 1020 829 1007 830 961 830 c 2
 693 830 l 2
 645 830 640 824 640 778 c 2
EndSplineSet
LCarets2: 1 0
Ligature2: "'liga' Standard Ligatures lookup 4 subtable" f i
EndChar

StartChar: uniFB02
Encoding: 64258 64258 110
Width: 1660
Flags: MW
LayerCount: 2
Fore
SplineSet
640 786 m 2
 640 252 l 2
 640 221 643 210 677 210 c 2
 761 210 l 2
 788 210 790 202 790 174 c 2
 790 58 l 2
 790 5 784 0 733 0 c 2
 89 0 l 2
 43 0 40 7 40 54 c 2
 40 162 l 2
 40 204 45 210 85 210 c 2
 167 210 l 2
 217 210 220 217 220 268 c 2
 220 788 l 2
 220 828 212 830 171 830 c 2
 67 830 l 2
 42 830 40 838 40 864 c 2
 40 992 l 2
 40 1030 41 1040 79 1040 c 2
 169 1040 l 2
 213 1040 220 1044 220 1090 c 2
 220 1144 l 2
 220 1366 454 1600 854 1600 c 0
 1006 1600 1122 1569 1203 1521 c 0
 1247 1495 1247 1483 1295 1508 c 2
 1373 1549 l 2
 1432 1580 1470 1565 1470 1464 c 2
 1470 258 l 2
 1470 216 1475 210 1519 210 c 2
 1613 210 l 2
 1644 210 1650 204 1650 174 c 2
 1650 48 l 2
 1650 9 1648 0 1609 0 c 2
 911 0 l 2
 872 0 870 8 870 48 c 2
 870 168 l 2
 870 205 876 210 915 210 c 2
 1001 210 l 2
 1045 210 1050 216 1050 258 c 2
 1050 1048 l 2
 1050 1097 1041 1089 1005 1100 c 0
 919 1127 866 1190 866 1272 c 0
 866 1366 938 1388 938 1410 c 0
 938 1424 900 1426 880 1426 c 0
 780 1426 640 1354 640 1100 c 2
 640 1084 l 2
 640 1046 644 1040 681 1040 c 2
 839 1040 l 2
 891 1040 900 1038 900 986 c 2
 900 878 l 2
 900 836 895 830 855 830 c 2
 691 830 l 2
 652 830 640 828 640 786 c 2
EndSplineSet
LCarets2: 1 0
Ligature2: "'liga' Standard Ligatures lookup 4 subtable" f l
EndChar

StartChar: uniFB03
Encoding: 64259 64259 111
Width: 2430
Flags: MW
LayerCount: 2
Fore
SplineSet
662 1040 m 2
 994 1040 l 2
 1011 1040 1020 1045 1020 1054 c 2
 1020 1055 l 2
 1020 1064 987 1070 974 1072 c 0
 871 1088 806 1142 806 1232 c 0
 806 1326 878 1348 878 1370 c 0
 878 1384 850 1386 830 1386 c 0
 750 1386 640 1314 640 1070 c 0
 640 1049 641 1040 662 1040 c 2
40 34 m 2
 40 162 l 2
 40 201 42 210 81 210 c 2
 183 210 l 2
 218 210 220 218 220 254 c 2
 220 786 l 2
 220 824 216 830 179 830 c 2
 67 830 l 2
 40 830 40 840 40 867 c 2
 40 1004 l 2
 40 1033 44 1040 72 1040 c 2
 185 1040 l 2
 214 1040 220 1045 220 1073 c 2
 220 1104 l 2
 220 1326 414 1560 814 1560 c 0
 959 1560 1068 1532 1144 1487 c 0
 1192 1459 1186 1458 1233 1488 c 0
 1338 1556 1481 1600 1654 1600 c 0
 1976 1600 2140 1462 2140 1308 c 0
 2140 1188 2030 1106 1906 1106 c 0
 1762 1106 1666 1162 1666 1272 c 0
 1666 1366 1738 1388 1738 1410 c 0
 1738 1424 1700 1426 1680 1426 c 0
 1580 1426 1440 1354 1440 1100 c 2
 1440 1060 l 2
 1440 1041 1449 1040 1468 1040 c 2
 2185 1040 l 2
 2233 1040 2240 1035 2240 985 c 2
 2240 258 l 2
 2240 218 2244 210 2286 210 c 2
 2370 210 l 2
 2405 210 2420 209 2420 171 c 2
 2420 30 l 2
 2420 6 2414 0 2388 0 c 2
 1683 0 l 2
 1653 0 1650 7 1650 38 c 2
 1650 171 l 2
 1650 204 1655 210 1690 210 c 2
 1787 210 l 2
 1817 210 1820 218 1820 249 c 2
 1820 778 l 2
 1820 828 1812 830 1762 830 c 2
 1492 830 l 2
 1444 830 1440 824 1440 774 c 2
 1440 249 l 2
 1440 211 1449 210 1488 210 c 2
 1552 210 l 2
 1589 210 1590 201 1590 163 c 2
 1590 38 l 2
 1590 1 1575 0 1542 0 c 2
 897 0 l 2
 871 0 860 3 860 32 c 2
 860 174 l 2
 860 207 867 210 901 210 c 2
 993 210 l 2
 1017 210 1020 217 1020 242 c 2
 1020 778 l 2
 1020 821 1018 830 975 830 c 2
 683 830 l 2
 650 830 640 829 640 796 c 2
 640 240 l 2
 640 218 645 210 669 210 c 2
 745 210 l 2
 770 210 780 209 780 184 c 2
 780 39 l 2
 780 8 777 0 747 0 c 2
 65 0 l 2
 41 0 40 9 40 34 c 2
EndSplineSet
LCarets2: 2 0 0
Ligature2: "'liga' Standard Ligatures lookup 4 subtable" f f i
EndChar

StartChar: uniFB04
Encoding: 64260 64260 112
Width: 2460
Flags: MW
LayerCount: 2
Fore
SplineSet
668 1040 m 2
 996 1040 l 2
 1011 1040 1020 1041 1020 1056 c 2
 1020 1058 l 2
 1020 1068 1018 1067 1009 1068 c 0
 886 1077 806 1132 806 1232 c 0
 806 1326 878 1348 878 1370 c 0
 878 1384 850 1386 830 1386 c 0
 750 1386 640 1314 640 1070 c 0
 640 1046 645 1040 668 1040 c 2
40 40 m 2
 40 174 l 2
 40 202 45 210 75 210 c 2
 180 210 l 2
 213 210 220 214 220 246 c 2
 220 790 l 2
 220 825 199 830 168 830 c 2
 86 830 l 2
 45 830 40 837 40 877 c 2
 40 999 l 2
 40 1031 42 1040 74 1040 c 2
 186 1040 l 2
 218 1040 220 1048 220 1081 c 2
 220 1104 l 2
 220 1326 414 1560 814 1560 c 0
 955 1560 1062 1534 1138 1491 c 0
 1182 1466 1180 1453 1223 1482 c 0
 1329 1554 1476 1600 1654 1600 c 0
 1817 1600 1939 1564 2020 1510 c 0
 2051 1489 2051 1486 2086 1504 c 2
 2201 1564 l 2
 2243 1586 2270 1585 2270 1506 c 2
 2270 243 l 2
 2270 218 2275 210 2302 210 c 2
 2415 210 l 2
 2445 210 2450 204 2450 172 c 2
 2450 33 l 2
 2450 1 2441 0 2409 0 c 2
 1703 0 l 2
 1673 0 1670 7 1670 38 c 2
 1670 176 l 2
 1670 202 1675 210 1703 210 c 2
 1809 210 l 2
 1841 210 1850 212 1850 244 c 2
 1850 1068 l 2
 1850 1098 1837 1091 1815 1097 c 0
 1723 1122 1666 1187 1666 1272 c 0
 1666 1366 1738 1388 1738 1410 c 0
 1738 1424 1700 1426 1680 1426 c 0
 1580 1426 1440 1354 1440 1100 c 2
 1440 1079 l 2
 1440 1046 1445 1040 1477 1040 c 2
 1607 1040 l 2
 1632 1040 1640 1038 1640 1014 c 2
 1640 867 l 2
 1640 838 1637 830 1609 830 c 2
 1481 830 l 2
 1448 830 1440 826 1440 790 c 2
 1440 252 l 2
 1440 212 1448 210 1489 210 c 2
 1539 210 l 2
 1577 210 1590 208 1590 167 c 2
 1590 43 l 2
 1590 3 1579 0 1541 0 c 2
 895 0 l 2
 864 0 860 7 860 39 c 2
 860 171 l 2
 860 204 864 210 896 210 c 2
 988 210 l 2
 1018 210 1020 225 1020 252 c 2
 1020 787 l 2
 1020 829 1005 830 966 830 c 2
 680 830 l 2
 646 830 640 826 640 793 c 2
 640 239 l 2
 640 211 649 210 678 210 c 2
 749 210 l 2
 775 210 780 204 780 176 c 2
 780 34 l 2
 780 8 777 0 752 0 c 2
 76 0 l 2
 44 0 40 7 40 40 c 2
EndSplineSet
LCarets2: 2 0 0
Ligature2: "'liga' Standard Ligatures lookup 4 subtable" f f l
EndChar

StartChar: R.alt
Encoding: 65536 -1 113
Width: 1750
Flags: MW
LayerCount: 2
Fore
SplineSet
785 880 m 2
 960 880 l 2
 1072 880 1140 952 1140 1050 c 0
 1140 1148 1072 1230 960 1230 c 2
 791 1230 l 2
 759 1230 740 1230 740 1194 c 2
 740 914 l 2
 740 882 755 880 785 880 c 2
1679 0 m 2
 1440 0 l 2
 834 0 1283 620 810 620 c 2
 785 620 l 2
 749 620 740 618 740 582 c 2
 740 330 l 2
 740 290 749 270 793 270 c 2
 915 270 l 2
 958 270 960 260 960 216 c 2
 960 58 l 2
 960 7 936 0 889 0 c 2
 111 0 l 2
 53 0 50 9 50 68 c 2
 50 214 l 2
 50 269 61 270 117 270 c 2
 201 270 l 2
 250 270 270 271 270 320 c 2
 270 1168 l 2
 270 1212 261 1230 213 1230 c 2
 103 1230 l 2
 66 1230 50 1235 50 1274 c 2
 50 1446 l 2
 50 1491 70 1500 111 1500 c 2
 960 1500 l 2
 1402 1500 1620 1370 1620 1090 c 0
 1620 911 1526 806 1317 759 c 0
 1262 747 1257 733 1315 711 c 0
 1645 584 1431 270 1612 270 c 2
 1679 270 l 2
 1724 270 1730 275 1730 228 c 2
 1730 44 l 2
 1730 2 1718 0 1679 0 c 2
EndSplineSet
EndChar

StartChar: zero.oldstyle
Encoding: 65537 -1 114
Width: 1260
Flags: MW
LayerCount: 2
Fore
SplineSet
70 520 m 0
 70 886 324 1060 630 1060 c 0
 946 1060 1190 886 1190 520 c 0
 1190 154 906 -20 630 -20 c 0
 324 -20 70 154 70 520 c 0
490 520 m 0
 490 276 532 180 630 180 c 0
 718 180 770 276 770 520 c 0
 770 764 718 860 630 860 c 0
 532 860 490 764 490 520 c 0
EndSplineSet
Substitution2: "'tnum' Tabular Numbers lookup 6 subtable" zero.oldtab
EndChar

StartChar: one.oldstyle
Encoding: 65538 -1 115
Width: 1070
Flags: MW
LayerCount: 2
Fore
SplineSet
70 42 m 2
 70 174 l 2
 70 206 77 210 110 210 c 2
 328 210 l 2
 363 210 370 213 370 247 c 2
 370 687 l 2
 370 719 361 720 328 720 c 2
 134 720 l 2
 109 720 104 726 104 753 c 2
 104 895 l 2
 104 929 114 930 148 930 c 0
 338 931 462 946 555 1146 c 0
 565 1167 572 1180 606 1180 c 2
 708 1180 l 2
 754 1180 760 1175 760 1127 c 2
 760 238 l 2
 760 211 769 210 796 210 c 2
 1002 210 l 2
 1035 210 1040 204 1040 170 c 2
 1040 52 l 2
 1040 6 1035 0 990 0 c 2
 108 0 l 2
 74 0 70 7 70 42 c 2
EndSplineSet
Substitution2: "'tnum' Tabular Numbers lookup 6 subtable" one.oldtab
EndChar

StartChar: two.oldstyle
Encoding: 65539 -1 116
Width: 1313
Flags: MW
LayerCount: 2
Fore
SplineSet
1243 380 m 0
 1234 104 1076 -60 903 -60 c 0
 689 -60 590 60 424 60 c 0
 359 60 308 35 280 -5 c 0
 262 -30 259 -40 214 -40 c 2
 108 -40 l 2
 75 -40 72 -26 74 3 c 0
 92 275 278 477 547 608 c 0
 668 667 717 742 717 840 c 0
 717 948 645 996 547 996 c 0
 469 996 433 968 433 944 c 0
 433 918 497 888 497 816 c 0
 497 682 387 600 283 600 c 0
 145 600 55 686 55 802 c 0
 55 1006 353 1140 627 1140 c 0
 939 1140 1139 1050 1139 870 c 0
 1139 669 878 581 557 460 c 0
 394 399 312 309 266 207 c 0
 248 167 240 142 250 139 c 0
 256 137 265 165 292 197 c 0
 359 275 476 394 623 394 c 0
 773 394 823 326 945 326 c 0
 1019 326 1059 350 1071 387 c 0
 1078 408 1082 414 1108 414 c 2
 1210 414 l 2
 1237 414 1244 408 1243 380 c 0
EndSplineSet
Substitution2: "'tnum' Tabular Numbers lookup 6 subtable" two.oldtab
EndChar

StartChar: three.oldstyle
Encoding: 65540 -1 117
Width: 1235
Flags: MW
LayerCount: 2
Fore
SplineSet
30 -112 m 0
 30 24 120 130 268 130 c 0
 402 130 472 58 472 -36 c 0
 472 -168 347 -168 347 -214 c 0
 347 -268 444 -296 522 -296 c 0
 670 -296 788 -248 788 -40 c 0
 788 96 699 195 516 210 c 0
 478 213 464 203 464 247 c 2
 464 378 l 2
 464 417 473 409 507 412 c 0
 691 426 748 535 748 682 c 0
 748 830 650 886 522 886 c 0
 464 886 398 870 398 836 c 0
 398 790 532 800 532 658 c 0
 532 574 452 492 328 492 c 0
 210 492 90 568 90 714 c 0
 90 908 288 1060 602 1060 c 0
 934 1060 1150 912 1150 682 c 0
 1150 538 1065 408 844 338 c 0
 800 324 770 329 770 315 c 0
 770 298 789 306 844 292 c 0
 1082 229 1190 101 1190 -60 c 0
 1190 -360 884 -480 582 -480 c 0
 228 -480 30 -306 30 -112 c 0
EndSplineSet
Substitution2: "'tnum' Tabular Numbers lookup 6 subtable" three.oldtab
EndChar

StartChar: four.oldstyle
Encoding: 65541 -1 118
Width: 1310
Flags: MW
LayerCount: 2
Fore
SplineSet
1260 -296 m 2
 1260 -424 l 2
 1260 -457 1252 -460 1218 -460 c 2
 486 -460 l 2
 439 -460 430 -459 430 -412 c 2
 430 -295 l 2
 430 -259 437 -250 474 -250 c 2
 623 -250 l 2
 667 -250 670 -243 670 -198 c 2
 670 -104 l 2
 670 -50 670 -50 616 -50 c 2
 118 -50 l 2
 75 -50 75 -42 61 -16 c 2
 30 42 l 2
 18 63 25 72 36 94 c 0
 193 408 605 588 708 984 c 0
 719 1026 720 1040 776 1040 c 2
 1046 1040 l 2
 1099 1040 1108 1035 1100 988 c 0
 1036 602 557 451 361 232 c 0
 334 202 309 160 387 160 c 2
 632 160 l 2
 667 160 670 168 670 204 c 2
 670 250 l 2
 670 297 681 294 712 311 c 0
 778 346 867 394 908 480 c 0
 917 500 923 510 954 510 c 2
 1020 510 l 2
 1051 510 1060 509 1060 478 c 2
 1060 218 l 2
 1060 185 1069 160 1106 160 c 2
 1254 160 l 2
 1286 160 1290 152 1290 122 c 2
 1290 6 l 2
 1290 -40 1290 -50 1244 -50 c 2
 1114 -50 l 2
 1073 -50 1060 -54 1060 -98 c 2
 1060 -198 l 2
 1060 -243 1065 -250 1112 -250 c 2
 1216 -250 l 2
 1255 -250 1260 -256 1260 -296 c 2
EndSplineSet
Substitution2: "'tnum' Tabular Numbers lookup 6 subtable" four.oldtab
EndChar

StartChar: five.oldstyle
Encoding: 65542 -1 119
Width: 1300
Flags: MW
LayerCount: 2
Fore
SplineSet
65 -142 m 0
 65 4 165 90 293 90 c 0
 417 90 497 8 497 -76 c 0
 497 -168 423 -208 423 -254 c 0
 423 -298 479 -316 557 -316 c 0
 715 -316 843 -158 843 50 c 0
 843 268 725 352 607 352 c 0
 528 352 426 303 340 195 c 0
 324 174 313 164 274 164 c 2
 210 164 l 2
 156 164 161 182 166 226 c 2
 258 1000 l 2
 262 1038 272 1040 314 1040 c 2
 679 1040 l 2
 880 1040 942 1008 1008 1083 c 0
 1021 1098 1031 1104 1062 1104 c 2
 1167 1104 l 2
 1193 1104 1204 1097 1199 1074 c 2
 1191 1040 l 2
 1155 876 1119 660 645 660 c 2
 420 660 l 2
 382 660 378 651 373 618 c 2
 353 470 l 2
 347 432 331 390 339 386 c 0
 354 377 362 412 394 436 c 0
 470 492 580 540 721 540 c 0
 1063 540 1245 320 1245 40 c 0
 1245 -300 979 -480 597 -480 c 0
 293 -480 65 -346 65 -142 c 0
EndSplineSet
Substitution2: "'tnum' Tabular Numbers lookup 6 subtable" five.oldtab
EndChar

StartChar: seven.oldstyle
Encoding: 65543 -1 120
Width: 1303
Flags: MW
LayerCount: 2
Fore
SplineSet
65 522 m 0
 75 887 284 1060 485 1060 c 0
 679 1060 799 940 965 940 c 0
 1033 940 1066 967 1086 1011 c 0
 1094 1029 1097 1040 1125 1040 c 2
 1254 1040 l 2
 1289 1040 1295 1033 1290 1000 c 0
 1267 845 1076 533 891 296 c 0
 769 139 713 72 713 4 c 0
 713 -92 889 -92 889 -244 c 0
 889 -358 819 -480 661 -480 c 0
 513 -480 399 -386 399 -208 c 0
 399 -30 501 104 663 302 c 0
 763 424 833 505 929 640 c 0
 958 681 983 716 973 726 c 0
 958 741 934 699 905 676 c 0
 858 638 779 606 725 606 c 0
 605 606 545 674 443 674 c 0
 356 674 251 622 241 520 c 0
 239 497 246 486 218 486 c 2
 102 486 l 2
 72 486 64 494 65 522 c 0
EndSplineSet
Substitution2: "'tnum' Tabular Numbers lookup 6 subtable" seven.oldtab
EndChar

StartChar: nine.oldstyle
Encoding: 65544 -1 121
Width: 1330
Flags: MW
LayerCount: 2
Fore
SplineSet
504 -272 m 0
 504 -298 524 -326 592 -326 c 0
 710 -326 826 -157 846 176 c 0
 848 211 853 225 846 229 c 0
 837 234 833 218 813 198 c 0
 742 126 628 80 498 80 c 0
 276 80 60 230 60 540 c 0
 60 910 350 1060 652 1060 c 0
 974 1060 1250 870 1250 300 c 0
 1250 -180 974 -480 602 -480 c 0
 298 -480 110 -346 110 -182 c 0
 110 -46 189 50 328 50 c 0
 462 50 552 -22 552 -136 c 0
 552 -208 504 -246 504 -272 c 0
460 570 m 0
 460 382 544 318 652 318 c 0
 758 318 850 420 850 580 c 0
 850 738 780 830 652 830 c 0
 534 830 460 748 460 570 c 0
EndSplineSet
Substitution2: "'tnum' Tabular Numbers lookup 6 subtable" nine.oldtab
EndChar

StartChar: zero.oldtab
Encoding: 65545 -1 122
Width: 1400
Flags: MW
LayerCount: 2
Fore
SplineSet
140 520 m 0
 140 886 394 1060 700 1060 c 0
 1016 1060 1260 886 1260 520 c 0
 1260 154 976 -20 700 -20 c 0
 394 -20 140 154 140 520 c 0
560 520 m 0
 560 276 602 180 700 180 c 0
 788 180 840 276 840 520 c 0
 840 764 788 860 700 860 c 0
 602 860 560 764 560 520 c 0
EndSplineSet
EndChar

StartChar: one.oldtab
Encoding: 65546 -1 123
Width: 1400
Flags: MW
LayerCount: 2
Fore
SplineSet
235 42 m 2
 235 174 l 2
 235 206 242 210 275 210 c 2
 493 210 l 2
 528 210 535 213 535 247 c 2
 535 687 l 2
 535 719 526 720 493 720 c 2
 299 720 l 2
 274 720 269 726 269 753 c 2
 269 895 l 2
 269 929 279 930 313 930 c 0
 503 931 627 946 720 1146 c 0
 730 1167 737 1180 771 1180 c 2
 873 1180 l 2
 919 1180 925 1175 925 1127 c 2
 925 238 l 2
 925 211 934 210 961 210 c 2
 1167 210 l 2
 1200 210 1205 204 1205 170 c 2
 1205 52 l 2
 1205 6 1200 0 1155 0 c 2
 273 0 l 2
 239 0 235 7 235 42 c 2
EndSplineSet
EndChar

StartChar: two.oldtab
Encoding: 65547 -1 124
Width: 1400
Flags: MW
LayerCount: 2
Fore
SplineSet
1287 380 m 0
 1278 104 1120 -60 947 -60 c 0
 733 -60 634 60 468 60 c 0
 403 60 352 35 324 -5 c 0
 306 -30 303 -40 258 -40 c 2
 152 -40 l 2
 119 -40 116 -26 118 3 c 0
 136 275 322 477 591 608 c 0
 712 667 761 742 761 840 c 0
 761 948 689 996 591 996 c 0
 513 996 477 968 477 944 c 0
 477 918 541 888 541 816 c 0
 541 682 431 600 327 600 c 0
 189 600 99 686 99 802 c 0
 99 1006 397 1140 671 1140 c 0
 983 1140 1183 1050 1183 870 c 0
 1183 669 922 581 601 460 c 0
 438 399 356 309 310 207 c 0
 292 167 284 142 294 139 c 0
 300 137 309 165 336 197 c 0
 403 275 520 394 667 394 c 0
 817 394 867 326 989 326 c 0
 1063 326 1103 350 1115 387 c 0
 1122 408 1126 414 1152 414 c 2
 1254 414 l 2
 1281 414 1288 408 1287 380 c 0
EndSplineSet
EndChar

StartChar: three.oldtab
Encoding: 65548 -1 125
Width: 1400
Flags: MW
LayerCount: 2
Fore
SplineSet
112 -112 m 0
 112 24 202 130 350 130 c 0
 484 130 554 58 554 -36 c 0
 554 -168 429 -168 429 -214 c 0
 429 -268 526 -296 604 -296 c 0
 752 -296 870 -248 870 -40 c 0
 870 96 781 195 598 210 c 0
 560 213 546 203 546 247 c 2
 546 378 l 2
 546 417 555 409 589 412 c 0
 773 426 830 535 830 682 c 0
 830 830 732 886 604 886 c 0
 546 886 480 870 480 836 c 0
 480 790 614 800 614 658 c 0
 614 574 534 492 410 492 c 0
 292 492 172 568 172 714 c 0
 172 908 370 1060 684 1060 c 0
 1016 1060 1232 912 1232 682 c 0
 1232 538 1147 408 926 338 c 0
 882 324 852 329 852 315 c 0
 852 298 871 306 926 292 c 0
 1164 229 1272 101 1272 -60 c 0
 1272 -360 966 -480 664 -480 c 0
 310 -480 112 -306 112 -112 c 0
EndSplineSet
EndChar

StartChar: four.oldtab
Encoding: 65549 -1 126
Width: 1400
Flags: MW
LayerCount: 2
Fore
SplineSet
1305 -296 m 2
 1305 -424 l 2
 1305 -457 1297 -460 1263 -460 c 2
 531 -460 l 2
 484 -460 475 -459 475 -412 c 2
 475 -295 l 2
 475 -259 482 -250 519 -250 c 2
 668 -250 l 2
 712 -250 715 -243 715 -198 c 2
 715 -104 l 2
 715 -50 715 -50 661 -50 c 2
 163 -50 l 2
 120 -50 120 -42 106 -16 c 2
 75 42 l 2
 63 63 70 72 81 94 c 0
 238 408 650 588 753 984 c 0
 764 1026 765 1040 821 1040 c 2
 1091 1040 l 2
 1144 1040 1153 1035 1145 988 c 0
 1081 602 602 451 406 232 c 0
 379 202 354 160 432 160 c 2
 677 160 l 2
 712 160 715 168 715 204 c 2
 715 250 l 2
 715 297 726 294 757 311 c 0
 823 346 912 394 953 480 c 0
 962 500 968 510 999 510 c 2
 1065 510 l 2
 1096 510 1105 509 1105 478 c 2
 1105 218 l 2
 1105 185 1114 160 1151 160 c 2
 1299 160 l 2
 1331 160 1335 152 1335 122 c 2
 1335 6 l 2
 1335 -40 1335 -50 1289 -50 c 2
 1159 -50 l 2
 1118 -50 1105 -54 1105 -98 c 2
 1105 -198 l 2
 1105 -243 1110 -250 1157 -250 c 2
 1261 -250 l 2
 1300 -250 1305 -256 1305 -296 c 2
EndSplineSet
EndChar

StartChar: five.oldtab
Encoding: 65550 -1 127
Width: 1400
Flags: MW
LayerCount: 2
Fore
SplineSet
115 -142 m 0
 115 4 215 90 343 90 c 0
 467 90 547 8 547 -76 c 0
 547 -168 473 -208 473 -254 c 0
 473 -298 529 -316 607 -316 c 0
 765 -316 893 -158 893 50 c 0
 893 268 775 352 657 352 c 0
 578 352 476 303 390 195 c 0
 374 174 363 164 324 164 c 2
 260 164 l 2
 206 164 211 182 216 226 c 2
 308 1000 l 2
 312 1038 322 1040 364 1040 c 2
 729 1040 l 2
 930 1040 992 1008 1058 1083 c 0
 1071 1098 1081 1104 1112 1104 c 2
 1217 1104 l 2
 1243 1104 1254 1097 1249 1074 c 2
 1241 1040 l 2
 1205 876 1169 660 695 660 c 2
 470 660 l 2
 432 660 428 651 423 618 c 2
 403 470 l 2
 397 432 381 390 389 386 c 0
 404 377 412 412 444 436 c 0
 520 492 630 540 771 540 c 0
 1113 540 1295 320 1295 40 c 0
 1295 -300 1029 -480 647 -480 c 0
 343 -480 115 -346 115 -142 c 0
EndSplineSet
EndChar

StartChar: seven.oldtab
Encoding: 65551 -1 128
Width: 1400
Flags: MW
LayerCount: 2
Fore
SplineSet
93 522 m 0
 103 887 312 1060 513 1060 c 0
 707 1060 827 940 993 940 c 0
 1061 940 1094 967 1114 1011 c 0
 1122 1029 1125 1040 1153 1040 c 2
 1282 1040 l 2
 1317 1040 1323 1033 1318 1000 c 0
 1295 845 1104 533 919 296 c 0
 797 139 741 72 741 4 c 0
 741 -92 917 -92 917 -244 c 0
 917 -358 847 -480 689 -480 c 0
 541 -480 427 -386 427 -208 c 0
 427 -30 529 104 691 302 c 0
 791 424 861 505 957 640 c 0
 986 681 1011 716 1001 726 c 0
 986 741 962 699 933 676 c 0
 886 638 807 606 753 606 c 0
 633 606 573 674 471 674 c 0
 384 674 279 622 269 520 c 0
 267 497 274 486 246 486 c 2
 130 486 l 2
 100 486 92 494 93 522 c 0
EndSplineSet
EndChar

StartChar: nine.oldtab
Encoding: 65552 -1 129
Width: 1400
Flags: MW
LayerCount: 2
Fore
SplineSet
539 -272 m 0
 539 -298 559 -326 627 -326 c 0
 745 -326 861 -157 881 176 c 0
 883 211 888 225 881 229 c 0
 872 234 868 218 848 198 c 0
 777 126 663 80 533 80 c 0
 311 80 95 230 95 540 c 0
 95 910 385 1060 687 1060 c 0
 1009 1060 1285 870 1285 300 c 0
 1285 -180 1009 -480 637 -480 c 0
 333 -480 145 -346 145 -182 c 0
 145 -46 224 50 363 50 c 0
 497 50 587 -22 587 -136 c 0
 587 -208 539 -246 539 -272 c 0
495 570 m 0
 495 382 579 318 687 318 c 0
 793 318 885 420 885 580 c 0
 885 738 815 830 687 830 c 0
 569 830 495 748 495 570 c 0
EndSplineSet
EndChar

StartChar: uniFF10
Encoding: 65296 65296 130
Width: 1400
Flags: MW
LayerCount: 2
Fore
SplineSet
90 750 m 0
 90 1316 354 1520 700 1520 c 0
 1066 1520 1310 1316 1310 750 c 0
 1310 184 1026 -20 700 -20 c 0
 354 -20 90 184 90 750 c 0
510 750 m 0
 510 306 572 190 700 190 c 0
 838 190 890 306 890 750 c 0
 890 1194 838 1310 700 1310 c 0
 572 1310 510 1194 510 750 c 0
EndSplineSet
EndChar

StartChar: uniFF19
Encoding: 65305 65305 139
Width: 1400
Flags: MW
LayerCount: 2
Fore
SplineSet
539 188 m 0
 539 162 559 134 627 134 c 0
 745 134 861 303 881 636 c 0
 883 671 888 685 881 689 c 0
 872 694 868 678 848 658 c 0
 777 586 663 540 533 540 c 0
 311 540 95 690 95 1000 c 0
 95 1370 385 1520 687 1520 c 0
 1009 1520 1285 1330 1285 760 c 0
 1285 280 1009 -20 637 -20 c 0
 333 -20 145 114 145 278 c 0
 145 414 224 510 363 510 c 0
 497 510 587 438 587 324 c 0
 587 252 539 214 539 188 c 0
495 1030 m 0
 495 842 579 778 687 778 c 0
 793 778 885 880 885 1040 c 0
 885 1198 815 1290 687 1290 c 0
 569 1290 495 1208 495 1030 c 0
EndSplineSet
EndChar

StartChar: dagger
Encoding: 8224 8224 152
Width: 1186
Flags: MW
LayerCount: 2
Fore
SplineSet
487 1088 m 0
 480 1195 413 1179 395 1311 c 0
 393 1325 393 1336 393 1348 c 0
 393 1446 484 1520 593 1520 c 0
 702 1520 793 1446 793 1348 c 0
 793 1336 793 1325 791 1311 c 0
 773 1182 709 1195 700 1094 c 0
 699 1078 699 1072 714 1075 c 0
 789 1088 809 1157 927 1174 c 0
 941 1176 952 1176 964 1176 c 0
 1062 1176 1136 1085 1136 976 c 0
 1136 867 1062 776 964 776 c 0
 952 776 941 776 927 778 c 0
 815 794 791 857 724 875 c 0
 708 879 697 877 698 863 c 0
 706 711 757 611 813 528 c 0
 824 511 830 498 821 479 c 0
 746 315 690 -6 688 -478 c 0
 688 -499 681 -500 660 -500 c 2
 528 -500 l 2
 506 -500 498 -497 498 -476 c 0
 496 -14 442 303 369 469 c 0
 357 497 360 509 376 533 c 0
 430 615 479 711 487 858 c 0
 488 876 482 880 462 875 c 0
 395 857 371 794 259 778 c 0
 245 776 234 776 222 776 c 0
 114 776 50 867 50 976 c 0
 50 1085 114 1176 222 1176 c 0
 234 1176 245 1176 259 1174 c 0
 379 1157 398 1085 477 1074 c 0
 487 1073 488 1077 487 1088 c 0
EndSplineSet
EndChar

StartChar: daggerdbl
Encoding: 8225 8225 153
Width: 1186
Flags: MW
LayerCount: 2
Fore
SplineSet
486 1085 m 0
 478 1182 413 1190 395 1321 c 0
 393 1335 393 1346 393 1358 c 0
 393 1436 484 1520 593 1520 c 0
 702 1520 793 1446 793 1368 c 0
 793 1356 793 1345 791 1331 c 0
 773 1205 712 1185 701 1096 c 0
 698 1076 698 1072 718 1076 c 0
 790 1091 812 1157 927 1174 c 0
 941 1176 952 1176 964 1176 c 0
 1062 1176 1136 1085 1136 976 c 0
 1136 867 1062 776 964 776 c 0
 952 776 941 776 927 778 c 0
 818 794 793 854 729 873 c 0
 704 880 697 882 699 852 c 0
 706 710 756 615 809 535 c 0
 825 511 831 499 815 474 c 0
 759 391 705 294 699 143 c 0
 698 123 697 119 716 123 c 0
 790 137 811 205 927 222 c 0
 941 224 952 224 964 224 c 0
 1062 224 1136 133 1136 24 c 0
 1136 -95 1062 -176 964 -176 c 0
 952 -176 941 -176 927 -174 c 0
 817 -158 792 -97 728 -78 c 0
 711 -73 697 -67 700 -91 c 0
 710 -183 773 -193 791 -321 c 0
 793 -335 793 -346 793 -358 c 0
 793 -436 712 -520 593 -520 c 0
 474 -520 393 -436 393 -358 c 0
 393 -346 393 -335 395 -321 c 0
 413 -194 476 -183 486 -93 c 0
 489 -70 481 -72 462 -77 c 0
 395 -94 371 -158 259 -174 c 0
 245 -176 234 -176 222 -176 c 0
 124 -176 50 -95 50 24 c 0
 50 133 124 224 222 224 c 0
 234 224 245 224 259 222 c 0
 375 205 396 137 470 123 c 0
 488 120 488 122 487 141 c 0
 481 286 432 382 379 463 c 0
 358 495 358 505 379 537 c 0
 431 617 480 711 487 853 c 0
 488 884 480 880 456 873 c 0
 393 853 367 794 259 778 c 0
 245 776 234 776 222 776 c 0
 114 776 50 867 50 976 c 0
 50 1085 114 1176 222 1176 c 0
 234 1176 245 1176 259 1174 c 0
 375 1157 396 1089 470 1075 c 0
 482 1073 487 1070 486 1085 c 0
EndSplineSet
EndChar

StartChar: exclamdown
Encoding: 161 161 159
Width: 798
Flags: MW
LayerCount: 2
Fore
SplineSet
638 840 m 0
 638 708 530 600 398 600 c 0
 266 600 158 708 158 840 c 0
 158 972 266 1080 398 1080 c 0
 530 1080 638 972 638 840 c 0
142 -208 m 0
 182 128 300 161 311 424 c 0
 312 450 314 464 345 464 c 2
 445 464 l 2
 486 464 487 452 489 416 c 0
 502 161 618 124 658 -208 c 0
 660 -222 658 -234 658 -246 c 0
 658 -418 534 -496 400 -496 c 0
 266 -496 140 -418 140 -246 c 0
 140 -234 140 -222 142 -208 c 0
EndSplineSet
EndChar

StartChar: cent
Encoding: 162 162 160
Width: 1250
Flags: MW
LayerCount: 2
Fore
SplineSet
762 1230 m 2
 822 1230 l 2
 863 1230 858 1215 851 1186 c 2
 551 -136 l 2
 544 -163 547 -170 512 -170 c 2
 436 -170 l 2
 403 -170 392 -168 399 -142 c 2
 702 1190 l 2
 711 1224 718 1230 762 1230 c 2
EndSplineSet
Refer: 40 99 N 1 0 0 1 0 0 2
EndChar

StartChar: sterling
Encoding: 163 163 161
Width: 1415
Flags: MW
LayerCount: 2
Fore
SplineSet
111 15 m 0
 115 259 368 403 368 522 c 0
 368 563 361 560 321 560 c 2
 59 560 l 2
 21 560 0 549 -0 591 c 2
 -0 747 l 2
 0 787 10 790 47 790 c 2
 191 790 l 2
 282 790 250 804 219 851 c 0
 169 925 126 1003 126 1100 c 0
 126 1380 396 1550 798 1550 c 0
 1162 1550 1330 1346 1330 1162 c 0
 1330 1006 1220 910 1102 910 c 0
 988 910 870 992 870 1126 c 0
 870 1218 944 1248 944 1294 c 0
 944 1348 886 1366 798 1366 c 0
 640 1366 588 1268 588 1120 c 0
 588 1019 627 935 666 857 c 0
 692 805 689 790 769 790 c 2
 957 790 l 2
 1014 790 1020 785 1020 729 c 2
 1020 635 l 2
 1020 566 1015 560 943 560 c 2
 795 560 l 2
 732 560 734 557 715 515 c 0
 664 400 537 350 431 271 c 0
 385 237 361 202 372 193 c 0
 388 180 495 276 568 320 c 0
 660 376 738 414 824 414 c 0
 944 414 964 326 1056 326 c 0
 1106 326 1156 351 1178 407 c 0
 1194 448 1174 474 1235 474 c 2
 1327 474 l 2
 1377 474 1365 449 1362 405 c 0
 1344 143 1221 -80 984 -80 c 0
 750 -80 680 50 534 50 c 0
 468 50 353 30 299 -8 c 0
 274 -26 283 -40 243 -40 c 2
 131 -40 l 2
 104 -40 111 -7 111 15 c 0
EndSplineSet
EndChar

StartChar: yen
Encoding: 165 165 162
Width: 1770
Flags: MW
LayerCount: 2
Fore
SplineSet
347 870 m 2
 1410 870 l 2
 1464 870 1470 863 1470 831 c 2
 1470 681 l 2
 1470 646 1468 640 1407 640 c 2
 361 640 l 2
 298 640 288 645 288 680 c 2
 288 829 l 2
 288 861 291 870 347 870 c 2
347 580 m 2
 1409 580 l 2
 1463 580 1468 573 1468 541 c 2
 1468 391 l 2
 1468 356 1467 350 1406 350 c 2
 361 350 l 2
 299 350 288 355 288 390 c 2
 288 539 l 2
 288 571 291 580 347 580 c 2
EndSplineSet
Refer: 36 89 N 1 0 0 1 0 0 2
EndChar

StartChar: onequarter
Encoding: 188 188 163
Width: 2000
Flags: MW
LayerCount: 2
Fore
SplineSet
1522 1440 m 1
 1650 1440 l 1
 728 -60 l 1
 590 -60 l 1
 1522 1440 l 1
EndSplineSet
Refer: 6 52 N 0.6 0 0 0.6 1070 4 2
Refer: 3 49 N 0.6 0 0 0.6 214 632 2
EndChar

StartChar: onehalf
Encoding: 189 189 164
Width: 2000
Flags: MW
LayerCount: 2
Fore
SplineSet
1492 1450 m 1
 1620 1450 l 1
 698 -50 l 1
 560 -50 l 1
 1492 1450 l 1
EndSplineSet
Refer: 4 50 N 0.6 0 0 0.6 1152 -16 2
Refer: 3 49 N 0.6 0 0 0.6 214 622 2
EndChar

StartChar: threequarters
Encoding: 190 190 165
Width: 2000
Flags: MW
LayerCount: 2
Fore
SplineSet
1432 1400 m 1
 1560 1400 l 1
 638 -100 l 1
 500 -100 l 1
 1432 1400 l 1
EndSplineSet
Refer: 6 52 N 0.6 0 0 0.6 1070 -36 2
Refer: 5 51 N 0.6 0 0 0.6 130 614 2
EndChar

StartChar: questiondown
Encoding: 191 191 166
Width: 1170
Flags: MW
LayerCount: 2
Fore
SplineSet
812 -294 m 0
 812 -254 670 -272 670 -110 c 0
 670 14 796 100 906 100 c 0
 1026 100 1140 14 1140 -142 c 0
 1140 -306 942 -480 608 -480 c 0
 286 -480 30 -350 30 -60 c 0
 30 200 245 350 504 422 c 0
 531 429 536 427 539 460 c 2
 542 504 l 2
 545 540 562 542 598 542 c 2
 664 542 l 2
 730 542 737 536 745 480 c 2
 759 388 l 2
 768 328 744 338 700 318 c 0
 527 241 432 84 432 -100 c 0
 432 -248 490 -356 648 -356 c 0
 756 -356 812 -318 812 -294 c 0
832 840 m 0
 832 708 724 600 592 600 c 0
 460 600 352 708 352 840 c 0
 352 972 460 1080 592 1080 c 0
 724 1080 832 972 832 840 c 0
EndSplineSet
EndChar

StartChar: section
Encoding: 167 167 167
Width: 1188
Flags: MW
LayerCount: 2
Fore
SplineSet
754 1316 m 0
 754 1368 690 1388 586 1388 c 0
 480 1388 450 1342 450 1268 c 0
 450 1036 1136 1076 1136 750 c 0
 1136 662 1072 581 987 514 c 1
 1074 463 1136 393 1136 284 c 0
 1136 36 776 -40 586 -40 c 0
 370 -40 18 4 18 256 c 0
 18 412 148 478 226 478 c 0
 320 478 420 386 420 292 c 0
 420 220 356 210 356 164 c 0
 356 112 460 112 564 112 c 0
 690 112 740 138 740 232 c 0
 740 464 54 424 54 750 c 0
 54 856 146 913 237 965 c 1
 133 1018 54 1091 54 1216 c 0
 54 1424 374 1540 564 1540 c 0
 820 1540 1112 1456 1112 1224 c 0
 1112 1088 982 1032 904 1032 c 0
 830 1032 710 1094 710 1188 c 0
 710 1260 754 1270 754 1316 c 0
454 880 m 1
 449 865 446 849 446 834 c 0
 446 722 572 671 717 622 c 1
 722 636 724 651 724 666 c 0
 724 780 597 830 454 880 c 1
EndSplineSet
EndChar

StartChar: uni00B2
Encoding: 178 178 168
Width: 859
Flags: MW
LayerCount: 2
Fore
SplineSet
819 1220 m 0
 812 999 723 902 562 902 c 0
 422 902 344 974 256 974 c 0
 222 974 200 958 186 934 c 0
 176 918 180 914 153 914 c 2
 68 914 l 2
 45 914 41 916 41 939 c 0
 42 1106 123 1260 288 1375 c 0
 377 1437 528 1497 528 1604 c 0
 528 1687 497 1722 372 1722 c 0
 295 1722 233 1692 233 1666 c 0
 233 1644 330 1651 330 1548 c 0
 330 1468 267 1424 199 1424 c 0
 128 1424 59 1469 59 1563 c 0
 59 1727 214 1826 426 1826 c 0
 643 1826 782 1754 782 1598 c 0
 782 1430 613 1389 432 1310 c 0
 331 1266 273 1224 235 1179 c 0
 207 1146 181 1095 194 1095 c 0
 208 1095 208 1127 245 1162 c 0
 273 1188 318 1195 358 1195 c 0
 460 1195 508 1143 599 1143 c 0
 663 1143 694 1173 702 1220 c 0
 706 1245 702 1246 731 1246 c 2
 795 1246 l 2
 821 1246 819 1245 819 1220 c 0
EndSplineSet
EndChar

StartChar: uni00B3
Encoding: 179 179 169
Width: 776
Flags: MW
LayerCount: 2
Fore
SplineSet
40 1123 m 0
 40 1205 94 1268 183 1268 c 0
 263 1268 305 1224 305 1168 c 0
 305 1089 230 1090 230 1062 c 0
 230 1030 288 1012 335 1012 c 0
 424 1012 495 1041 495 1166 c 0
 495 1248 442 1307 332 1316 c 0
 309 1318 300 1312 300 1338 c 2
 300 1417 l 2
 300 1440 306 1435 326 1437 c 0
 436 1445 471 1511 471 1599 c 0
 471 1688 412 1722 335 1722 c 0
 300 1722 261 1712 261 1692 c 0
 261 1664 341 1670 341 1585 c 0
 341 1535 293 1485 219 1485 c 0
 148 1485 76 1530 76 1618 c 0
 76 1734 195 1826 383 1826 c 0
 582 1826 712 1737 712 1599 c 0
 712 1513 661 1435 528 1393 c 0
 502 1385 484 1387 484 1379 c 0
 484 1369 495 1373 528 1365 c 0
 671 1327 736 1251 736 1154 c 0
 736 974 552 902 371 902 c 0
 159 902 40 1007 40 1123 c 0
EndSplineSet
EndChar

StartChar: ordfeminine
Encoding: 170 170 170
Width: 907
Flags: MW
LayerCount: 2
Fore
SplineSet
40 1112 m 0
 40 1249 187 1317 393 1317 c 2
 434 1317 l 2
 448 1317 449 1318 449 1332 c 2
 449 1404 l 2
 449 1466 410 1497 356 1497 c 0
 338 1497 324 1492 324 1485 c 0
 324 1471 345 1471 345 1418 c 0
 345 1359 284 1324 219 1324 c 0
 146 1324 88 1353 88 1418 c 0
 88 1552 265 1600 434 1600 c 0
 602 1600 701 1531 701 1380 c 2
 701 1127 l 2
 701 1103 715 1092 732 1092 c 0
 749 1092 765 1098 779 1124 c 0
 783 1131 787 1133 793 1128 c 1
 861 1086 l 2
 868 1082 869 1080 865 1072 c 0
 837 1019 777 952 668 952 c 0
 667 952 l 0
 582 952 534 970 498 1010 c 0
 478 1032 471 1032 458 1019 c 0
 418 980 353 952 250 952 c 0
 113 952 40 1005 40 1112 c 0
324 1136 m 0
 324 1104 340 1083 376 1083 c 0
 428 1083 449 1114 449 1193 c 2
 449 1214 l 2
 449 1224 447 1226 437 1226 c 2
 432 1226 l 2
 377 1226 324 1180 324 1136 c 0
EndSplineSet
EndChar

StartChar: uni00B9
Encoding: 185 185 171
Width: 740
Flags: MW
LayerCount: 2
Fore
SplineSet
40 951 m 2
 40 1012 l 2
 40 1037 46 1038 72 1038 c 2
 229 1038 l 2
 258 1038 262 1042 262 1070 c 2
 262 1556 l 2
 262 1580 257 1584 234 1584 c 2
 87 1584 l 2
 67 1584 60 1585 60 1607 c 2
 60 1679 l 2
 60 1711 80 1710 108 1711 c 0
 218 1713 313 1728 369 1833 c 0
 379 1852 383 1860 414 1860 c 2
 465 1860 l 2
 491 1860 496 1857 496 1832 c 2
 496 1072 l 2
 496 1040 502 1038 535 1038 c 2
 668 1038 l 2
 688 1038 700 1036 700 1014 c 2
 700 947 l 2
 700 918 698 912 669 912 c 2
 79 912 l 2
 44 912 40 915 40 951 c 2
EndSplineSet
EndChar

StartChar: ordmasculine
Encoding: 186 186 172
Width: 798
Flags: MW
LayerCount: 2
Fore
SplineSet
310 1286 m 0
 310 1161 328 1058 399 1058 c 0
 470 1058 488 1161 488 1262 c 0
 488 1387 470 1490 399 1490 c 0
 328 1490 310 1387 310 1286 c 0
40 1256 m 0
 40 1448 170 1610 399 1610 c 0
 628 1610 758 1454 758 1286 c 0
 758 1094 628 938 399 938 c 0
 170 938 40 1088 40 1256 c 0
EndSplineSet
EndChar

StartChar: degree
Encoding: 176 176 173
Width: 639
Flags: MW
LayerCount: 2
Fore
SplineSet
320 1120 m 256
 184 1120 80 1223 80 1359 c 256
 80 1495 184 1600 320 1600 c 256
 457 1600 561 1496 561 1359 c 256
 561 1223 456 1120 320 1120 c 256
320 1270 m 0
 374 1270 410 1306 410 1359 c 0
 410 1413 374 1450 320 1450 c 0
 267 1450 229 1413 229 1359 c 0
 229 1306 267 1270 320 1270 c 0
EndSplineSet
EndChar

StartChar: acute
Encoding: 180 180 174
Width: 790
Flags: MW
LayerCount: 2
Fore
SplineSet
535 1340 m 2
 151 1373 l 2
 89 1378 65 1377 61 1432 c 0
 55 1509 84 1512 148 1536 c 2
 515 1676 l 2
 631 1720 725 1628 725 1510 c 0
 725 1392 640 1331 535 1340 c 2
EndSplineSet
EndChar

StartChar: currency
Encoding: 164 164 175
Width: 1140
Flags: MW
LayerCount: 2
Fore
SplineSet
131 238 m 1
 38 331 l 1
 196 489 l 1
 127 573 112 653 112 770 c 256
 112 887 137 967 196 1051 c 1
 38 1209 l 1
 131 1302 l 1
 289 1144 l 1
 361 1196 441 1229 571 1229 c 256
 701 1229 779 1196 852 1145 c 1
 1009 1302 l 1
 1102 1209 l 1
 944 1051 l 1
 1003 967 1028 887 1028 770 c 0
 1028 654 1004 573 945 488 c 1
 1102 331 l 1
 1009 238 l 1
 852 395 l 1
 780 344 700 310 571 310 c 256
 441 310 360 344 288 395 c 1
 131 238 l 1
571 473 m 0
 754 473 858 591 858 770 c 256
 858 949 753 1067 571 1067 c 0
 388 1067 282 949 282 770 c 256
 282 591 389 473 571 473 c 0
EndSplineSet
EndChar

StartChar: copyright
Encoding: 169 169 176
Width: 1739
Flags: MW
LayerCount: 2
Fore
SplineSet
870 1520 m 256
 1314 1520 1641 1192 1641 750 c 256
 1641 306 1312 -20 870 -20 c 256
 426 -20 100 308 100 750 c 256
 100 1193 428 1520 870 1520 c 256
870 73 m 256
 1253 73 1546 349 1546 750 c 256
 1546 1151 1251 1427 870 1427 c 256
 487 1427 194 1151 194 750 c 256
 194 347 489 73 870 73 c 256
EndSplineSet
Refer: 14 67 N 0.6 0 0 0.6 324 290 2
EndChar

StartChar: registered
Encoding: 174 174 177
Width: 1739
Flags: MW
LayerCount: 2
Fore
SplineSet
870 1520 m 256
 1314 1520 1641 1192 1641 750 c 256
 1641 306 1312 -20 870 -20 c 256
 426 -20 100 308 100 750 c 256
 100 1193 428 1520 870 1520 c 256
870 73 m 256
 1253 73 1546 349 1546 750 c 256
 1546 1151 1251 1427 870 1427 c 256
 487 1427 194 1151 194 750 c 256
 194 347 489 73 870 73 c 256
EndSplineSet
Refer: 29 82 N 0.54 0 0 0.54 382 350 2
EndChar

StartChar: paragraph
Encoding: 182 182 178
Width: 1632
Flags: MW
LayerCount: 2
Fore
SplineSet
485 -270 m 2
 485 -146 l 2
 485 -97 486 -87 535 -87 c 2
 773 -87 l 2
 805 -87 815 -86 815 -54 c 2
 815 440 l 2
 815 475 806 479 773 479 c 2
 666 479 l 2
 409 479 126 642 126 989 c 0
 126 1336 408 1500 666 1500 c 2
 1509 1500 l 2
 1537 1500 1546 1496 1546 1466 c 2
 1546 1328 l 2
 1546 1290 1538 1287 1499 1287 c 2
 1409 1287 l 2
 1367 1287 1366 1278 1366 1236 c 2
 1366 -32 l 2
 1366 -66 1369 -87 1407 -87 c 2
 1511 -87 l 2
 1537 -87 1546 -88 1546 -114 c 2
 1546 -259 l 2
 1546 -293 1540 -300 1507 -300 c 2
 531 -300 l 2
 505 -300 485 -299 485 -270 c 2
1153 -44 m 2
 1153 1258 l 2
 1153 1286 1144 1287 1115 1287 c 2
 1071 1287 l 2
 1033 1287 1028 1281 1028 1242 c 2
 1028 -36 l 2
 1028 -69 1028 -87 1065 -87 c 2
 1101 -87 l 2
 1143 -87 1153 -86 1153 -44 c 2
EndSplineSet
EndChar

StartChar: brokenbar
Encoding: 166 166 180
Width: 479
Flags: MW
LayerCount: 2
Fore
SplineSet
150 818 m 1
 150 1560 l 1
 363 1560 l 1
 363 818 l 1
 150 818 l 1
150 -500 m 1
 150 332 l 1
 363 332 l 1
 363 -500 l 1
 150 -500 l 1
EndSplineSet
EndChar

StartChar: guillemotleft
Encoding: 171 171 181
Width: 1390
Flags: MW
LayerCount: 2
Fore
SplineSet
1002 775 m 1
 1350 380 l 1
 1270 270 l 1
 590 750 l 1
 590 800 l 1
 1270 1280 l 1
 1350 1170 l 1
 1002 775 l 1
442 775 m 1
 790 380 l 1
 710 270 l 1
 30 750 l 1
 30 800 l 1
 710 1280 l 1
 790 1170 l 1
 442 775 l 1
EndSplineSet
EndChar

StartChar: guillemotright
Encoding: 187 187 182
Width: 1390
Flags: MW
LayerCount: 2
Fore
SplineSet
388 775 m 1
 40 1170 l 1
 120 1280 l 1
 800 800 l 1
 800 750 l 1
 120 270 l 1
 40 380 l 1
 388 775 l 1
948 775 m 1
 600 1170 l 1
 680 1280 l 1
 1360 800 l 1
 1360 750 l 1
 680 270 l 1
 600 380 l 1
 948 775 l 1
EndSplineSet
EndChar

StartChar: plusminus
Encoding: 177 177 183
Width: 1059
Flags: MW
LayerCount: 2
Fore
SplineSet
423 361 m 1
 423 666 l 1
 120 666 l 1
 120 878 l 1
 423 878 l 1
 423 1180 l 1
 636 1180 l 1
 636 878 l 1
 939 878 l 1
 939 666 l 1
 636 666 l 1
 636 361 l 1
 423 361 l 1
121 -15 m 1
 121 197 l 1
 940 197 l 1
 940 -15 l 1
 121 -15 l 1
EndSplineSet
EndChar

StartChar: logicalnot
Encoding: 172 172 184
Width: 1051
Flags: MW
LayerCount: 2
Fore
SplineSet
739 406 m 1
 739 666 l 1
 120 666 l 1
 120 880 l 1
 932 880 l 1
 932 406 l 1
 739 406 l 1
EndSplineSet
EndChar

StartChar: mu
Encoding: 181 181 186
Width: 1545
Flags: MW
LayerCount: 2
Fore
SplineSet
422 847 m 1
 422 -182 l 2
 422 -353 626 -383 644 -375 c 0
 653 -371 591 -346 591 -252 c 0
 591 -157 679 -86 814 -86 c 0
 964 -86 1037 -158 1037 -280 c 0
 1037 -401 930 -520 670 -520 c 0
 388 -520 210 -409 210 -182 c 2
 210 847 l 1
 422 847 l 1
EndSplineSet
Refer: 58 117 N 1 0 0 1 0 0 2
EndChar

StartChar: gravecomb
Encoding: 768 768 188
Width: 0
Flags: MW
AnchorPoint: "Anchor-0" 571 1500 mark 0
LayerCount: 2
Fore
SplineSet
565 1619 m 2
 229 1797 l 2
 139 1845 112 1961 192 2060 c 256
 257 2140 418 2136 474 2066 c 2
 708 1777 l 2
 721 1764 722 1755 709 1741 c 2
 595 1625 l 2
 584 1613 580 1610 565 1619 c 2
EndSplineSet
EndChar

StartChar: acutecomb
Encoding: 769 769 189
Width: 0
Flags: MW
AnchorPoint: "Anchor-0" 429 1500 mark 0
LayerCount: 2
Fore
SplineSet
410 1625 m 2
 297 1741 l 2
 284 1755 285 1764 298 1777 c 2
 532 2066 l 2
 588 2136 749 2140 814 2060 c 256
 894 1961 867 1845 777 1797 c 2
 441 1619 l 2
 426 1610 421 1613 410 1625 c 2
EndSplineSet
EndChar

StartChar: uni0302
Encoding: 770 770 190
Width: 0
Flags: MW
AnchorPoint: "Anchor-0" 499 1500 mark 0
LayerCount: 2
Fore
SplineSet
242 1640 m 2
 173 1710 l 2
 158 1725 158 1727 170 1744 c 2
 358 2002 l 2
 369 2018 382 2019 411 2019 c 2
 596 2019 l 2
 622 2019 632 2016 642 2002 c 2
 834 1740 l 2
 844 1730 837 1721 826 1710 c 2
 752 1636 l 2
 737 1621 737 1623 720 1635 c 2
 525 1780 l 2
 507 1793 493 1794 475 1781 c 2
 278 1634 l 2
 263 1623 255 1627 242 1640 c 2
EndSplineSet
EndChar

StartChar: tildecomb
Encoding: 771 771 191
Width: 0
Flags: MW
AnchorPoint: "Anchor-0" 496 1500 mark 0
LayerCount: 2
Fore
SplineSet
666 1630 m 0
 582 1630 528 1668 478 1699 c 0
 425 1732 387 1748 347 1748 c 0
 306 1748 289 1727 276 1714 c 0
 267 1705 259 1700 246 1700 c 2
 124 1700 l 2
 101 1700 101 1710 103 1730 c 0
 115 1857 220 2004 344 2004 c 0
 428 2004 470 1967 519 1935 c 0
 568 1903 620 1886 673 1886 c 0
 696 1886 709 1891 724 1912 c 0
 733 1925 732 1934 751 1934 c 2
 879 1934 l 2
 897 1934 899 1928 898 1912 c 0
 893 1764 803 1630 666 1630 c 0
EndSplineSet
EndChar

StartChar: uni0304
Encoding: 772 772 192
Width: 0
Flags: MW
AnchorPoint: "Anchor-0" 500 1500 mark 0
LayerCount: 2
Fore
SplineSet
260 1662 m 2
 260 1795 l 2
 260 1814 262 1822 280 1822 c 2
 706 1822 l 2
 731 1822 740 1818 740 1791 c 2
 740 1660 l 2
 740 1639 739 1630 718 1630 c 2
 295 1630 l 2
 269 1630 260 1634 260 1662 c 2
EndSplineSet
EndChar

StartChar: uni0306
Encoding: 774 774 193
Width: 0
Flags: MW
AnchorPoint: "Anchor-0" 499 1500 mark 0
LayerCount: 2
Fore
SplineSet
499 1580 m 256
 297 1580 224 1705 221 1919 c 0
 221 1936 227 1938 244 1938 c 2
 363 1938 l 2
 377 1938 379 1935 381 1922 c 0
 388 1882 402 1840 499 1840 c 256
 591 1840 606 1878 618 1909 c 0
 625 1927 624 1938 648 1938 c 2
 760 1938 l 2
 781 1938 781 1934 780 1914 c 0
 775 1704 698 1580 499 1580 c 256
EndSplineSet
EndChar

StartChar: uni0307
Encoding: 775 775 194
Width: 0
Flags: MW
AnchorPoint: "Anchor-0" 500 920 mark 0
LayerCount: 2
Fore
SplineSet
501 1269 m 0
 395 1269 309 1355 309 1461 c 0
 309 1567 395 1653 501 1653 c 0
 607 1653 693 1567 693 1461 c 0
 693 1355 607 1269 501 1269 c 0
EndSplineSet
EndChar

StartChar: uni0308
Encoding: 776 776 195
Width: 0
Flags: MW
AnchorPoint: "Anchor-0" 501 1500 mark 0
LayerCount: 2
Fore
SplineSet
780 1690 m 0
 674 1690 588 1776 588 1882 c 0
 588 1988 674 2074 780 2074 c 0
 886 2074 972 1988 972 1882 c 0
 972 1776 886 1690 780 1690 c 0
220 1690 m 0
 114 1690 28 1776 28 1882 c 0
 28 1988 114 2074 220 2074 c 0
 326 2074 412 1988 412 1882 c 0
 412 1776 326 1690 220 1690 c 0
EndSplineSet
EndChar

StartChar: uni030A
Encoding: 778 778 196
Width: 0
Flags: MW
AnchorPoint: "Anchor-0" 500 1500 mark 0
LayerCount: 2
Fore
SplineSet
500 1640 m 0
 349 1640 251 1758 251 1889 c 0
 251 2020 349 2140 500 2140 c 0
 652 2140 750 2021 750 1889 c 0
 750 1758 651 1640 500 1640 c 0
500 1804 m 256
 550 1804 582 1847 582 1891 c 256
 582 1944 550 1987 500 1987 c 256
 450 1987 419 1944 419 1891 c 256
 419 1847 450 1804 500 1804 c 256
EndSplineSet
EndChar

StartChar: uni030B
Encoding: 779 779 197
Width: 0
Flags: MW
AnchorPoint: "Anchor-0" 394 1500 mark 0
LayerCount: 2
Fore
SplineSet
774 1697 m 2
 639 1787 l 2
 623 1798 622 1807 632 1822 c 2
 801 2154 l 2
 842 2234 989 2288 1088 2201 c 256
 1205 2099 1174 2006 1096 1941 c 2
 804 1698 l 2
 791 1686 788 1687 774 1697 c 2
144 1697 m 2
 9 1787 l 2
 -7 1798 -8 1807 2 1822 c 2
 171 2154 l 2
 212 2234 372 2296 468 2206 c 256
 577 2105 544 2006 466 1941 c 2
 174 1698 l 2
 161 1686 158 1687 144 1697 c 2
EndSplineSet
EndChar

StartChar: uni030C
Encoding: 780 780 198
Width: 0
Flags: MW
AnchorPoint: "Anchor-0" 499 1500 mark 0
LayerCount: 2
Fore
SplineSet
358 1657 m 2
 166 1919 l 2
 156 1929 163 1938 174 1949 c 2
 248 2023 l 2
 263 2038 263 2036 280 2024 c 2
 475 1879 l 2
 493 1866 507 1865 525 1878 c 2
 722 2025 l 2
 737 2036 745 2032 758 2019 c 2
 827 1949 l 2
 842 1934 842 1932 830 1915 c 2
 642 1657 l 2
 631 1641 618 1640 589 1640 c 2
 404 1640 l 2
 378 1640 368 1643 358 1657 c 2
EndSplineSet
EndChar

StartChar: uni0311
Encoding: 785 785 199
Width: 0
Flags: MW
AnchorPoint: "Anchor-0" 499 1500 mark 0
LayerCount: 2
Fore
SplineSet
502 2008 m 256
 704 2008 777 1883 780 1669 c 0
 780 1652 774 1650 757 1650 c 2
 638 1650 l 2
 624 1650 622 1653 620 1666 c 0
 613 1706 599 1748 502 1748 c 256
 410 1748 395 1710 383 1679 c 0
 376 1661 377 1650 353 1650 c 2
 241 1650 l 2
 220 1650 220 1654 221 1674 c 0
 226 1884 303 2008 502 2008 c 256
EndSplineSet
EndChar

StartChar: uni0312
Encoding: 786 786 200
Width: 0
Flags: MW
AnchorPoint: "Anchor-0" 497 920 mark 0
LayerCount: 2
Fore
SplineSet
712 1259 m 0
 712 1142 610 1068 501 1068 c 0
 367 1068 277 1157 277 1330 c 0
 277 1554 506 1709 653 1728 c 0
 676 1731 683 1728 683 1702 c 2
 683 1607 l 2
 683 1591 677 1588 663 1586 c 0
 567 1576 470 1498 437 1443 c 0
 433 1437 439 1431 449 1435 c 0
 467 1443 496 1449 531 1449 c 0
 640 1449 712 1376 712 1259 c 0
EndSplineSet
EndChar

StartChar: dotbelowcomb
Encoding: 803 803 201
Width: 0
Flags: MW
AnchorPoint: "Anchor-1" 500 0 mark 0
AnchorPoint: "Anchor-2" 500 0 mark 0
LayerCount: 2
Fore
SplineSet
501 -553 m 0
 395 -553 309 -467 309 -361 c 0
 309 -255 395 -169 501 -169 c 0
 607 -169 693 -255 693 -361 c 0
 693 -467 607 -553 501 -553 c 0
EndSplineSet
EndChar

StartChar: uni0326
Encoding: 806 806 202
Width: 0
Flags: MW
AnchorPoint: "Anchor-1" 496 0 mark 0
AnchorPoint: "Anchor-2" 496 0 mark 0
LayerCount: 2
Fore
SplineSet
280 -351 m 0
 280 -234 382 -160 491 -160 c 0
 625 -160 715 -249 715 -422 c 0
 715 -646 486 -801 339 -820 c 0
 316 -823 309 -820 309 -794 c 2
 309 -699 l 2
 309 -683 315 -680 329 -678 c 0
 425 -668 522 -590 555 -535 c 0
 559 -529 553 -523 543 -527 c 0
 525 -535 496 -541 461 -541 c 0
 352 -541 280 -468 280 -351 c 0
EndSplineSet
EndChar

StartChar: uni0327
Encoding: 807 807 203
Width: 0
Flags: MW
AnchorPoint: "Anchor-1" 528 0 mark 0
AnchorPoint: "Anchor-2" 528 0 mark 0
LayerCount: 2
Fore
SplineSet
345 -520 m 2
 345 -423 l 2
 345 -401 356 -397 376 -396 c 0
 457 -390 541 -386 541 -336 c 0
 541 -276 405 -267 315 -259 c 0
 276 -255 275 -248 288 -230 c 2
 449 2 l 2
 455 11 459 12 475 12 c 2
 573 12 l 2
 603 12 611 8 601 -8 c 2
 552 -86 l 2
 535 -109 535 -117 571 -120 c 0
 700 -130 783 -198 783 -310 c 0
 783 -535 526 -545 370 -549 c 0
 349 -550 345 -542 345 -520 c 2
EndSplineSet
EndChar

StartChar: uni0328
Encoding: 808 808 204
Width: 0
Flags: MW
AnchorPoint: "Anchor-2" 511 47 mark 0
AnchorPoint: "Anchor-3" 511 47 mark 0
LayerCount: 2
Fore
SplineSet
444 -422 m 0
 281 -422 178 -355 178 -240 c 0
 178 -68 396 28 503 100 c 0
 525 115 571 88 581 80 c 0
 620 49 639 44 623 26 c 0
 577 -26 464 -89 464 -170 c 0
 464 -221 499 -235 549 -235 c 0
 598 -235 625 -216 645 -194 c 0
 657 -181 664 -179 674 -187 c 2
 738 -237 l 2
 751 -246 750 -250 742 -265 c 0
 702 -338 611 -422 444 -422 c 0
EndSplineSet
EndChar

StartChar: breve
Encoding: 728 728 206
Width: 1000
Flags: MW
AnchorPoint: "Anchor-0" 499 1500 mark 0
LayerCount: 2
Fore
SplineSet
499 1620 m 256
 297 1620 224 1745 221 1959 c 0
 221 1976 227 1978 244 1978 c 2
 363 1978 l 2
 377 1978 379 1975 381 1962 c 0
 388 1922 402 1880 499 1880 c 256
 591 1880 606 1918 618 1949 c 0
 625 1967 624 1978 648 1978 c 2
 760 1978 l 2
 781 1978 781 1974 780 1954 c 0
 775 1744 698 1620 499 1620 c 256
EndSplineSet
EndChar

StartChar: dotaccent
Encoding: 729 729 207
Width: 1000
Flags: MW
AnchorPoint: "Anchor-0" 497 1040 mark 0
LayerCount: 2
Fore
SplineSet
501 1269 m 4
 395 1269 309 1355 309 1461 c 4
 309 1567 395 1653 501 1653 c 4
 607 1653 693 1567 693 1461 c 4
 693 1355 607 1269 501 1269 c 4
EndSplineSet
EndChar

StartChar: ring
Encoding: 730 730 208
Width: 1000
Flags: MW
AnchorPoint: "Anchor-0" 500 1500 mark 0
LayerCount: 2
Fore
SplineSet
500 1640 m 0
 349 1640 251 1758 251 1889 c 0
 251 2020 349 2140 500 2140 c 0
 652 2140 750 2021 750 1889 c 0
 750 1758 651 1640 500 1640 c 0
500 1804 m 256
 550 1804 582 1847 582 1891 c 256
 582 1944 550 1987 500 1987 c 256
 450 1987 419 1944 419 1891 c 256
 419 1847 450 1804 500 1804 c 256
EndSplineSet
EndChar

StartChar: ogonek
Encoding: 731 731 209
Width: 1000
Flags: MW
AnchorPoint: "Anchor-2" 511 47 mark 0
AnchorPoint: "Anchor-3" 511 47 mark 0
LayerCount: 2
Fore
SplineSet
444 -422 m 0
 281 -422 178 -355 178 -240 c 0
 178 -68 396 28 503 100 c 0
 525 115 571 88 581 80 c 0
 620 49 639 44 623 26 c 0
 577 -26 464 -89 464 -170 c 0
 464 -221 499 -235 549 -235 c 0
 598 -235 625 -216 645 -194 c 0
 657 -181 664 -179 674 -187 c 2
 738 -237 l 2
 751 -246 750 -250 742 -265 c 0
 702 -338 611 -422 444 -422 c 0
EndSplineSet
EndChar

StartChar: tilde
Encoding: 732 732 210
Width: 1000
Flags: MW
AnchorPoint: "Anchor-0" 466 1500 mark 0
LayerCount: 2
Fore
SplineSet
666 1630 m 0
 582 1630 528 1668 478 1699 c 0
 425 1732 387 1748 347 1748 c 0
 306 1748 289 1727 276 1714 c 0
 267 1705 259 1700 246 1700 c 2
 124 1700 l 2
 101 1700 101 1710 103 1730 c 0
 115 1857 220 2004 344 2004 c 0
 428 2004 470 1967 519 1935 c 0
 568 1903 620 1886 673 1886 c 0
 696 1886 709 1891 724 1912 c 0
 733 1925 732 1934 751 1934 c 2
 879 1934 l 2
 897 1934 899 1928 898 1912 c 0
 893 1764 803 1630 666 1630 c 0
EndSplineSet
EndChar

StartChar: hungarumlaut
Encoding: 733 733 211
Width: 1000
Flags: MW
AnchorPoint: "Anchor-0" 424 1500 mark 0
LayerCount: 2
Fore
SplineSet
774 1697 m 2
 639 1787 l 2
 623 1798 622 1807 632 1822 c 2
 801 2154 l 2
 842 2234 989 2288 1088 2201 c 256
 1205 2099 1174 2006 1096 1941 c 2
 804 1698 l 2
 791 1686 788 1687 774 1697 c 2
144 1697 m 2
 9 1787 l 2
 -7 1798 -8 1807 2 1822 c 2
 171 2154 l 2
 212 2234 372 2296 468 2206 c 256
 577 2105 544 2006 466 1941 c 2
 174 1698 l 2
 161 1686 158 1687 144 1697 c 2
EndSplineSet
EndChar

StartChar: dieresis
Encoding: 168 168 212
Width: 1000
Flags: MW
AnchorPoint: "Anchor-0" 501 1500 mark 0
LayerCount: 2
Fore
SplineSet
780 1690 m 0
 674 1690 588 1776 588 1882 c 0
 588 1988 674 2074 780 2074 c 0
 886 2074 972 1988 972 1882 c 0
 972 1776 886 1690 780 1690 c 0
220 1690 m 0
 114 1690 28 1776 28 1882 c 0
 28 1988 114 2074 220 2074 c 0
 326 2074 412 1988 412 1882 c 0
 412 1776 326 1690 220 1690 c 0
EndSplineSet
EndChar

StartChar: cedilla
Encoding: 184 184 213
Width: 1000
Flags: MW
LayerCount: 2
Fore
SplineSet
345 -520 m 2
 345 -423 l 2
 345 -401 356 -397 376 -396 c 0
 457 -390 541 -386 541 -336 c 0
 541 -276 405 -267 315 -259 c 0
 276 -255 275 -248 288 -230 c 2
 449 2 l 2
 455 11 459 12 475 12 c 2
 573 12 l 2
 603 12 611 8 601 -8 c 2
 552 -86 l 2
 535 -109 535 -117 571 -120 c 0
 700 -130 783 -198 783 -310 c 0
 783 -535 526 -545 370 -549 c 0
 349 -550 345 -542 345 -520 c 2
EndSplineSet
EndChar

StartChar: multiply
Encoding: 215 215 235
Width: 1090
Flags: MW
LayerCount: 2
Fore
SplineSet
566 860 m 2
 726 1020 l 2
 745 1039 756 1047 777 1026 c 2
 889 913 l 2
 910 892 915 884 894 863 c 2
 732 700 l 2
 709 677 710 673 734 649 c 2
 901 483 l 2
 915 469 912 462 897 447 c 2
 777 327 l 2
 758 308 751 310 731 330 c 2
 576 485 l 2
 552 509 544 513 521 490 c 2
 358 327 l 2
 342 311 333 309 316 326 c 2
 190 453 l 2
 174 469 177 471 193 487 c 2
 364 658 l 2
 382 676 378 684 360 702 c 2
 204 857 l 2
 181 880 178 888 201 911 c 2
 316 1026 l 2
 337 1047 344 1040 365 1019 c 2
 524 860 l 2
 542 842 548 842 566 860 c 2
EndSplineSet
EndChar

StartChar: germandbls
Encoding: 223 223 241
Width: 1753
Flags: MW
LayerCount: 2
Fore
SplineSet
1702 320 m 0
 1702 100 1444 -20 1202 -20 c 0
 859 -20 726 97 726 261 c 0
 726 383 830 472 950 472 c 0
 1061 472 1158 412 1158 300 c 0
 1158 272 1147 248 1132 229 c 0
 1110 201 1088 194 1139 185 c 0
 1158 182 1176 183 1193 183 c 0
 1251 183 1300 222 1300 290 c 0
 1300 505 886 587 886 797 c 0
 886 1017 1130 1045 1130 1233 c 0
 1130 1318 1074 1383 906 1383 c 0
 658 1383 591 1246 591 962 c 2
 591 59 l 2
 591 -1 574 0 518 0 c 2
 72 0 l 2
 31 0 29 8 29 49 c 2
 29 169 l 2
 29 206 32 213 68 213 c 2
 161 213 l 2
 205 213 210 230 210 271 c 2
 210 982 l 2
 210 1328 480 1570 906 1570 c 0
 1242 1570 1543 1428 1543 1242 c 0
 1543 1023 1244 964 1244 857 c 0
 1244 731 1702 587 1702 320 c 0
EndSplineSet
EndChar

StartChar: Thorn
Encoding: 222 222 242
Width: 1580
Flags: MW
LayerCount: 2
Fore
SplineSet
735 554 m 2
 865 554 l 2
 997 554 1085 616 1085 764 c 0
 1085 912 997 974 865 974 c 2
 714 974 l 2
 688 974 685 962 685 935 c 2
 685 598 l 2
 685 556 693 554 735 554 c 2
685 288 m 2
 685 273 l 2
 685 218 689 210 743 210 c 2
 873 210 l 2
 904 210 905 201 905 170 c 2
 905 48 l 2
 905 8 903 0 863 0 c 2
 129 0 l 2
 88 0 75 2 75 46 c 2
 75 182 l 2
 75 206 82 210 107 210 c 2
 249 210 l 2
 290 210 295 220 295 258 c 2
 295 1264 l 2
 295 1287 287 1290 263 1290 c 2
 100 1290 l 2
 76 1290 75 1299 75 1323 c 2
 75 1464 l 2
 75 1495 83 1500 112 1500 c 2
 851 1500 l 2
 892 1500 905 1498 905 1454 c 2
 905 1318 l 2
 905 1294 898 1290 873 1290 c 2
 731 1290 l 2
 690 1290 685 1280 685 1242 c 2
 685 1222 l 2
 685 1190 691 1184 722 1184 c 2
 885 1184 l 2
 1307 1184 1505 1054 1505 764 c 0
 1505 474 1307 344 885 344 c 2
 749 344 l 2
 694 344 685 343 685 288 c 2
EndSplineSet
EndChar

StartChar: AE
Encoding: 198 198 243
Width: 2825
Flags: MW
LayerCount: 2
Fore
SplineSet
0 42 m 2
 0 254 l 2
 0 274 6 280 28 280 c 2
 144 280 l 2
 186 280 191 296 215 320 c 2
 1032 1189 l 2
 1062 1231 1045 1230 974 1230 c 2
 846 1230 l 2
 821 1230 820 1234 820 1260 c 2
 820 1472 l 2
 820 1495 827 1500 848 1500 c 2
 1684 1500 l 2
 1707 1500 1710 1496 1710 1472 c 2
 1710 1263 l 2
 1710 1239 1708 1230 1682 1230 c 2
 1438 1230 l 2
 1374 1230 1371 1231 1349 1201 c 2
 844 678 l 2
 831 657 836 650 872 650 c 2
 1534 650 l 1
 1514 440 l 1
 676 440 l 2
 640 440 623 421 599 400 c 2
 526 328 l 2
 498 301 503 280 547 280 c 2
 678 280 l 2
 702 280 710 275 710 250 c 2
 710 32 l 2
 710 0 710 0 678 0 c 2
 50 0 l 2
 13 0 0 2 0 42 c 2
EndSplineSet
Refer: 16 69 N 1 0 0 1 1150 0 2
EndChar

StartChar: ae
Encoding: 230 230 250
Width: 1921
Flags: MW
LayerCount: 2
Fore
SplineSet
1196 658 m 2
 1422 658 l 2
 1450 658 1450 658 1448 685 c 0
 1442 795 1406 882 1318 882 c 0
 1222 882 1184 806 1170 695 c 0
 1166 666 1161 658 1196 658 c 2
727 408 m 10
 727 422 725 437 707 437 c 2
 699 437 l 2
 607 437 519 360 519 286 c 0
 519 232 545 199 605 199 c 0
 691 199 727 250 727 382 c 2
 727 408 l 10
45 246 m 0
 45 474 289 588 633 588 c 2
 701 588 l 2
 724 588 727 590 727 614 c 2
 727 734 l 2
 727 838 661 888 571 888 c 0
 541 888 519 880 519 868 c 0
 519 845 553 844 553 756 c 0
 553 658 451 600 343 600 c 0
 221 600 125 648 125 756 c 0
 125 980 419 1060 701 1060 c 0
 803 1060 891 1045 960 1013 c 0
 990 999 993 1002 1022 1016 c 0
 1107 1057 1210 1080 1330 1080 c 0
 1810 1080 1868 706 1868 490 c 0
 1868 459 1864 452 1834 452 c 2
 1188 452 l 2
 1160 452 1163 447 1165 422 c 0
 1176 280 1217 166 1360 166 c 0
 1459 166 1516 218 1564 322 c 0
 1571 337 1576 346 1600 346 c 2
 1812 346 l 2
 1840 346 1845 342 1840 320 c 0
 1780 65 1570 -40 1316 -40 c 0
 1132 -40 1026 31 939 127 c 0
 906 163 894 163 872 141 c 0
 806 76 736 -20 435 -20 c 0
 207 -20 45 68 45 246 c 0
EndSplineSet
EndChar

StartChar: Eth
Encoding: 208 208 251
Width: 1840
Flags: MW
LayerCount: 2
Fore
SplineSet
117 900 m 2
 862 900 l 2
 900 900 903 893 903 861 c 2
 903 711 l 2
 903 676 903 670 860 670 c 2
 127 670 l 2
 83 670 76 675 76 710 c 2
 76 859 l 2
 76 891 78 900 117 900 c 2
EndSplineSet
Refer: 15 68 N 1 0 0 1 0 0 2
EndChar

StartChar: dotlessi
Encoding: 305 305 257
Width: 865
Flags: MW
AnchorPoint: "Anchor-0" 439 1040 basechar 0
AnchorPoint: "Anchor-1" 437 0 basechar 0
AnchorPoint: "Anchor-2" 437 0 basechar 0
LayerCount: 2
Fore
SplineSet
216 830 m 2
 81 830 l 2
 63 830 55 833 55 850 c 2
 55 1012 l 2
 55 1035 63 1040 85 1040 c 2
 630 1040 l 2
 649 1040 655 1039 655 1020 c 2
 655 235 l 2
 655 215 656 210 676 210 c 2
 807 210 l 2
 830 210 835 209 835 186 c 2
 835 31 l 2
 835 2 827 0 797 0 c 2
 79 0 l 2
 59 0 55 4 55 25 c 2
 55 181 l 2
 55 206 58 210 82 210 c 2
 209 210 l 2
 230 210 235 211 235 232 c 2
 235 804 l 2
 235 821 232 830 216 830 c 2
EndSplineSet
EndChar

StartChar: Oslash
Encoding: 216 216 258
Width: 1820
Flags: MW
LayerCount: 2
Fore
SplineSet
1155 1660 m 2
 1273 1660 l 2
 1340 1660 1351 1657 1334 1605 c 2
 745 -154 l 2
 732 -194 724 -200 669 -200 c 2
 559 -200 l 2
 488 -200 472 -199 490 -146 c 2
 1092 1624 l 2
 1103 1655 1111 1660 1155 1660 c 2
EndSplineSet
Refer: 26 79 N 1 0 0 1 0 0 2
EndChar

StartChar: thorn
Encoding: 254 254 260
Width: 1471
Flags: MW
AnchorPoint: "Anchor-0" 888 1040 basechar 0
AnchorPoint: "Anchor-1" 927 0 basechar 0
AnchorPoint: "Anchor-2" 927 0 basechar 0
LayerCount: 2
Fore
SplineSet
645 522 m 0
 645 334 719 206 821 206 c 0
 909 206 981 334 981 522 c 0
 981 710 909 838 821 838 c 0
 719 838 645 710 645 522 c 0
45 1402 m 2
 45 1515 l 2
 45 1556 55 1560 94 1560 c 2
 600 1560 l 2
 628 1560 645 1555 645 1524 c 2
 645 950 l 2
 645 920 656 923 678 954 c 0
 736 1033 829 1080 977 1080 c 0
 1235 1080 1421 882 1421 522 c 0
 1421 162 1215 -38 957 -38 c 0
 827 -38 742 4 686 74 c 0
 657 110 645 124 645 26 c 2
 645 -258 l 2
 645 -301 649 -310 694 -310 c 2
 790 -310 l 2
 816 -310 825 -314 825 -342 c 2
 825 -478 l 2
 825 -518 817 -520 776 -520 c 2
 90 -520 l 2
 50 -520 45 -514 45 -476 c 2
 45 -348 l 2
 45 -318 50 -310 82 -310 c 2
 176 -310 l 2
 220 -310 225 -303 225 -257 c 2
 225 1298 l 2
 225 1345 215 1350 170 1350 c 2
 100 1350 l 2
 51 1350 45 1355 45 1402 c 2
EndSplineSet
EndChar

StartChar: eth
Encoding: 240 240 271
Width: 1340
Flags: MW
LayerCount: 2
Fore
SplineSet
579 1288 m 2
 957 1638 l 2
 985 1664 991 1660 1013 1637 c 2
 1115 1527 l 2
 1139 1501 1143 1497 1111 1468 c 2
 743 1126 l 2
 711 1096 702 1095 678 1121 c 2
 577 1230 l 2
 555 1253 550 1261 579 1288 c 2
621 1612 m 0
 864 1508 1290 1187 1290 700 c 0
 1290 190 984 -20 662 -20 c 0
 260 -20 50 190 50 510 c 0
 50 840 286 1060 638 1060 c 0
 750 1060 808 1039 844 1011 c 0
 864 995 878 976 886 980 c 0
 893 984 889 997 887 1030 c 0
 872 1248 708 1366 535 1454 c 0
 519 1462 510 1462 518 1480 c 2
 593 1601 l 2
 600 1617 606 1618 621 1612 c 0
450 510 m 0
 450 292 484 170 642 170 c 0
 780 170 890 361 890 650 c 0
 890 810 808 882 682 882 c 0
 524 882 450 738 450 510 c 0
EndSplineSet
EndChar

StartChar: divide
Encoding: 247 247 272
Width: 1119
Flags: MW
LayerCount: 2
Fore
SplineSet
135 886 m 2
 994 886 l 2
 1014 886 1020 880 1020 858 c 2
 1020 692 l 2
 1020 677 1012 674 996 674 c 2
 132 674 l 2
 106 674 100 679 100 704 c 2
 100 846 l 2
 100 879 103 886 135 886 c 2
379 410 m 0
 379 509 463 590 562 590 c 0
 661 590 740 509 740 410 c 0
 740 311 661 230 562 230 c 0
 463 230 379 311 379 410 c 0
379 1160 m 0
 379 1259 463 1340 562 1340 c 0
 661 1340 740 1259 740 1160 c 0
 740 1061 661 980 562 980 c 0
 463 980 379 1061 379 1160 c 0
EndSplineSet
EndChar

StartChar: oslash
Encoding: 248 248 273
Width: 1296
Flags: MW
LayerCount: 2
Fore
SplineSet
875 1215 m 2
 993 1215 l 2
 1060 1215 1071 1212 1054 1173 c 2
 465 -155 l 2
 452 -185 444 -189 389 -189 c 2
 279 -189 l 2
 208 -189 192 -189 210 -149 c 2
 812 1187 l 2
 823 1210 831 1215 875 1215 c 2
EndSplineSet
Refer: 52 111 N 1 0 0 1 0 0 2
EndChar

StartChar: Dcroat
Encoding: 272 272 304
Width: 1840
Flags: W
LayerCount: 2
Fore
SplineSet
117 900 m 2
 862 900 l 2
 900 900 903 893 903 861 c 2
 903 711 l 2
 903 676 903 670 860 670 c 2
 127 670 l 2
 83 670 76 675 76 710 c 2
 76 859 l 2
 76 891 78 900 117 900 c 2
EndSplineSet
Refer: 15 68 N 1 0 0 1 0 0 2
EndChar

StartChar: dcroat
Encoding: 273 273 305
Width: 1473
Flags: W
LayerCount: 2
Fore
SplineSet
739 1290 m 2
 1392 1290 l 2
 1425 1290 1428 1283 1428 1251 c 2
 1428 1101 l 2
 1428 1066 1427 1060 1390 1060 c 2
 748 1060 l 2
 710 1060 703 1065 703 1100 c 2
 703 1249 l 2
 703 1281 705 1290 739 1290 c 2
EndSplineSet
Refer: 41 100 N 1 0 0 1 -0 0 2
EndChar

StartChar: Hbar
Encoding: 294 294 317
Width: 2020
Flags: W
LayerCount: 2
Fore
SplineSet
147 1170 m 2
 1874 1170 l 2
 1961 1170 1970 1163 1970 1131 c 2
 1970 981 l 2
 1970 946 1967 940 1868 940 c 2
 169 940 l 2
 67 940 51 945 51 980 c 2
 51 1129 l 2
 51 1161 57 1170 147 1170 c 2
EndSplineSet
Refer: 19 72 N 1 0 0 1 0 0 2
EndChar

StartChar: hbar
Encoding: 295 295 318
Width: 1315
Flags: W
LayerCount: 2
Fore
SplineSet
90 1310 m 2
 835 1310 l 2
 873 1310 876 1303 876 1271 c 2
 876 1121 l 2
 876 1086 876 1080 833 1080 c 2
 100 1080 l 2
 56 1080 49 1085 49 1120 c 2
 49 1269 l 2
 49 1301 51 1310 90 1310 c 2
EndSplineSet
Refer: 45 104 N 1 0 0 1 0 0 2
EndChar

StartChar: uni0237
Encoding: 567 567 332
Width: 800
Flags: W
AnchorPoint: "Anchor-0" 422 1040 basechar 0
AnchorPoint: "Anchor-1" 142 -565 basechar 0
AnchorPoint: "Anchor-2" 142 -565 basechar 0
LayerCount: 2
Fore
SplineSet
196 830 m 2
 82 830 l 2
 45 830 40 836 40 875 c 2
 40 989 l 2
 40 1035 46 1040 90 1040 c 2
 604 1040 l 2
 637 1040 640 1033 640 999 c 2
 640 -64 l 2
 640 -386 406 -520 106 -520 c 0
 -136 -520 -330 -422 -330 -228 c 0
 -330 -108 -230 -16 -106 -16 c 0
 38 -16 134 -102 134 -192 c 0
 134 -306 54 -302 54 -324 c 0
 54 -340 66 -350 102 -350 c 0
 302 -350 220 -134 220 140 c 2
 220 797 l 2
 220 820 219 830 196 830 c 2
EndSplineSet
EndChar

StartChar: kgreenlandic
Encoding: 312 312 335
Width: 1567
Flags: W
LayerCount: 2
Fore
SplineSet
178 830 m 2
 86 830 l 2
 49 830 45 838 45 872 c 2
 45 996 l 2
 45 1033 58 1040 94 1040 c 2
 590 1040 l 2
 635 1040 645 1039 645 994 c 2
 645 671 l 2
 645 612 677 633 706 651 c 2
 926 785 l 2
 965 809 974 810 908 810 c 2
 849 810 l 2
 811 810 803 813 803 850 c 2
 803 1000 l 2
 803 1038 815 1040 850 1040 c 2
 1472 1040 l 2
 1506 1040 1509 1033 1509 998 c 2
 1509 853 l 2
 1509 823 1507 810 1478 810 c 2
 1380 810 l 2
 1334 810 1319 804 1294 787 c 2
 1072 639 l 2
 1028 610 1039 600 1073 560 c 2
 1351 234 l 2
 1366 217 1378 210 1412 210 c 2
 1536 210 l 2
 1568 210 1577 208 1577 176 c 2
 1577 36 l 2
 1577 3 1570 0 1536 0 c 2
 850 0 l 2
 821 0 813 2 813 30 c 2
 813 172 l 2
 813 205 819 210 854 210 c 2
 872 210 l 2
 916 210 903 215 885 236 c 2
 684 472 l 2
 660 500 645 527 645 468 c 2
 645 252 l 2
 645 218 649 210 686 210 c 2
 712 210 l 2
 739 210 745 204 745 178 c 2
 745 36 l 2
 745 2 737 0 702 0 c 2
 98 0 l 2
 61 0 45 4 45 40 c 2
 45 168 l 2
 45 201 49 210 84 210 c 2
 176 210 l 2
 224 210 225 219 225 268 c 2
 225 782 l 2
 225 819 216 830 178 830 c 2
EndSplineSet
EndChar

StartChar: Lslash
Encoding: 321 321 344
Width: 1560
Flags: W
LayerCount: 2
Fore
SplineSet
84 736 m 2
 958 1139 l 2
 979 1149 991 1153 991 1112 c 2
 991 943 l 2
 991 908 990 901 968 891 c 2
 90 485 l 2
 70 476 60 474 60 514 c 2
 60 685 l 2
 60 715 65 727 84 736 c 2
EndSplineSet
Refer: 23 76 N 1 0 0 1 0 0 2
EndChar

StartChar: lslash
Encoding: 322 322 345
Width: 870
Flags: W
LayerCount: 2
Fore
SplineSet
60 810 m 2
 790 1145 l 2
 812 1155 814 1145 814 1108 c 2
 814 998 l 2
 814 961 810 960 788 946 c 2
 68 617 l 2
 48 608 44 615 44 651 c 2
 44 775 l 2
 44 799 46 801 60 810 c 2
EndSplineSet
Refer: 49 108 N 1 0 0 1 0 0 2
EndChar

StartChar: eng
Encoding: 331 331 353
Width: 1555
Flags: W
LayerCount: 2
Fore
SplineSet
189 830 m 2
 105 830 l 2
 60 830 55 837 55 881 c 2
 55 987 l 2
 55 1033 80 1040 121 1040 c 2
 559 1040 l 2
 590 1040 615 1032 615 990 c 2
 615 954 l 2
 615 905 628 890 656 922 c 0
 728 1004 812 1080 981 1080 c 0
 1215 1080 1345 952 1345 738 c 2
 1345 -64 l 2
 1345 -386 1110 -520 810 -520 c 0
 568 -520 374 -422 374 -228 c 0
 374 -108 474 -16 598 -16 c 0
 742 -16 838 -102 838 -192 c 0
 838 -306 758 -302 758 -324 c 0
 758 -340 770 -350 806 -350 c 0
 1006 -350 925 -134 925 140 c 2
 925 706 l 2
 925 814 897 846 835 846 c 0
 759 846 655 772 655 566 c 2
 655 249 l 2
 655 219 659 210 691 210 c 2
 715 210 l 2
 746 210 755 206 755 173 c 2
 755 37 l 2
 755 2 737 0 705 0 c 2
 87 0 l 2
 56 0 55 9 55 41 c 2
 55 168 l 2
 55 204 60 210 95 210 c 2
 185 210 l 2
 226 210 235 211 235 252 c 2
 235 784 l 2
 235 825 229 830 189 830 c 2
EndSplineSet
EndChar

StartChar: Eng
Encoding: 330 330 354
Width: 1889
Flags: W
LayerCount: 2
Fore
SplineSet
223 1230 m 2
 105 1230 l 2
 60 1230 55 1237 55 1281 c 2
 55 1447 l 2
 55 1493 80 1500 121 1500 c 2
 643 1500 l 2
 674 1500 699 1492 699 1450 c 2
 699 1414 l 2
 699 1365 715 1357 750 1382 c 0
 892 1484 996 1540 1245 1540 c 0
 1539 1540 1749 1372 1749 1128 c 2
 1749 -64 l 2
 1749 -386 1464 -520 1164 -520 c 0
 922 -520 728 -422 728 -228 c 0
 728 -108 828 -16 952 -16 c 0
 1096 -16 1192 -102 1192 -192 c 0
 1192 -306 1112 -302 1112 -324 c 0
 1112 -340 1124 -350 1160 -350 c 0
 1360 -350 1279 -134 1279 140 c 2
 1279 1126 l 2
 1279 1234 1211 1306 1099 1306 c 0
 923 1306 739 1232 739 1026 c 2
 739 309 l 2
 739 279 743 270 775 270 c 2
 899 270 l 2
 930 270 939 266 939 233 c 2
 939 37 l 2
 939 2 921 0 889 0 c 2
 87 0 l 2
 56 0 55 9 55 41 c 2
 55 228 l 2
 55 264 60 270 95 270 c 2
 219 270 l 2
 260 270 269 271 269 312 c 2
 269 1184 l 2
 269 1225 263 1230 223 1230 c 2
EndSplineSet
EndChar

StartChar: OE
Encoding: 338 338 361
Width: 2627
Flags: W
LayerCount: 2
Fore
SplineSet
1090 1500 m 1
 1090 1230 l 1
 940 1230 l 2
 732 1230 580 1114 580 750 c 0
 580 386 752 270 940 270 c 2
 1090 270 l 1
 1090 0 l 1
 870 0 l 2
 274 0 50 324 50 750 c 0
 50 1176 294 1500 870 1500 c 2
 1090 1500 l 1
EndSplineSet
Refer: 16 69 N 1 0 0 1 949 0 2
EndChar

StartChar: Tbar
Encoding: 358 358 381
Width: 1620
Flags: W
LayerCount: 2
Fore
SplineSet
403 840 m 2
 1221 840 l 2
 1262 840 1267 833 1267 801 c 2
 1267 651 l 2
 1267 616 1266 610 1219 610 c 2
 413 610 l 2
 365 610 357 615 357 650 c 2
 357 799 l 2
 357 831 360 840 403 840 c 2
EndSplineSet
Refer: 31 84 N 1 0 0 1 0 0 2
EndChar

StartChar: tbar
Encoding: 359 359 382
Width: 966
Flags: W
LayerCount: 2
Fore
SplineSet
49 657 m 2
 820 657 l 2
 859 657 863 650 863 618 c 2
 863 468 l 2
 863 433 862 427 818 427 c 2
 59 427 l 2
 14 427 6 432 6 467 c 2
 6 616 l 2
 6 648 9 657 49 657 c 2
EndSplineSet
Refer: 57 116 N 1 0 0 1 -0 0 2
EndChar

StartChar: longs
Encoding: 383 383 406
Width: 920
Flags: W
LayerCount: 2
Fore
SplineSet
630 248 m 2
 630 215 636 210 671 210 c 2
 813 210 l 2
 852 210 870 206 870 163 c 2
 870 46 l 2
 870 3 863 0 819 0 c 2
 87 0 l 2
 45 0 30 6 30 51 c 2
 30 155 l 2
 30 196 32 210 73 210 c 2
 161 210 l 2
 201 210 210 212 210 252 c 2
 210 1144 l 2
 210 1366 404 1600 804 1600 c 0
 1126 1600 1270 1462 1270 1308 c 0
 1270 1148 1160 1086 1036 1086 c 0
 892 1086 796 1162 796 1272 c 0
 796 1366 868 1388 868 1410 c 0
 868 1424 840 1426 820 1426 c 0
 740 1426 630 1354 630 1100 c 2
 630 248 l 2
EndSplineSet
EndChar

StartChar: uni03A9
Encoding: 937 937 413
Width: 1739
Flags: W
LayerCount: 2
Fore
SplineSet
1536 500 m 2
 1690 500 l 2
 1724 500 1734 480 1734 442 c 2
 1734 96 l 2
 1734 40 1734 0 1664 0 c 2
 1022 0 l 2
 945 0 945 0 945 52 c 2
 945 414 l 2
 945 461.514648438 945.809570312 460.220703125 991.977539062 490 c 0
 1101.95996094 560.94140625 1195 561.352539062 1195 845 c 0
 1195 1148 1077 1283 869 1283 c 0
 661 1283 554 1148 554 845 c 0
 554 556.961914062 651.19140625 536.509765625 754 477.032226562 c 0
 794.122070312 453.8203125 794 453.610351562 794 414 c 2
 794 60 l 2
 794 0 794 0 722 0 c 2
 48 0 l 2
 5 0 5 10 5 70 c 2
 5 422 l 2
 5 480 15 500 42 500 c 2
 182 500 l 2
 226.698242188 500 244.313476562 499.8203125 251.088867188 425.956054688 c 0
 259.475585938 334.532226562 296.678710938 313 448 313 c 2
 454 313 l 2
 494 313 534 333 534 374 c 0
 534 433.345703125 519.539419741 432.35929102 477.610351562 446 c 0
 290.311523438 506.93359375 85 652.4609375 85 945 c 0
 85 1351 452 1540 869 1540 c 0
 1286 1540 1654 1351 1654 945 c 0
 1654 645.043945312 1439.02246094 506.396484375 1248.09277344 446 c 0
 1211.48491954 434.419895802 1205 432.948242188 1205 368 c 0
 1205 323 1230 313 1267 313 c 2
 1271 313 l 2
 1418.78320312 313 1475.87402344 351.2265625 1488.97949219 436 c 0
 1497.25585938 489.534179688 1503.27441406 500 1536 500 c 2
EndSplineSet
EndChar

StartChar: uni03BC
Encoding: 956 956 414
Width: 1545
Flags: HW
LayerCount: 2
Fore
SplineSet
210 32 m 2
 210 789 l 2
 210 821 200 830 170 830 c 2
 72 830 l 2
 40 830 30 836 30 868 c 2
 30 997 l 2
 30 1031 33 1040 66 1040 c 2
 590 1040 l 2
 622 1040 630 1036 630 1001 c 2
 630 334 l 2
 630 226 658 194 720 194 c 0
 796 194 900 268 900 474 c 2
 900 788 l 2
 900 818 897 830 868 830 c 2
 798 830 l 2
 768 830 760 833 760 862 c 2
 760 1000 l 2
 760 1032 763 1040 794 1040 c 2
 1286 1040 l 2
 1316 1040 1320 1033 1320 1002 c 2
 1320 250 l 2
 1320 211 1329 210 1368 210 c 2
 1473 210 l 2
 1495 210 1500 203 1500 180 c 2
 1500 37 l 2
 1500 8 1497 0 1469 0 c 2
 981 0 l 2
 944 0 940 7 940 45 c 2
 940 108 l 2
 940 138 922 143 902 113 c 0
 840 19 746 -40 574 -40 c 0
 526.336544696 -40 482.932723713 -34.6754570979 444.000025479 -24.4493481482 c 0
 366.863970677 -4.18870000027 366.863970677 -4.18870000027 387.673393488 -65 c 0
 422.261558393 -166.07686751 489.284917011 -235.882392433 505 -331 c 0
 507 -345 507 -355 507 -367 c 0
 507 -475 415 -559 287 -559 c 0
 159 -559 67 -475 67 -367 c 0
 67 -355 67 -345 69 -331 c 0
 90 -207 210 -130 210 32 c 2
EndSplineSet
EndChar

StartChar: uni0394
Encoding: 916 916 415
Width: 1900
Flags: W
LayerCount: 2
Fore
SplineSet
1077 270 m 2
 1135 270 1140 280 1126 319 c 2
 874 1023 l 2
 858 1069 842 1050 829 1019 c 2
 538 313 l 2
 525 281 527 270 563 270 c 2
 1077 270 l 2
1700 0 m 2
 175 0 l 2
 133 0 126 15 135 37 c 2
 758 1497 l 2
 771 1529 775 1530 821 1530 c 2
 1121 1530 l 2
 1168 1530 1174 1519 1187 1487 c 2
 1753 61 l 2
 1768 23 1757 0 1700 0 c 2
EndSplineSet
EndChar

StartChar: uni1E9E
Encoding: 7838 7838 426
Width: 2172
Flags: W
LayerCount: 2
Fore
SplineSet
1185 421 m 1
 1185 301 1317 187 1463 187 c 0
 1611 187 1692 292 1692 410 c 0
 1692 558 1595 665 1227 735 c 1
 1227 848 l 1
 1809 848 2102 601 2102 380 c 0
 2102 120 1784 -30 1502 -30 c 0
 1218 -30 990 66 990 261 c 0
 990 393 1091 492 1211 492 c 0
 1322 492 1419 402 1419 280 c 0
 1419 166 1315 70 1206 70 c 0
 1145 70 992 211 992 261 c 1
 1185 421 l 1
40 210 m 1
 801 210 l 1
 801 0 l 1
 40 0 l 1
 40 210 l 1
1627 780 m 1
 1586 791 1294 838 1227 848 c 1
 1540 1198 l 1
 1470 1263 1375 1307 1257 1307 c 0
 929 1307 621 1185 621 861 c 2
 621 0 l 1
 221 0 l 1
 221 882 l 2
 221 1288 751 1520 1287 1520 c 0
 1704 1520 1982 1348 2043 1282 c 1
 1627 780 l 1
EndSplineSet
EndChar

StartChar: guilsinglleft
Encoding: 8249 8249 429
Width: 830
Flags: W
LayerCount: 2
Fore
SplineSet
442 775 m 1
 790 380 l 1
 710 270 l 1
 30 750 l 1
 30 800 l 1
 710 1280 l 1
 790 1170 l 1
 442 775 l 1
EndSplineSet
EndChar

StartChar: guilsinglright
Encoding: 8250 8250 430
Width: 830
Flags: W
LayerCount: 2
Fore
SplineSet
388 775 m 1
 40 1170 l 1
 120 1280 l 1
 800 800 l 1
 800 750 l 1
 120 270 l 1
 40 380 l 1
 388 775 l 1
EndSplineSet
EndChar

StartChar: uni2074
Encoding: 8308 8308 431
Width: 860
Flags: W
LayerCount: 2
Fore
SplineSet
792 1017 m 2
 792 941 l 2
 792 921 787 919 767 919 c 2
 328 919 l 2
 300 919 294 920 294 948 c 2
 294 1018 l 2
 294 1040 298 1045 320 1045 c 2
 410 1045 l 2
 436 1045 438 1049 438 1076 c 2
 438 1133 l 2
 438 1165 438 1165 406 1165 c 2
 107 1165 l 2
 81 1165 81 1169 73 1185 c 2
 54 1220 l 2
 47 1233 51 1238 58 1251 c 0
 152 1439 399 1547 461 1785 c 0
 468 1810 468 1819 502 1819 c 2
 664 1819 l 2
 696 1819 701 1816 696 1788 c 0
 658 1556 371 1465 253 1334 c 0
 237 1316 221 1291 268 1291 c 2
 415 1291 l 2
 436 1291 438 1295 438 1317 c 2
 438 1345 l 2
 438 1373 444 1372 463 1382 c 0
 503 1403 556 1431 581 1483 c 0
 586 1495 589 1501 608 1501 c 2
 648 1501 l 2
 667 1501 672 1501 672 1482 c 2
 672 1326 l 2
 672 1306 678 1291 700 1291 c 2
 788 1291 l 2
 807 1291 810 1286 810 1268 c 2
 810 1199 l 2
 810 1171 810 1165 782 1165 c 2
 704 1165 l 2
 679 1165 672 1162 672 1136 c 2
 672 1076 l 2
 672 1049 675 1045 703 1045 c 2
 766 1045 l 2
 789 1045 792 1041 792 1017 c 2
EndSplineSet
EndChar

StartChar: Euro
Encoding: 8364 8364 432
Width: 1792
Flags: W
LayerCount: 2
Fore
SplineSet
990 1304 m 0
 722 1304 600 1114 600 750 c 0
 600 386 682 198 980 198 c 0
 1281 198 1331 325 1338 464 c 0
 1339 476 1344 480 1358 480 c 2
 1528 480 l 2
 1542 480 1549 479 1549 466 c 0
 1544 266 1391 -20 960 -20 c 0
 454 -20 170 304 170 750 c 0
 170 1196 474 1520 980 1520 c 0
 1354 1520 1562 1306 1562 1102 c 0
 1562 946 1452 870 1334 870 c 0
 1200 870 1120 952 1120 1086 c 0
 1120 1208 1204 1207 1204 1243 c 0
 1204 1277 1138 1304 990 1304 c 0
EndSplineSet
Refer: 87 61 N 1 0 0 1 -70 -30 2
EndChar

StartChar: partialdiff
Encoding: 8706 8706 433
Width: 1330
Flags: W
LayerCount: 2
Fore
SplineSet
504 1312 m 0
 504 1286 552 1248 552 1176 c 0
 552 1062 462 990 328 990 c 0
 189 990 110 1086 110 1222 c 0
 110 1386 298 1520 602 1520 c 0
 974 1520 1250 1220 1250 740 c 0
 1250 170 974 -20 652 -20 c 0
 350 -20 60 130 60 500 c 0
 60 810 276 960 498 960 c 0
 628 960 742 914 813 842 c 0
 833 822 837 806 846 811 c 0
 853 815 848 829 846 864 c 0
 826 1197 710 1366 592 1366 c 0
 524 1366 504 1338 504 1312 c 0
460 470 m 0
 460 292 534 210 652 210 c 0
 780 210 850 302 850 460 c 0
 850 620 758 722 652 722 c 0
 544 722 460 658 460 470 c 0
EndSplineSet
EndChar

StartChar: emptyset
Encoding: 8709 8709 434
Width: 1140
Flags: W
LayerCount: 2
Fore
SplineSet
18 341 m 1
 989 1312 l 1
 1132 1179 l 1
 161 208 l 1
 18 341 l 1
292 770 m 0
 292 622 388 483 571 483 c 0
 754 483 848 622 848 770 c 0
 848 918 754 1057 571 1057 c 0
 388 1057 292 918 292 770 c 0
62 770 m 0
 62 1020 239 1279 571 1279 c 0
 903 1279 1078 1020 1078 770 c 0
 1078 520 903 260 571 260 c 0
 239 260 62 520 62 770 c 0
EndSplineSet
EndChar

StartChar: product
Encoding: 8719 8719 435
Width: 2020
Flags: W
LayerCount: 2
Fore
SplineSet
740 1188 m 2
 740 329 l 2
 740 285 741 270 785 270 c 2
 887 270 l 2
 927 270 940 267 940 228 c 2
 940 65 l 2
 940 6 914 0 860 0 c 2
 120 0 l 2
 62 0 50 6 50 67 c 2
 50 206 l 2
 50 251 52 270 97 270 c 2
 205 270 l 2
 254 270 270 271 270 320 c 2
 270 1184 l 2
 270 1225 259 1230 216 1230 c 2
 115 1230 l 2
 63 1230 50 1235 50 1290 c 2
 50 1444 l 2
 50 1493 75 1500 120 1500 c 2
 1910 1500 l 2
 1948 1500 1970 1493 1970 1451 c 2
 1970 1278 l 2
 1970 1239 1962 1230 1920 1230 c 2
 1791 1230 l 2
 1753 1230 1750 1218 1750 1179 c 2
 1750 320 l 2
 1750 282 1751 270 1789 270 c 2
 1919 270 l 2
 1964 270 1970 260 1970 213 c 2
 1970 81 l 2
 1970 8 1961 0 1890 0 c 2
 1160 0 l 2
 1101 0 1080 7 1080 70 c 2
 1080 225 l 2
 1080 263 1093 270 1129 270 c 2
 1218 270 l 2
 1265 270 1280 271 1280 318 c 2
 1280 1196 l 2
 1280 1228 1268 1230 1235 1230 c 2
 783 1230 l 2
 747 1230 740 1225 740 1188 c 2
EndSplineSet
EndChar

StartChar: summation
Encoding: 8721 8721 436
Width: 1449
Flags: W
LayerCount: 2
Fore
SplineSet
110 1500 m 1
 1314 1500 l 1
 1314 990 l 1
 1100 990 l 1
 1100 1204 1075 1287 841 1287 c 2
 610 1287 l 1
 946 813 l 1
 476 213 l 1
 820 213 l 2
 1093 213 1120 296 1120 550 c 1
 1333 550 l 1
 1333 0 l 1
 20 0 l 1
 582 730 l 1
 110 1387 l 1
 110 1500 l 1
EndSplineSet
EndChar

StartChar: minus
Encoding: 8722 8722 437
Width: 1224
Flags: W
LayerCount: 2
Fore
SplineSet
169 890 m 2
 1055 890 l 2
 1100 890 1104 883 1104 851 c 2
 1104 701 l 2
 1104 666 1103 660 1052 660 c 2
 181 660 l 2
 129 660 120 665 120 700 c 2
 120 849 l 2
 120 881 123 890 169 890 c 2
EndSplineSet
EndChar

StartChar: uni2219
Encoding: 8729 8729 439
Width: 610
Flags: W
LayerCount: 2
Fore
SplineSet
65 870 m 0
 65 1002 173 1110 305 1110 c 0
 437 1110 545 1002 545 870 c 0
 545 738 437 630 305 630 c 0
 173 630 65 738 65 870 c 0
EndSplineSet
EndChar

StartChar: radical
Encoding: 8730 8730 440
Width: 1180
Flags: W
LayerCount: 2
Fore
SplineSet
1026 1290 m 1
 717 -20 l 1
 429 -20 l 1
 233 381 l 1
 121 323 l 1
 31 500 l 1
 432 730 l 1
 616 330 l 1
 889 1500 l 1
 1180 1500 l 1
 1180 1290 l 1
 1026 1290 l 1
EndSplineSet
EndChar

StartChar: infinity
Encoding: 8734 8734 441
Width: 1913
Flags: W
LayerCount: 2
Fore
SplineSet
1622 780 m 0
 1622 928 1547 997 1414 997 c 0
 1287 997 1196 945 1101 825 c 0
 1074 791 1062 784 1090 748 c 0
 1187 623 1282 563 1414 563 c 0
 1547 563 1622 642 1622 780 c 0
1863 780 m 0
 1863 490 1676 351 1434 351 c 0
 1279 351 1111 458 996 594 c 0
 956 641 960 646 920 598 c 0
 804 460 636 351 479 351 c 0
 237 351 50 500 50 780 c 0
 50 1070 237 1209 479 1209 c 0
 641 1209 813 1094 931 949 c 0
 956 918 954 914 980 946 c 0
 1098 1093 1271 1209 1434 1209 c 0
 1676 1209 1863 1070 1863 780 c 0
816 820 m 0
 718 942 618 997 489 997 c 0
 366 997 291 908 291 780 c 0
 291 642 366 563 489 563 c 0
 619 563 721 621 819 744 c 0
 848 780 845 784 816 820 c 0
EndSplineSet
EndChar

StartChar: integral
Encoding: 8747 8747 442
Width: 920
Flags: W
LayerCount: 2
Fore
SplineSet
210 1144 m 2
 210 1366 404 1600 804 1600 c 0
 1126 1600 1270 1462 1270 1308 c 0
 1270 1148 1160 1086 1036 1086 c 0
 892 1086 796 1162 796 1272 c 0
 796 1366 868 1388 868 1410 c 0
 868 1424 840 1426 820 1426 c 0
 740 1426 630 1354 630 1100 c 2
 630 -63 l 2
 630 -285 436 -519 36 -519 c 0
 -286 -519 -430 -381 -430 -227 c 0
 -430 -67 -320 -5 -196 -5 c 0
 -52 -5 44 -81 44 -191 c 0
 44 -285 -28 -307 -28 -329 c 0
 -28 -343 0 -345 20 -345 c 0
 100 -345 210 -273 210 -19 c 2
 210 1144 l 2
EndSplineSet
EndChar

StartChar: approxequal
Encoding: 8776 8776 443
Width: 1200
Flags: W
LayerCount: 2
Fore
SplineSet
798 674 m 0
 657 674 561 767 504 835 c 0
 461 885 423 901 388 901 c 0
 303 901 282 867 282 817 c 0
 282 806 284 792 287 778 c 2
 287 778 289 771 289 767 c 0
 292 727 259 692 219 692 c 2
 136 692 l 2
 106 692 78 713 69 743 c 0
 23 905 132 1066 293 1111 c 0
 323 1119 355 1124 388 1124 c 0
 537 1124 632 1028 688 964 c 0
 735 909 758 897 788 897 c 0
 852 897 868 920 868 970 c 0
 868 984 866 1000 861 1018 c 0
 860 1021 859 1027 859 1031 c 0
 856 1071 889 1106 929 1106 c 2
 1012 1106 l 2
 1041 1106 1072 1084 1080 1052 c 0
 1121 882 1015 718 861 681 c 0
 841 676 820 674 798 674 c 0
798 174 m 0
 657 174 561 267 504 335 c 0
 461 385 423 401 388 401 c 0
 303 401 282 367 282 317 c 0
 282 306 284 292 287 278 c 2
 287 278 289 271 289 267 c 0
 292 227 259 192 219 192 c 2
 136 192 l 2
 106 192 78 213 69 243 c 0
 23 405 132 566 293 611 c 0
 323 619 355 624 388 624 c 0
 537 624 632 528 688 464 c 0
 735 409 758 397 788 397 c 0
 852 397 868 420 868 470 c 0
 868 484 866 500 861 518 c 0
 860 521 859 527 859 531 c 0
 856 571 889 606 929 606 c 2
 1012 606 l 2
 1041 606 1072 584 1080 552 c 0
 1121 382 1015 218 861 181 c 0
 841 176 820 174 798 174 c 0
EndSplineSet
EndChar

StartChar: notequal
Encoding: 8800 8800 444
Width: 1119
Flags: W
LayerCount: 2
Fore
SplineSet
164 1090 m 2
 956 1090 l 2
 996 1090 1000 1083 1000 1051 c 2
 1000 901 l 2
 1000 866 999 860 954 860 c 2
 175 860 l 2
 128 860 120 865 120 900 c 2
 120 1049 l 2
 120 1081 123 1090 164 1090 c 2
164 690 m 2
 956 690 l 2
 996 690 1000 683 1000 651 c 2
 1000 501 l 2
 1000 466 999 460 954 460 c 2
 175 460 l 2
 128 460 120 465 120 500 c 2
 120 649 l 2
 120 681 123 690 164 690 c 2
157 319 m 2
 811 1254 l 2
 844 1301 852 1303 873 1288 c 2
 972 1219 l 2
 995 1203 997 1198 960 1145 c 2
 316 225 l 2
 277 170 268 164 245 180 c 2
 147 248 l 2
 126 263 123 270 157 319 c 2
EndSplineSet
EndChar

StartChar: lessequal
Encoding: 8804 8804 445
Width: 1119
Flags: W
LayerCount: 2
Fore
SplineSet
438 748 m 2
 960 555 l 2
 989 544 1000 533 1000 491 c 2
 1000 373 l 2
 1000 315 993 313 954 328 c 2
 164 642 l 2
 131 655 120 672 120 720 c 2
 120 830 l 2
 120 890 135 896 176 912 c 2
 940 1216 l 2
 980 1232 1000 1235 1000 1169 c 2
 1000 1082 l 2
 1000 1025 992 1007 952 992 c 2
 438 802 l 2
 403 789 382 788 382 776 c 0
 382 759 399 763 438 748 c 2
164 230 m 2
 956 230 l 2
 996 230 1000 223 1000 191 c 2
 1000 41 l 2
 1000 6 998 0 953 0 c 2
 174 0 l 2
 127 0 120 5 120 40 c 2
 120 189 l 2
 120 221 123 230 164 230 c 2
EndSplineSet
EndChar

StartChar: greaterequal
Encoding: 8805 8805 446
Width: 1119
Flags: W
LayerCount: 2
Fore
SplineSet
682 802 m 2
 160 995 l 2
 131 1006 120 1017 120 1059 c 2
 120 1177 l 2
 120 1235 127 1237 166 1222 c 2
 956 908 l 2
 989 895 1000 878 1000 830 c 2
 1000 720 l 2
 1000 660 985 654 944 638 c 2
 180 334 l 2
 140 318 120 315 120 381 c 2
 120 468 l 2
 120 525 128 543 168 558 c 2
 682 748 l 2
 717 761 738 762 738 774 c 0
 738 791 721 787 682 802 c 2
164 230 m 2
 956 230 l 2
 996 230 1000 223 1000 191 c 2
 1000 41 l 2
 1000 6 998 0 953 0 c 2
 174 0 l 2
 127 0 120 5 120 40 c 2
 120 189 l 2
 120 221 123 230 164 230 c 2
EndSplineSet
EndChar

StartChar: lozenge
Encoding: 9674 9674 447
Width: 1200
Flags: W
LayerCount: 2
Fore
SplineSet
612 30 m 257
 1000 712 l 257
 612 1392 l 257
 200 712 l 257
 612 30 l 257
612 430 m 257
 440 712 l 257
 612 972 l 257
 758 712 l 257
 612 430 l 257
EndSplineSet
EndChar

StartChar: uniF8E8
Encoding: 63720 63720 448
Width: 1125
Flags: W
LayerCount: 2
Fore
SplineSet
562 1592 m 256
 828 1592 1025 1395 1025 1130 c 256
 1025 864 827 668 562 668 c 256
 296 668 100 865 100 1130 c 256
 100 1396 297 1592 562 1592 c 256
562 724 m 256
 792 724 968 889 968 1130 c 256
 968 1371 791 1536 562 1536 c 256
 332 1536 157 1371 157 1130 c 256
 157 888 333 724 562 724 c 256
881 959 m 0
 849 911 807 877 739 877 c 0
 569 877 662 1091 548 1091 c 2
 522 1091 l 2
 510 1091 509 1087 509 1075 c 2
 509 990 l 2
 509 980 510 977 520 977 c 2
 566 977 l 2
 578 977 581 976 581 963 c 2
 581 913 l 2
 581 894 580 890 561 890 c 2
 300 890 l 2
 289 890 286 891 286 902 c 2
 286 963 l 2
 286 975 287 977 299 977 c 2
 339 977 l 2
 354 977 357 979 357 994 c 2
 357 1272 l 2
 357 1287 354 1289 340 1289 c 2
 301 1289 l 2
 287 1289 286 1292 286 1305 c 2
 286 1364 l 2
 286 1375 289 1376 300 1376 c 2
 581 1376 l 2
 731 1376 794 1328 794 1250 c 0
 794 1198 774 1163 721 1143 c 0
 705 1137 698 1132 715 1123 c 0
 793 1080 757 990 794 990 c 0
 804 990 814 998 822 1009 c 0
 829 1020 832 1020 843 1011 c 2
 877 985 l 2
 889 976 889 971 881 959 c 0
526 1175 m 2
 581 1175 l 2
 617 1175 639 1198 639 1230 c 0
 639 1262 617 1289 581 1289 c 2
 523 1289 l 2
 511 1289 509 1286 509 1273 c 2
 509 1190 l 2
 509 1174 510 1175 526 1175 c 2
EndSplineSet
EndChar

StartChar: uniF8E9
Encoding: 63721 63721 449
Width: 1125
Flags: W
LayerCount: 2
Fore
SplineSet
562 1592 m 256
 828 1592 1025 1395 1025 1130 c 256
 1025 864 827 668 562 668 c 256
 296 668 100 865 100 1130 c 256
 100 1396 297 1592 562 1592 c 256
562 724 m 256
 792 724 968 889 968 1130 c 256
 968 1371 791 1536 562 1536 c 256
 332 1536 157 1371 157 1130 c 256
 157 888 333 724 562 724 c 256
260 1124 m 0
 260 1285 387 1408 562 1408 c 0
 612 1408 652 1393 683 1369 c 0
 698 1358 701 1359 713 1374 c 2
 725 1390 l 2
 730 1397 733 1398 746 1398 c 2
 796 1398 l 2
 814 1398 814 1395 814 1377 c 2
 814 1205 l 2
 814 1191 812 1189 798 1189 c 2
 722 1189 l 2
 705 1189 702 1193 699 1206 c 0
 683 1271 649 1316 573 1316 c 0
 498 1316 447 1248 447 1124 c 0
 447 1000 498 936 580 936 c 0
 647 936 700 976 714 1042 c 0
 718 1062 720 1066 738 1066 c 2
 809 1066 l 2
 828 1066 829 1062 827 1049 c 0
 812 927 726 840 566 840 c 0
 384 840 260 949 260 1124 c 0
EndSplineSet
EndChar

StartChar: uniF8EA
Encoding: 63722 63722 450
Width: 1626
Flags: W
LayerCount: 2
Fore
SplineSet
198 993 m 2
 198 1054 l 2
 198 1068 200 1072 214 1072 c 2
 262 1072 l 2
 281 1072 284 1077 284 1096 c 2
 284 1408 l 2
 284 1417 281 1421 272 1421 c 2
 266 1421 l 2
 194 1421 175 1398 173 1309 c 0
 173 1292 168 1288 149 1288 c 2
 105 1288 l 2
 91 1288 86 1289 86 1303 c 2
 86 1494 l 2
 86 1509 87 1515 102 1515 c 2
 623 1515 l 2
 635 1515 637 1511 637 1498 c 2
 637 1309 l 2
 637 1291 634 1288 615 1288 c 2
 572 1288 l 2
 553 1288 550 1290 550 1308 c 0
 548 1398 529 1421 457 1421 c 2
 453 1421 l 2
 442 1421 439 1416 439 1406 c 2
 439 1101 l 2
 439 1078 440 1072 463 1072 c 2
 505 1072 l 2
 522 1072 525 1067 525 1052 c 2
 525 995 l 2
 525 978 522 975 505 975 c 2
 217 975 l 2
 202 975 198 977 198 993 c 2
788 1418 m 2
 746 1418 l 2
 729 1418 729 1418 729 1435 c 2
 729 1504 l 2
 729 1519 735 1515 749 1515 c 2
 1012 1515 l 2
 1040 1515 1037 1505 1044 1485 c 2
 1113 1270 l 2
 1121 1247 1125 1221 1132 1221 c 0
 1140 1221 1144 1234 1153 1258 c 2
 1243 1500 l 2
 1248 1513 1248 1515 1267 1515 c 2
 1492 1515 l 2
 1510 1515 1518 1520 1518 1500 c 2
 1518 1436 l 2
 1518 1418 1518 1418 1500 1418 c 2
 1456 1418 l 2
 1441 1418 1442 1417 1442 1402 c 2
 1453 1087 l 2
 1453 1074 1451 1072 1465 1072 c 2
 1523 1072 l 2
 1535 1072 1536 1069 1536 1057 c 2
 1536 995 l 2
 1536 980 1535 975 1518 975 c 2
 1239 975 l 2
 1223 975 1222 978 1222 994 c 2
 1222 1055 l 2
 1222 1071 1227 1072 1242 1072 c 2
 1280 1072 l 2
 1295 1072 1299 1076 1299 1091 c 2
 1294 1253 l 2
 1293 1303 1304 1352 1291 1352 c 0
 1282 1352 1282 1339 1271 1307 c 2
 1160 983 l 2
 1155 968 1152 964 1131 964 c 2
 1066 964 l 2
 1045 964 1042 968 1037 983 c 2
 930 1294 l 2
 921 1321 913 1370 904 1370 c 0
 898 1370 898 1357 897 1325 c 2
 886 1098 l 2
 885 1081 883 1072 903 1072 c 2
 951 1072 l 2
 964 1072 967 1070 967 1056 c 2
 967 993 l 2
 967 975 963 975 946 975 c 2
 723 975 l 2
 706 975 704 977 704 995 c 2
 704 1060 l 2
 704 1070 705 1072 715 1072 c 2
 772 1072 l 2
 794 1072 789 1081 790 1100 c 2
 806 1405 l 2
 807 1420 803 1418 788 1418 c 2
EndSplineSet
EndChar

StartChar: pi
Encoding: 960 960 451
Width: 1325
Flags: HW
LayerCount: 2
Fore
SplineSet
1249.78613281 994 m 6
 1249.78613281 727 l 6
 1249.78613281 680 1239.78613281 680 1196.78613281 680 c 6
 1141.78613281 680 l 6
 1109.78613281 680 1109.78613281 670 1109.78613281 624 c 6
 1109.78613281 321 l 6
 1109.78613281 252.05078125 1115.8203125 213 1161.78613281 213 c 4
 1198.390625 213 1218.60644531 233.861328125 1236.78613281 267 c 4
 1243.87207031 279.916992188 1258.15917969 275.024414062 1269.78613281 268 c 6
 1365.78613281 210 l 6
 1384.2734375 198.837890625 1388.98632812 192.375976562 1381.78613281 180 c 4
 1330.64746094 92.0986328125 1239.2734375 -20 1043.78613281 -20 c 4
 869.004882812 -20 729.786132812 40.576171875 729.786132812 228 c 6
 729.786132812 612 l 6
 729.786132812 670 719.786132812 680 684.786132812 680 c 6
 551.786132812 680 l 6
 519.786132812 680 509.786132812 669.99609375 509.786132812 621 c 6
 509.786132812 332 l 6
 509.786132812 68 325.786132812 -20 191.786132812 -20 c 4
 45.7861328125 -20 -40.2138671875 70 -40.2138671875 178 c 4
 -40.2138671875 292 31.7861328125 372 145.786132812 372 c 4
 227.786132812 372 228.786132812 338 254.786132812 338 c 4
 288.786132812 338 285.786132812 394 285.786132812 512 c 6
 285.786132812 656 l 6
 285.786132812 676 259.786132812 680 241.786132812 680 c 6
 86.7861328125 680 l 6
 66.7861328125 680 45.7861328125 704 45.7861328125 724 c 6
 45.7861328125 1004 l 6
 45.7861328125 1024 60.7861328125 1040 79.7861328125 1040 c 6
 1181.78613281 1040 l 6
 1239.78613281 1040 1249.78613281 1020 1249.78613281 994 c 6
EndSplineSet
EndChar

StartChar: quotesinglbase
Encoding: 8218 8218 452
Width: 703
Flags: W
LayerCount: 2
Fore
SplineSet
79 198 m 0
 79 344 207 436 343 436 c 0
 511 436 623 325 623 109 c 0
 623 -171 336 -365 152 -389 c 0
 123 -393 115 -388 115 -356 c 2
 115 -237 l 2
 115 -217 123 -213 140 -211 c 0
 260 -199 381 -101 422 -32 c 0
 427 -24 420 -18 408 -23 c 0
 385 -33 349 -40 305 -40 c 0
 169 -40 79 52 79 198 c 0
EndSplineSet
EndChar

StartChar: circumflex
Encoding: 710 710 454
Width: 1000
Flags: W
LayerCount: 2
Fore
SplineSet
242 1640 m 2
 173 1710 l 2
 158 1725 158 1727 170 1744 c 2
 358 2002 l 2
 369 2018 382 2019 411 2019 c 2
 596 2019 l 2
 622 2019 632 2016 642 2002 c 2
 834 1740 l 2
 844 1730 837 1721 826 1710 c 2
 752 1636 l 2
 737 1621 737 1623 720 1635 c 2
 525 1780 l 2
 507 1793 493 1794 475 1781 c 2
 278 1634 l 2
 263 1623 255 1627 242 1640 c 2
EndSplineSet
EndChar

StartChar: quotedblbase
Encoding: 8222 8222 455
Width: 1324
Flags: W
LayerCount: 2
Fore
SplineSet
80 202 m 0
 80 348 208 440 344 440 c 0
 512 440 624 329 624 113 c 0
 624 -167 337 -361 153 -385 c 0
 124 -389 116 -384 116 -352 c 2
 116 -233 l 2
 116 -213 124 -209 141 -207 c 0
 261 -195 382 -97 423 -28 c 0
 428 -20 421 -14 409 -19 c 0
 386 -29 350 -36 306 -36 c 0
 170 -36 80 56 80 202 c 0
700 202 m 0
 700 348 828 440 964 440 c 0
 1132 440 1244 329 1244 113 c 0
 1244 -167 957 -361 773 -385 c 0
 744 -389 736 -384 736 -352 c 2
 736 -233 l 2
 736 -213 744 -209 761 -207 c 0
 881 -195 1002 -97 1043 -28 c 0
 1048 -20 1041 -14 1029 -19 c 0
 1006 -29 970 -36 926 -36 c 0
 790 -36 700 56 700 202 c 0
EndSplineSet
EndChar

StartChar: a.sc
Encoding: 65554 -1 456
Width: 1446
Flags: W
AnchorPoint: "Anchor-0" 772 1033 basechar 0
AnchorPoint: "Anchor-1" 656 0 basechar 0
AnchorPoint: "Anchor-2" 1154 0 basechar 0
LayerCount: 2
Fore
SplineSet
22 49 m 2
 22 187 l 2
 22 215 26 229 54 229 c 2
 166 229 l 2
 186 229 190 228 194 238 c 2
 552 1037 l 2
 562 1059 563 1059 595 1059 c 2
 901 1053 l 2
 934 1052 937 1047 947 1024 c 2
 1266 246 l 2
 1274 227 1277 231 1313 231 c 2
 1404 231 l 2
 1432 231 1441 229 1441 198 c 2
 1441 38 l 2
 1441 6 1439 0 1410 0 c 2
 770 0 l 2
 740 0 742 10 742 42 c 2
 742 195 l 2
 742 225 744 231 772 231 c 2
 851 231 l 2
 862 231 886 238 881 251 c 2
 872 273 l 2
 865 290 861 305 835 305 c 2
 540 305 l 2
 510 305 506 293 494 273 c 2
 480 248 l 2
 475 238 480 231 494 231 c 2
 566 231 l 2
 590 231 589 222 589 196 c 2
 589 32 l 2
 589 6 585 0 561 0 c 2
 67 0 l 2
 25 0 22 4 22 49 c 2
598 524 m 1
 588 505 592 481 616 481 c 2
 762 481 l 2
 791 481 789 499 782 521 c 2
 710 716 l 2
 705 731 700 738 696 738 c 0
 691 738 686 730 679 713 c 2
 598 524 l 1
EndSplineSet
EndChar

StartChar: b.sc
Encoding: 65564 -1 466
Width: 1390
Flags: W
AnchorPoint: "Anchor-0" 646 1040 basechar 0
AnchorPoint: "Anchor-1" 668 0 basechar 0
LayerCount: 2
Fore
SplineSet
780 0 m 2
 67 0 l 2
 32 0 35 22 35 59 c 2
 35 214 l 2
 35 235 40 241 59 241 c 2
 155 241 l 2
 184 241 188 249 188 277 c 2
 188 769 l 2
 188 791 182 799 159 799 c 2
 65 799 l 2
 37 799 35 806 35 836 c 2
 35 994 l 2
 35 1026 38 1040 67 1040 c 2
 727 1040 l 2
 922 1040 1064 1021 1152 984 c 128
 1240 947 1284 880 1284 783 c 0
 1284 671 1202 596 1038 558 c 0
 1021 554 1012 549 1012 542 c 128
 1012 535 1022 530 1043 527 c 0
 1142 511 1219 483 1274 444 c 128
 1329 405 1356 354 1356 291 c 0
 1356 157 1292 88 1189 49 c 0
 1079 8 956 0 780 0 c 2
618 655 m 2
 714 655 l 2
 757 655 792 662 817 674 c 128
 842 686 855 705 855 732 c 256
 855 759 844 777 822 786 c 128
 800 795 764 799 714 799 c 2
 614 799 l 2
 596 799 578 801 578 785 c 2
 578 682 l 2
 578 657 589 655 618 655 c 2
747 241 m 2
 810 241 854 250 876 267 c 128
 898 284 909 307 909 334 c 256
 909 361 894 381 864 394 c 128
 834 407 796 413 747 413 c 2
 608 413 l 2
 588 413 578 406 578 393 c 2
 578 267 l 2
 578 245 585 241 611 241 c 2
 747 241 l 2
EndSplineSet
EndChar

StartChar: c.sc
Encoding: 65565 -1 467
Width: 1356
Flags: W
AnchorPoint: "Anchor-0" 740 1035 basechar 0
AnchorPoint: "Anchor-1" 740 1 basechar 0
LayerCount: 2
Fore
SplineSet
49 517 m 0
 49 685 136 824 240 910 c 0
 355 1005 524 1069 723 1069 c 0
 779 1069 829 1061 874 1044 c 128
 919 1027 959 1004 993 975 c 0
 1010 962 1022 956 1029 957 c 128
 1036 958 1047 968 1060 987 c 2
 1086 1024 l 2
 1099 1041 1103 1043 1133 1043 c 2
 1245 1043 l 2
 1285 1043 1286 1034 1286 993 c 2
 1286 658 l 2
 1286 631 1276 631 1245 631 c 2
 1055 631 l 2
 1016 631 1008 635 999 660 c 0
 984 716 958 761 921 796 c 128
 884 831 829 849 756 849 c 0
 684 849 626 821 581 764 c 128
 536 707 514 626 514 520 c 256
 514 414 537 334 584 280 c 128
 631 226 694 198 775 198 c 0
 840 198 897 214 944 246 c 128
 991 278 1022 322 1036 379 c 0
 1047 413 1051 421 1096 421 c 2
 1271 421 l 2
 1307 421 1322 418 1318 392 c 0
 1298 268 1245 166 1148 86 c 128
 1051 6 912 -34 733 -34 c 0
 598 -34 479 -11 376 34 c 128
 273 79 192 142 135 224 c 128
 78 306 49 404 49 517 c 0
EndSplineSet
EndChar

StartChar: d.sc
Encoding: 65571 -1 473
Width: 1475
Flags: W
AnchorPoint: "Anchor-0" 742 1040 basechar 0
AnchorPoint: "Anchor-1" 742 0 basechar 0
LayerCount: 2
Fore
SplineSet
35 30 m 2
 35 205 l 2
 35 231 38 241 62 241 c 2
 162 241 l 2
 186 241 188 245 188 268 c 2
 188 769 l 2
 188 796 183 799 155 799 c 2
 69 799 l 2
 36 799 35 807 35 842 c 2
 35 993 l 2
 35 1029 39 1040 72 1040 c 2
 716 1040 l 2
 962 1040 1155 998 1278 890 c 128
 1374 806 1427 688 1427 520 c 0
 1427 360 1364 224 1267 145 c 0
 1139 40 969 0 716 0 c 2
 68 0 l 2
 43 0 35 2 35 30 c 2
648 241 m 2
 712 241 l 2
 791 241 852 264 896 310 c 128
 940 356 962 426 962 520 c 256
 962 614 938 684 891 730 c 128
 844 776 784 799 712 799 c 2
 649 799 l 2
 618 799 608 796 608 766 c 2
 608 269 l 2
 608 242 619 241 648 241 c 2
EndSplineSet
EndChar

StartChar: e.sc
Encoding: 65573 -1 475
Width: 1353
Flags: W
AnchorPoint: "Anchor-0" 680 1040 basechar 0
AnchorPoint: "Anchor-1" 660 0 basechar 0
AnchorPoint: "Anchor-2" 1143 45 basechar 0
LayerCount: 2
Fore
SplineSet
157 799 m 2
 67 799 l 2
 35 799 35 808 35 842 c 2
 35 999 l 2
 35 1036 41 1040 74 1040 c 2
 1246 1040 l 2
 1280 1040 1281 1031 1281 997 c 2
 1281 660 l 2
 1281 637 1275 642 1247 642 c 2
 1077 642 l 2
 1054 642 1050 644 1048 661 c 0
 1042 780 979 799 836 799 c 2
 652 799 l 2
 627 799 608 799 608 776 c 2
 608 646 l 2
 608 623 612 617 634 617 c 2
 638 617 l 2
 704 617 753 655 765 705 c 0
 770 722 772 728 796 728 c 2
 895 728 l 2
 926 728 938 731 938 705 c 2
 938 334 l 2
 938 312 927 313 900 313 c 2
 797 313 l 2
 764 313 771 317 764 338 c 0
 754 382 698 428 644 428 c 2
 640 428 l 2
 619 428 608 418 608 399 c 2
 608 261 l 2
 608 239 622 241 649 241 c 2
 822 241 l 2
 973 241 1061 261 1066 399 c 0
 1068 462 1056 483 1111 483 c 2
 1263 483 l 2
 1309 483 1299 460 1299 403 c 2
 1299 36 l 2
 1299 -1 1298 0 1262 0 c 2
 69 0 l 2
 37 0 35 -3 35 32 c 2
 35 212 l 2
 35 240 35 241 60 241 c 2
 157 241 l 2
 189 241 188 227 188 265 c 2
 188 777 l 2
 188 799 180 799 157 799 c 2
EndSplineSet
EndChar

StartChar: f.sc
Encoding: 65583 -1 485
Width: 1311
Flags: W
AnchorPoint: "Anchor-0" 666 1040 basechar 0
AnchorPoint: "Anchor-1" 407 0 basechar 0
LayerCount: 2
Fore
SplineSet
163 799 m 2
 52 799 l 2
 34 799 35 809 35 828 c 2
 35 1017 l 2
 35 1038 39 1040 58 1040 c 2
 1237 1040 l 2
 1265 1040 1267 1032 1267 1004 c 2
 1267 646 l 2
 1267 630 1256 631 1235 631 c 2
 1076 631 l 2
 1050 631 1037 628 1035 648 c 0
 1030 772 967 799 821 799 c 2
 640 799 l 2
 620 799 608 801 608 783 c 2
 608 612 l 2
 608 607 610 605 614 605 c 2
 615 605 l 2
 682 605 748 650 753 710 c 0
 755 718 754 718 766 718 c 2
 903 718 l 2
 919 718 924 716 924 703 c 2
 924 306 l 2
 924 297 914 292 895 292 c 2
 788 292 l 2
 767 292 756 291 753 305 c 0
 745 360 681 406 618 406 c 2
 617 406 l 2
 611 406 608 404 608 400 c 2
 608 263 l 2
 608 241 615 241 640 241 c 2
 765 241 l 2
 799 241 798 242 798 208 c 2
 798 42 l 2
 798 4 794 0 756 0 c 2
 63 0 l 2
 38 0 35 4 35 31 c 2
 35 215 l 2
 35 239 39 241 61 241 c 2
 158 241 l 2
 185 241 188 243 188 269 c 2
 188 779 l 2
 188 792 180 799 163 799 c 2
EndSplineSet
EndChar

StartChar: g.sc
Encoding: 65584 -1 486
Width: 1509
Flags: W
AnchorPoint: "Anchor-0" 740 1035 basechar 0
AnchorPoint: "Anchor-1" 719 3 basechar 0
LayerCount: 2
Fore
SplineSet
775 618 m 2
 1460 618 l 2
 1494 618 1496 610 1496 573 c 2
 1496 416 l 2
 1496 389 1492 386 1466 386 c 2
 1382 386 l 2
 1361 386 1357 385 1357 364 c 2
 1357 216 l 2
 1357 201 1355 191 1352 186 c 128
 1349 181 1342 175 1333 168 c 0
 1299 141 1253 113 1196 82 c 128
 1139 51 1072 24 996 2 c 128
 920 -20 835 -32 743 -32 c 0
 608 -32 489 -10 384 35 c 128
 279 80 197 143 138 226 c 128
 79 309 49 406 49 519 c 0
 49 687 133 825 236 911 c 0
 351 1007 520 1069 722 1069 c 0
 783 1069 838 1060 884 1042 c 128
 930 1024 970 1000 1005 970 c 0
 1019 961 1030 956 1037 956 c 128
 1044 956 1053 964 1064 978 c 2
 1103 1028 l 2
 1111 1038 1125 1043 1145 1043 c 2
 1279 1043 l 2
 1309 1043 1321 1042 1321 1013 c 2
 1321 710 l 2
 1321 681 1315 679 1281 679 c 2
 1105 679 l 2
 1058 679 1061 681 1043 705 c 0
 1013 752 976 788 931 812 c 128
 886 836 828 849 756 849 c 256
 684 849 626 821 581 764 c 128
 536 707 514 625 514 518 c 256
 514 411 534 329 573 271 c 128
 612 213 666 184 735 184 c 0
 796 184 840 193 866 212 c 128
 892 231 911 253 924 276 c 0
 932 291 937 301 937 324 c 2
 937 362 l 2
 937 385 933 386 908 386 c 2
 767 386 l 2
 726 386 735 401 735 440 c 2
 735 575 l 2
 735 613 740 618 775 618 c 2
EndSplineSet
EndChar

StartChar: h.sc
Encoding: 65588 -1 490
Width: 1673
Flags: W
AnchorPoint: "Anchor-0" 889 1040 basechar 0
AnchorPoint: "Anchor-1" 885 0 basechar 0
LayerCount: 2
Fore
SplineSet
641 780 m 2
 641 669 l 2
 641 643 657 646 688 646 c 2
 1035 646 l 2
 1068 646 1076 646 1076 675 c 2
 1076 783 l 2
 1076 794 1065 799 1044 799 c 2
 976 799 l 2
 938 799 937 804 937 845 c 2
 937 986 l 2
 937 1030 938 1040 978 1040 c 2
 1597 1040 l 2
 1628 1040 1639 1030 1639 996 c 2
 1639 842 l 2
 1639 809 1635 799 1604 799 c 2
 1514 799 l 2
 1489 799 1486 793 1486 769 c 2
 1486 270 l 2
 1486 247 1489 241 1513 241 c 2
 1603 241 l 2
 1637 241 1639 228 1639 190 c 2
 1639 72 l 2
 1639 12 1638 0 1583 0 c 2
 992 0 l 2
 945 0 937 11 937 62 c 2
 937 201 l 2
 937 232 942 241 971 241 c 2
 1033 241 l 2
 1061 241 1076 240 1076 264 c 2
 1076 398 l 2
 1076 421 1064 422 1038 422 c 2
 677 422 l 2
 650 422 641 421 641 397 c 2
 641 269 l 2
 641 242 649 241 681 241 c 2
 772 241 l 2
 808 241 820 239 820 204 c 2
 820 58 l 2
 820 6 798 0 748 0 c 2
 97 0 l 2
 44 0 35 7 35 60 c 2
 35 184 l 2
 35 224 37 241 77 241 c 2
 173 241 l 2
 210 241 231 238 231 270 c 2
 231 772 l 2
 231 800 215 799 183 799 c 2
 93 799 l 2
 46 799 35 804 35 853 c 2
 35 990 l 2
 35 1033 55 1040 97 1040 c 2
 748 1040 l 2
 800 1040 820 1033 820 979 c 2
 820 842 l 2
 820 804 816 799 778 799 c 2
 679 799 l 2
 653 799 641 801 641 780 c 2
EndSplineSet
EndChar

StartChar: hyphen.sc
Encoding: 65590 -1 492
Width: 920
Flags: W
LayerCount: 2
Fore
SplineSet
154 650 m 2
 766 650 l 2
 781 650 790 647 794 642 c 128
 798 637 800 627 800 611 c 2
 800 461 l 2
 800 444 798 433 795 428 c 128
 792 423 781 420 764 420 c 2
 162 420 l 2
 144 420 133 422 128 427 c 128
 123 432 120 443 120 460 c 2
 120 609 l 2
 120 625 122 636 125 642 c 128
 128 648 138 650 154 650 c 2
EndSplineSet
EndChar

StartChar: i.sc
Encoding: 65591 -1 493
Width: 970
Flags: W
AnchorPoint: "Anchor-0" 473 1040 basechar 0
AnchorPoint: "Anchor-1" 470 0 basechar 0
AnchorPoint: "Anchor-2" 470 0 basechar 0
LayerCount: 2
Fore
SplineSet
686 786 m 2
 686 249 l 2
 686 220 701 223 734 223 c 2
 876 223 l 2
 906 223 919 223 919 193 c 2
 919 45 l 2
 919 5 913 0 874 0 c 2
 97 0 l 2
 55 0 52 8 52 50 c 2
 52 179 l 2
 52 219 62 223 101 223 c 2
 224 223 l 2
 254 223 266 224 266 251 c 2
 266 785 l 2
 266 816 261 817 226 817 c 2
 99 817 l 2
 61 817 52 821 52 860 c 2
 52 989 l 2
 52 1032 54 1040 97 1040 c 2
 871 1040 l 2
 913 1040 919 1031 919 990 c 2
 919 865 l 2
 919 822 914 817 872 817 c 2
 731 817 l 2
 697 817 686 815 686 786 c 2
EndSplineSet
EndChar

StartChar: j.sc
Encoding: 65600 -1 502
Width: 1161
Flags: W
AnchorPoint: "Anchor-0" 682 1040 basechar 0
AnchorPoint: "Anchor-1" 459 8 basechar 0
LayerCount: 2
Fore
SplineSet
0 267 m 0
 0 337 22 394 68 439 c 0
 114 484 175 506 250 506 c 0
 315 506 365 494 402 469 c 0
 439 444 458 413 458 376 c 0
 458 341 450 316 433 300 c 0
 416 284 399 272 382 265 c 0
 365 258 357 248 357 237 c 0
 357 227 364 215 376 200 c 0
 388 185 412 178 448 178 c 0
 483 178 514 191 540 216 c 0
 566 241 580 286 580 351 c 2
 580 764 l 2
 580 799 569 799 532 799 c 2
 399 799 l 2
 365 799 358 804 358 842 c 2
 358 988 l 2
 358 1028 356 1040 393 1040 c 2
 1113 1040 l 2
 1145 1040 1148 1029 1148 994 c 2
 1148 836 l 2
 1148 801 1143 799 1111 799 c 2
 1008 799 l 2
 984 799 982 790 982 767 c 2
 982 350 l 2
 982 221 916 129 832 71 c 0
 738 7 600 -28 446 -28 c 0
 359 -28 281 -14 214 14 c 0
 147 42 94 79 56 124 c 0
 18 169 0 217 0 267 c 0
EndSplineSet
EndChar

StartChar: k.sc
Encoding: 65602 -1 504
Width: 1439
Flags: W
AnchorPoint: "Anchor-0" 785 1040 basechar 0
AnchorPoint: "Anchor-1" 788 0 basechar 0
LayerCount: 2
Fore
SplineSet
35 48 m 2
 35 200 l 2
 35 231 36 241 64 241 c 2
 152 241 l 2
 183 241 188 243 188 272 c 2
 188 778 l 2
 188 799 177 799 155 799 c 2
 62 799 l 2
 33 799 35 814 35 845 c 2
 35 999 l 2
 35 1032 41 1040 71 1040 c 2
 739 1040 l 2
 768 1040 774 1033 774 1001 c 2
 774 853 l 2
 774 813 775 799 738 799 c 2
 641 799 l 2
 614 799 608 796 608 770 c 2
 608 603 l 2
 608 562 614 556 644 576 c 2
 945 780 l 2
 968 796 961 799 914 799 c 2
 880 799 l 2
 841 799 837 804 837 847 c 2
 837 1003 l 2
 837 1029 838 1040 862 1040 c 2
 1369 1040 l 2
 1393 1040 1391 1020 1391 995 c 2
 1391 850 l 2
 1391 814 1392 799 1359 799 c 2
 1262 799 l 2
 1221 799 1220 792 1196 776 c 2
 1018 653 l 2
 990 634 981 631 1001 607 c 2
 1292 267 l 2
 1312 244 1316 241 1361 241 c 2
 1440 241 l 2
 1464 241 1468 232 1468 206 c 2
 1468 36 l 2
 1468 7 1459 0 1432 0 c 2
 845 0 l 2
 817 0 816 11 816 41 c 2
 816 199 l 2
 816 234 825 241 856 241 c 2
 921 241 l 2
 969 241 949 252 934 271 c 2
 784 462 l 2
 774 475 760 476 742 463 c 2
 633 387 l 2
 617 375 608 368 608 343 c 2
 608 264 l 2
 608 241 616 241 640 241 c 2
 733 241 l 2
 760 241 760 231 760 202 c 2
 760 50 l 2
 760 9 756 0 719 0 c 2
 67 0 l 2
 34 0 35 12 35 48 c 2
EndSplineSet
EndChar

StartChar: l.sc
Encoding: 65603 -1 505
Width: 1224
Flags: W
AnchorPoint: "Anchor-0" 343 1040 basechar 0
AnchorPoint: "Anchor-1" 640 0 basechar 0
AnchorPoint: "Anchor-3" 801 632 basechar 0
LayerCount: 2
Fore
SplineSet
158 799 m 2
 59 799 l 2
 35 799 35 807 35 833 c 2
 35 992 l 2
 35 1028 33 1040 67 1040 c 2
 754 1040 l 2
 786 1040 788 1032 788 997 c 2
 788 842 l 2
 788 807 783 799 751 799 c 2
 642 799 l 2
 617 799 608 800 608 776 c 2
 608 274 l 2
 608 245 610 241 642 241 c 2
 726 241 l 2
 891 241 967 295 975 460 c 0
 978 487 978 485 1012 485 c 2
 1153 485 l 2
 1178 485 1190 486 1190 464 c 2
 1190 46 l 2
 1190 9 1189 0 1153 0 c 2
 66 0 l 2
 35 0 35 9 35 43 c 2
 35 209 l 2
 35 230 36 241 55 241 c 2
 151 241 l 2
 180 241 188 244 188 272 c 2
 188 770 l 2
 188 796 185 799 158 799 c 2
EndSplineSet
EndChar

StartChar: lcaron.sc
Encoding: 65605 -1 507
Width: 1294
Flags: W
LayerCount: 2
Fore
SplineSet
873 1062 m 0
 873 1172 969 1241 1071 1241 c 0
 1197 1241 1281 1158 1281 996 c 0
 1281 786 1066 640 928 622 c 0
 906 619 900 623 900 647 c 2
 900 736 l 2
 900 751 906 754 919 756 c 0
 1009 765 1099 838 1130 890 c 0
 1134 896 1129 901 1120 897 c 0
 1103 889 1076 884 1043 884 c 0
 941 884 873 952 873 1062 c 0
EndSplineSet
Refer: 505 -1 N 1 0 0 1 0 0 2
EndChar

StartChar: m.sc
Encoding: 65606 -1 508
Width: 1759
Flags: W
AnchorPoint: "Anchor-0" 858 1040 basechar 0
AnchorPoint: "Anchor-1" 788 5 basechar 0
LayerCount: 2
Fore
SplineSet
163 799 m 2
 84 799 l 2
 47 799 50 801 50 841 c 2
 50 1012 l 2
 50 1047 61 1040 89 1040 c 2
 622 1040 l 2
 680 1040 671 1023 688 983 c 2
 862 574 l 2
 870 552 877 531 882 511 c 128
 891 477 908 469 922 499 c 128
 928 511 935 529 944 552 c 2
 1139 1012 l 2
 1150 1038 1151 1040 1189 1040 c 2
 1676 1040 l 2
 1717 1040 1724 1049 1724 1002 c 2
 1724 845 l 2
 1724 800 1737 799 1691 799 c 2
 1599 799 l 2
 1566 799 1566 802 1566 774 c 2
 1566 265 l 2
 1566 241 1557 241 1589 241 c 2
 1700 241 l 2
 1725 241 1725 232 1725 204 c 2
 1725 49 l 2
 1725 14 1725 0 1691 0 c 2
 1066 0 l 2
 1032 0 1034 11 1034 47 c 2
 1034 199 l 2
 1034 236 1038 241 1071 241 c 2
 1145 241 l 2
 1171 241 1204 245 1204 271 c 2
 1203 533 l 2
 1202 574 1200 611 1197 644 c 128
 1194 677 1187 693 1176 693 c 0
 1167 693 1161 687 1158 676 c 128
 1155 665 1148 647 1137 621 c 2
 914 19 l 2
 902 -14 900 -21 858 -21 c 2
 733 -21 l 2
 690 -21 689 -13 676 19 c 2
 447 600 l 2
 441 615 435 631 430 650 c 128
 425 669 413 722 397 722 c 0
 388 722 384 698 384 650 c 2
 386 282 l 2
 386 247 373 241 419 241 c 2
 511 241 l 2
 540 241 541 233 541 201 c 2
 541 46 l 2
 541 6 537 0 501 0 c 2
 71 0 l 2
 34 0 35 9 35 49 c 2
 35 210 l 2
 35 233 34 241 55 241 c 2
 165 241 l 2
 218 241 200 248 200 286 c 2
 199 779 l 2
 199 798 186 799 163 799 c 2
EndSplineSet
EndChar

StartChar: n.sc
Encoding: 65607 -1 509
Width: 1432
Flags: W
AnchorPoint: "Anchor-0" 710 1040 basechar 0
AnchorPoint: "Anchor-1" 682 5 basechar 0
LayerCount: 2
Fore
SplineSet
145 799 m 2
 66 799 l 2
 40 799 35 804 35 832 c 2
 35 983 l 2
 35 1030 37 1040 80 1040 c 2
 423 1040 l 2
 477 1040 494 1038 520 1011 c 2
 988 537 l 2
 1018 506 1025 490 1025 565 c 2
 1025 776 l 2
 1025 791 1018 799 1003 799 c 2
 903 799 l 2
 871 799 872 813 872 848 c 2
 872 994 l 2
 872 1033 878 1040 913 1040 c 2
 1386 1040 l 2
 1407 1040 1412 1033 1412 1009 c 2
 1412 855 l 2
 1412 805 1410 799 1364 799 c 2
 1297 799 l 2
 1273 799 1266 794 1266 771 c 2
 1266 9 l 2
 1266 -18 1259 -21 1231 -21 c 2
 1125 -21 l 2
 1080 -21 1072 -7 1050 15 c 2
 458 621 l 2
 423 657 422 659 422 585 c 2
 422 273 l 2
 422 244 427 241 457 241 c 2
 557 241 l 2
 578 241 581 230 581 207 c 2
 581 45 l 2
 581 5 568 0 532 0 c 2
 81 0 l 2
 36 0 35 9 35 58 c 2
 35 195 l 2
 35 237 38 241 77 241 c 2
 145 241 l 2
 175 241 181 245 181 274 c 2
 181 769 l 2
 181 801 179 799 145 799 c 2
EndSplineSet
EndChar

StartChar: o.sc
Encoding: 65611 -1 513
Width: 1471
Flags: W
AnchorPoint: "Anchor-0" 733 1036 basechar 0
AnchorPoint: "Anchor-1" 733 2 basechar 0
LayerCount: 2
Fore
SplineSet
49 519 m 256
 49 892 352 1070 736 1070 c 256
 1120 1070 1423 892 1423 519 c 256
 1423 152 1111 -33 736 -33 c 0
 352 -33 49 146 49 519 c 256
514 519 m 256
 514 339 565 192 736 192 c 0
 917 192 958 333 958 519 c 256
 958 699 908 846 736 846 c 0
 565 846 514 699 514 519 c 256
EndSplineSet
EndChar

StartChar: p.sc
Encoding: 65620 -1 522
Width: 1304
Flags: W
AnchorPoint: "Anchor-0" 612 1040 basechar 0
AnchorPoint: "Anchor-1" 359 0 basechar 0
LayerCount: 2
Fore
SplineSet
149 799 m 2
 72 799 l 2
 37 799 35 803 35 842 c 2
 35 994 l 2
 35 1033 39 1040 74 1040 c 2
 703 1040 l 2
 977 1040 1277 977 1277 710 c 256
 1277 444 992 366 722 366 c 2
 614 366 l 2
 585 366 578 367 578 344 c 2
 578 262 l 2
 578 240 588 241 614 241 c 2
 758 241 l 2
 790 241 788 230 788 196 c 2
 788 50 l 2
 788 12 791 0 756 0 c 2
 68 0 l 2
 37 0 35 7 35 41 c 2
 35 196 l 2
 35 231 35 241 67 241 c 2
 147 241 l 2
 183 241 188 244 188 278 c 2
 188 771 l 2
 188 800 180 799 149 799 c 2
607 609 m 2
 677 609 l 2
 756 609 830 635 830 709 c 0
 830 783 756 799 677 799 c 2
 603 799 l 2
 581 799 578 798 578 778 c 2
 578 630 l 2
 578 610 585 609 607 609 c 2
EndSplineSet
EndChar

StartChar: q.sc
Encoding: 65621 -1 523
Width: 1490
Flags: W
AnchorPoint: "Anchor-0" 733 1036 basechar 0
LayerCount: 2
Fore
SplineSet
49 519 m 256
 49 892 353 1070 736 1070 c 256
 1119 1070 1423 894 1423 522 c 0
 1423 297 1283 150 1121 69 c 0
 1079 47 1075 43 1120 20 c 0
 1137 11 1157 7 1178 7 c 0
 1260 7 1304 57 1314 135 c 128
 1315 140 1322 143 1337 143 c 2
 1453 143 l 2
 1496 143 1513 139 1507 97 c 0
 1486 -82 1404 -299 1207 -299 c 0
 1034 -299 978 -172 926 -50 c 0
 916 -26 910 -17 877 -21 c 0
 833 -29 787 -33 739 -33 c 0
 355 -33 49 146 49 519 c 256
941 332 m 0
 952 383 958 441 958 504 c 0
 958 689 910 846 736 846 c 0
 565 846 514 700 514 520 c 0
 514 485 515 450 520 420 c 0
 526 380 525 391 551 416 c 0
 586 451 645 475 717 475 c 0
 810 475 863 413 902 353 c 0
 916 331 933 286 941 332 c 0
673 277 m 0
 647 277 625 274 607 266 c 0
 580 254 576 240 596 223 c 0
 631 195 673 176 734 176 c 0
 753 176 769 177 785 180 c 0
 811 187 816 199 800 218 c 0
 772 252 733 277 673 277 c 0
EndSplineSet
EndChar

StartChar: r.sc
Encoding: 65622 -1 524
Width: 1512
Flags: W
AnchorPoint: "Anchor-0" 667 1040 basechar 0
AnchorPoint: "Anchor-1" 730 0 basechar 0
LayerCount: 2
Fore
SplineSet
1498 171 m 0
 1427 60 1333 -36 1159 -36 c 0
 995 -36 953 63 924 194 c 128
 896 321 860 423 701 423 c 2
 607 423 l 2
 581 423 578 423 578 401 c 2
 578 260 l 2
 578 244 581 241 600 241 c 2
 728 241 l 2
 756 241 760 231 760 200 c 2
 760 64 l 2
 760 15 763 0 718 0 c 2
 65 0 l 2
 39 0 35 6 35 34 c 2
 35 202 l 2
 35 232 36 241 64 241 c 2
 148 241 l 2
 179 241 188 242 188 271 c 2
 188 769 l 2
 188 797 179 799 150 799 c 2
 67 799 l 2
 36 799 35 812 35 845 c 2
 35 1006 l 2
 35 1035 40 1040 66 1040 c 2
 763 1040 l 2
 1034 1040 1314 1002 1314 790 c 0
 1314 665 1210 589 1081 579 c 0
 1038 575 1015 551 1066 538 c 0
 1164 516 1201 445 1225 354 c 128
 1235 318 1246 275 1287 275 c 0
 1313 275 1334 277 1356 300 c 0
 1369 314 1380 323 1407 302 c 2
 1489 237 l 2
 1519 213 1520 202 1498 171 c 0
614 636 m 2
 760 636 l 2
 823 636 885 659 885 715 c 0
 885 772 824 799 760 799 c 2
 607 799 l 2
 584 799 578 798 578 777 c 2
 578 657 l 2
 578 633 585 636 614 636 c 2
EndSplineSet
EndChar

